<svg xmlns="http://www.w3.org/2000/svg" width="1080" height="1080" viewBox="0 0 1080 1080">
  <rect width="1080" height="1080" fill="#0a0a0a"/>
  <defs><filter id="glow" x="-60%" y="-60%" width="220%" height="220%"><feGaussianBlur stdDeviation="5.95"/></filter></defs>
  <rect x="423.7" y="623.3" width="232.6" height="7" rx="3.5" fill="#e10600" filter="url(#glow)" opacity="0.75"/>
  <path d="M271.12 592.73L314.94 452.73L295.57 446.67L251.75 586.67Z M358.76 586.67L314.94 446.67L295.57 452.73L339.39 592.73Z M275.46 554.24L335.05 554.24L335.05 535.56L275.46 535.56Z M315.41 453.35L315.39 452.82L315.35 452.29L315.28 451.77L315.18 451.24L315.06 450.73L314.91 450.22L314.73 449.72L314.53 449.23L314.3 448.75L314.05 448.28L313.77 447.83L313.47 447.39L313.14 446.97L312.8 446.56L312.43 446.18L312.05 445.81L311.64 445.47L311.22 445.14L310.78 444.84L310.33 444.56L309.86 444.31L309.38 444.08L308.89 443.88L308.39 443.7L307.88 443.55L307.37 443.43L306.84 443.33L306.32 443.26L305.79 443.22L305.26 443.2L304.72 443.22L304.19 443.26L303.67 443.33L303.14 443.43L302.63 443.55L302.12 443.7L301.62 443.88L301.13 444.08L300.65 444.31L300.18 444.56L299.73 444.84L299.29 445.14L298.87 445.47L298.46 445.81L298.08 446.18L297.71 446.56L297.37 446.97L297.04 447.39L296.74 447.83L296.46 448.28L296.21 448.75L295.98 449.23L295.78 449.72L295.6 450.22L295.45 450.73L295.33 451.24L295.23 451.77L295.16 452.29L295.12 452.82L295.11 453.35L295.12 453.89L295.16 454.41L295.23 454.94L295.33 455.46L295.45 455.98L295.6 456.49L295.78 456.99L295.98 457.48L296.21 457.96L296.46 458.43L296.74 458.88L297.04 459.32L297.37 459.74L297.71 460.15L298.08 460.53L298.46 460.9L298.87 461.24L299.29 461.57L299.73 461.87L300.18 462.14L300.65 462.4L301.13 462.63L301.62 462.83L302.12 463.01L302.63 463.16L303.14 463.28L303.67 463.38L304.19 463.45L304.72 463.49L305.26 463.5L305.79 463.49L306.32 463.45L306.84 463.38L307.37 463.28L307.88 463.16L308.39 463.01L308.89 462.83L309.38 462.63L309.86 462.4L310.33 462.14L310.78 461.87L311.22 461.57L311.64 461.24L312.05 460.9L312.43 460.53L312.8 460.15L313.14 459.74L313.47 459.32L313.77 458.88L314.05 458.43L314.3 457.96L314.53 457.48L314.73 456.99L314.91 456.49L315.06 455.98L315.18 455.46L315.28 454.94L315.35 454.41L315.39 453.89L315.41 453.35Z M409.56 589.7L409.56 449.7L389.26 449.7L389.26 589.7Z M457.86 589.7L457.86 449.7L437.56 449.7L437.56 589.7Z M447.71 459.85L451.39 459.88L455.06 459.98L458.71 460.15L462.33 460.38L465.91 460.67L469.44 461.03L472.92 461.45L476.32 461.94L479.64 462.48L482.88 463.09L486.02 463.75L489.06 464.46L491.98 465.23L494.78 466.05L497.45 466.92L499.99 467.84L502.38 468.8L504.62 469.8L506.71 470.85L508.63 471.93L510.39 473.04L511.97 474.18L513.38 475.35L514.61 476.54L515.66 477.75L516.52 478.98L517.19 480.22L517.67 481.48L517.96 482.74L518.06 484L517.96 485.26L517.67 486.52L517.19 487.78L516.52 489.02L515.66 490.25L514.61 491.46L513.38 492.65L511.97 493.82L510.39 494.96L508.63 496.08L506.71 497.15L504.62 498.2L502.38 499.2L499.99 500.16L497.45 501.08L494.78 501.95L491.98 502.77L489.06 503.54L486.02 504.25L482.88 504.91L479.64 505.52L476.32 506.06L472.92 506.55L469.44 506.97L465.91 507.33L462.33 507.62L458.71 507.85L455.06 508.02L451.39 508.12L447.71 508.15L447.71 528.45L452.45 528.39L457.18 528.21L461.89 527.9L466.55 527.48L471.17 526.94L475.72 526.27L480.19 525.5L484.58 524.61L488.86 523.61L493.03 522.49L497.08 521.28L500.99 519.96L504.75 518.54L508.36 517.03L511.8 515.43L515.07 513.74L518.15 511.97L521.04 510.13L523.73 508.21L526.21 506.23L528.47 504.18L530.52 502.08L532.33 499.93L533.92 497.74L535.27 495.5L536.37 493.24L537.24 490.95L537.86 488.65L538.23 486.33L538.36 484L538.23 481.67L537.86 479.35L537.24 477.05L536.37 474.76L535.27 472.5L533.92 470.26L532.33 468.07L530.52 465.92L528.47 463.82L526.21 461.78L523.73 459.79L521.04 457.87L518.15 456.03L515.07 454.26L511.8 452.57L508.36 450.97L504.75 449.46L500.99 448.04L497.08 446.72L493.03 445.51L488.86 444.39L484.58 443.39L480.19 442.5L475.72 441.73L471.17 441.06L466.55 440.52L461.89 440.1L457.18 439.79L452.45 439.61L447.71 439.55Z M440.97 525.89L521.47 597.29L534.94 582.11L454.44 510.71Z M586.66 589.7L586.66 449.7L566.36 449.7L566.36 589.7Z M566.36 470L653.16 470L653.16 449.7L566.36 449.7Z M566.36 589.7L653.16 589.7L653.16 569.4L566.36 569.4Z M566.36 529.85L637.53 529.85L637.53 509.55L566.36 509.55Z M701.46 589.7L701.46 449.7L681.16 449.7L681.16 589.7Z M691.31 470L735.76 470L735.76 449.7L691.31 449.7Z M691.31 589.7L735.76 589.7L735.76 569.4L691.31 569.4Z M735.76 470L737.55 470.07L739.34 470.27L741.12 470.61L742.89 471.09L744.63 471.69L746.35 472.43L748.05 473.3L749.71 474.3L751.33 475.42L752.91 476.66L754.44 478.02L755.92 479.49L757.34 481.08L758.71 482.77L760.01 484.56L761.24 486.44L762.41 488.42L763.5 490.49L764.52 492.63L765.46 494.85L766.32 497.14L767.09 499.49L767.78 501.89L768.38 504.34L768.89 506.84L769.31 509.37L769.63 511.93L769.87 514.5L770.01 517.1L770.06 519.7L770.01 522.3L769.87 524.9L769.63 527.47L769.31 530.03L768.89 532.56L768.38 535.06L767.78 537.51L767.09 539.91L766.32 542.26L765.46 544.55L764.52 546.77L763.5 548.91L762.41 550.98L761.24 552.96L760.01 554.84L758.71 556.63L757.34 558.32L755.92 559.91L754.44 561.38L752.91 562.74L751.33 563.98L749.71 565.1L748.05 566.1L746.35 566.97L744.63 567.71L742.89 568.31L741.12 568.79L739.34 569.13L737.55 569.33L735.76 569.4L735.76 589.7L738.61 589.6L741.46 589.32L744.3 588.84L747.11 588.17L749.89 587.31L752.63 586.27L755.32 585.05L757.96 583.65L760.54 582.07L763.06 580.32L765.49 578.41L767.85 576.33L770.12 574.1L772.29 571.72L774.36 569.2L776.33 566.54L778.19 563.75L779.93 560.84L781.55 557.82L783.04 554.7L784.4 551.48L785.63 548.17L786.73 544.79L787.68 541.33L788.49 537.82L789.16 534.25L789.68 530.65L790.06 527.02L790.28 523.36L790.36 519.7L790.28 516.04L790.06 512.38L789.68 508.75L789.16 505.15L788.49 501.58L787.68 498.07L786.73 494.61L785.63 491.23L784.4 487.92L783.04 484.7L781.55 481.58L779.93 478.56L778.19 475.65L776.33 472.86L774.36 470.2L772.29 467.68L770.12 465.3L767.85 463.07L765.49 460.99L763.06 459.08L760.54 457.33L757.96 455.75L755.32 454.35L752.63 453.13L749.89 452.09L747.11 451.23L744.3 450.56L741.46 450.08L738.61 449.8L735.76 449.7Z" fill="#ededed" fill-rule="nonzero"/>
  <circle cx="817.55" cy="576.51" r="13.2" fill="#e10600"/>
  <rect x="423.7" y="623.3" width="232.6" height="7" rx="3.5" fill="#e10600"/>
</svg>
