<svg xmlns="http://www.w3.org/2000/svg" width="1640" height="856" viewBox="0 0 1640 856">
  <rect width="1640" height="856" fill="#0a0a0a"/>
  <defs><filter id="glow" x="-200%" y="-200%" width="500%" height="500%"><feGaussianBlur stdDeviation="20.17"/></filter></defs>
    <g>
      <rect x="681.70" y="413.35" width="276.59" height="8.64" rx="4.32" fill="#ff2d2d" opacity="0.75" filter="url(#glow)"/>
      <rect x="681.70" y="413.35" width="276.59" height="8.64" rx="4.32" fill="#ff2d2d"/>
    </g>
  <g>
    <path d="M33.882 0L3.112 0L47.366-122.737L82.286-122.737L126.540 0L95.597 0L87.645-23.164L42.007-23.164L33.882 0M64.999-90.238L50.132-47.020L79.520-47.020" fill="#ededed" transform="translate(461.38 367.25)"/>
    <path d="M199.145 0L169.066 0L169.066-122.737L199.145-122.737" fill="#ededed" transform="translate(461.38 367.25)"/>
    <path d="M280.394 0L250.315 0L250.315-122.737L306.497-122.737Q320.154-122.737 330.267-118.242Q340.379-113.748 345.911-105.537Q351.443-97.325 351.443-86.262Q351.443-77.618 347.986-71.049Q344.528-64.480 338.391-60.245Q332.255-56.010 323.784-54.627L323.265-56.355Q335.885-56.355 342.367-50.996Q348.850-45.637 349.541-34.920L352.480 0L321.709 0L319.808-29.906Q319.289-36.821 315.745-40.106Q312.202-43.390 303.385-43.390L280.394-43.390L280.394 0M280.394-98.190L280.394-67.938L301.830-67.938Q310.992-67.938 315.832-71.914Q320.672-75.890 320.672-83.150Q320.672-90.583 315.745-94.387Q310.819-98.190 301.484-98.190" fill="#ededed" transform="translate(461.38 367.25)"/>
    <path d="M489.565 0L400.019 0L400.019-122.737L488.182-122.737L488.182-98.190L430.098-98.190L430.098-73.815L486.108-73.815L486.108-49.268L430.098-49.268L430.098-24.547L489.565-24.547" fill="#ededed" transform="translate(461.38 367.25)"/>
    <path d="M581.013 0L536.240 0L536.240-122.737L579.976-122.737Q610.401-122.737 626.737-106.747Q643.073-90.756 643.073-61.196Q643.073-31.808 626.996-15.904Q610.920 0 581.013 0M566.319-98.190L566.319-24.547L579.976-24.547Q596.571-24.547 604.351-33.537Q612.130-42.526 612.130-61.369Q612.130-80.211 604.351-89.200Q596.571-98.190 579.976-98.190" fill="#ededed" transform="translate(461.38 367.25)"/>
    <path d="M714.122 0L683.006 0L683.006-28.869L714.122-28.869" fill="#ff2d2d" transform="translate(461.38 367.25)"/>
  </g>
  <path d="M4.667 0L0.691 0L9.542-24.547L14.279-24.547L23.130 0L19.154 0L16.907-6.396L6.880-6.396L4.667 0M11.893-20.986L8.056-9.784L15.766-9.784" fill="#8a8a8a" transform="translate(464.927 536.089)"/>
    <path d="M6.707 0L2.973 0L2.973-24.547L6.707-24.547" fill="#8a8a8a" transform="translate(490.823 536.089)"/>
    <path d="M13.034-8.471L1.452-8.471L1.452-11.686L13.034-11.686" fill="#8a8a8a" transform="translate(502.578 536.089)"/>
    <path d="M10.165 0.415Q7.468 0.415 5.515-0.761Q3.561-1.936 2.507-4.114Q1.452-6.292 1.452-9.197Q1.452-12.101 2.507-14.262Q3.561-16.423 5.497-17.615Q7.433-18.808 10.061-18.808Q12.550-18.808 14.452-17.650Q16.353-16.492 17.408-14.314Q18.462-12.135 18.462-9.058L18.462-8.125L5.255-8.125Q5.394-5.428 6.690-4.080Q7.987-2.731 10.199-2.731Q11.824-2.731 12.896-3.492Q13.968-4.253 14.383-5.532L18.186-5.290Q17.460-2.731 15.333-1.158Q13.207 0.415 10.165 0.415M5.255-10.891L14.590-10.891Q14.417-13.345 13.190-14.521Q11.963-15.697 10.061-15.697Q8.090-15.697 6.828-14.469Q5.566-13.242 5.255-10.891" fill="#8a8a8a" transform="translate(519.104 536.089)"/>
    <path d="M9.127 0.415Q6.776 0.415 5.030-0.761Q3.285-1.936 2.368-4.097Q1.452-6.258 1.452-9.197Q1.452-12.135 2.386-14.296Q3.319-16.457 5.048-17.633Q6.776-18.808 9.127-18.808Q11.029-18.808 12.516-18.013Q14.002-17.218 14.763-15.800L14.763-24.547L18.428-24.547L18.428 0L15.005 0L14.901-2.766Q14.141-1.279 12.602-0.432Q11.064 0.415 9.127 0.415M10.096-2.766Q11.582-2.766 12.619-3.527Q13.657-4.287 14.210-5.739Q14.763-7.191 14.763-9.197Q14.763-11.271 14.210-12.706Q13.657-14.141 12.619-14.884Q11.582-15.627 10.096-15.627Q7.883-15.627 6.569-13.916Q5.255-12.205 5.255-9.197Q5.255-6.223 6.569-4.495Q7.883-2.766 10.096-2.766" fill="#8a8a8a" transform="translate(541.093 536.089)"/>
    <path d="M7.745 0.415Q4.875 0.415 3.164-0.899Q1.452-2.213 1.452-4.598Q1.452-6.984 2.887-8.315Q4.322-9.646 7.330-10.234L13.657-11.444Q13.657-13.588 12.654-14.642Q11.651-15.697 9.681-15.697Q7.917-15.697 6.915-14.919Q5.912-14.141 5.532-12.619L1.763-12.861Q2.282-15.627 4.339-17.218Q6.396-18.808 9.681-18.808Q13.415-18.808 15.368-16.820Q17.321-14.832 17.321-11.236L17.321-4.080Q17.321-3.423 17.546-3.164Q17.771-2.904 18.290-2.904L18.946-2.904L18.946 0Q18.774 0.035 18.393 0.069Q18.013 0.104 17.598 0.104Q16.423 0.104 15.576-0.277Q14.728-0.657 14.314-1.539Q13.899-2.420 13.899-3.907L14.279-3.734Q14.002-2.524 13.086-1.590Q12.170-0.657 10.770-0.121Q9.370 0.415 7.745 0.415M8.332-2.489Q9.992-2.489 11.167-3.129Q12.343-3.769 13-4.909Q13.657-6.050 13.657-7.503L13.657-8.678L8.263-7.641Q6.604-7.330 5.929-6.655Q5.255-5.981 5.255-4.944Q5.255-3.769 6.068-3.129Q6.880-2.489 8.332-2.489" fill="#8a8a8a" transform="translate(574.664 536.089)"/>
    <path d="M6.258 0L2.593 0L2.593-18.393L5.947-18.393L6.085-13.484L5.636-13.726Q5.947-15.524 6.811-16.630Q7.675-17.736 8.920-18.272Q10.165-18.808 11.617-18.808Q13.691-18.808 15.057-17.892Q16.423-16.976 17.131-15.403Q17.840-13.830 17.840-11.824L17.840 0L14.175 0L14.175-10.718Q14.175-12.343 13.830-13.449Q13.484-14.556 12.689-15.143Q11.893-15.731 10.614-15.731Q8.678-15.731 7.468-14.452Q6.258-13.173 6.258-10.718" fill="#8a8a8a" transform="translate(596.273 536.089)"/>
    <path d="M9.127 0.415Q6.776 0.415 5.030-0.761Q3.285-1.936 2.368-4.097Q1.452-6.258 1.452-9.197Q1.452-12.135 2.386-14.296Q3.319-16.457 5.048-17.633Q6.776-18.808 9.127-18.808Q11.029-18.808 12.516-18.013Q14.002-17.218 14.763-15.800L14.763-24.547L18.428-24.547L18.428 0L15.005 0L14.901-2.766Q14.141-1.279 12.602-0.432Q11.064 0.415 9.127 0.415M10.096-2.766Q11.582-2.766 12.619-3.527Q13.657-4.287 14.210-5.739Q14.763-7.191 14.763-9.197Q14.763-11.271 14.210-12.706Q13.657-14.141 12.619-14.884Q11.582-15.627 10.096-15.627Q7.883-15.627 6.569-13.916Q5.255-12.205 5.255-9.197Q5.255-6.223 6.569-4.495Q7.883-2.766 10.096-2.766" fill="#8a8a8a" transform="translate(618.780 536.089)"/>
    <path d="M6.258 5.186L2.593 5.186L2.593-18.393L6.050-18.393L6.154-14.452L5.739-14.659Q6.431-16.699 8.021-17.754Q9.612-18.808 11.686-18.808Q14.383-18.808 16.129-17.477Q17.875-16.146 18.722-13.968Q19.569-11.790 19.569-9.197Q19.569-6.604 18.722-4.425Q17.875-2.247 16.129-0.916Q14.383 0.415 11.686 0.415Q10.303 0.415 9.093-0.069Q7.883-0.553 7.036-1.435Q6.189-2.316 5.843-3.527L6.258-3.941L6.258 5.186M11.029-2.766Q13.242-2.766 14.504-4.460Q15.766-6.154 15.766-9.197Q15.766-12.239 14.504-13.933Q13.242-15.627 11.029-15.627Q9.577-15.627 8.505-14.919Q7.433-14.210 6.846-12.758Q6.258-11.306 6.258-9.197Q6.258-7.088 6.828-5.636Q7.399-4.183 8.488-3.475Q9.577-2.766 11.029-2.766" fill="#8a8a8a" transform="translate(652.352 536.089)"/>
    <path d="M6.258 0L2.593 0L2.593-18.393L5.947-18.393L6.085-13.518L5.774-13.622Q6.154-16.111 7.312-17.252Q8.471-18.393 10.441-18.393L12.205-18.393L12.205-15.109L10.441-15.109Q9.058-15.109 8.125-14.659Q7.191-14.210 6.725-13.276Q6.258-12.343 6.258-10.856" fill="#8a8a8a" transform="translate(675.447 536.089)"/>
    <path d="M10.165 0.415Q7.537 0.415 5.566-0.761Q3.596-1.936 2.524-4.114Q1.452-6.292 1.452-9.197Q1.452-12.135 2.524-14.279Q3.596-16.423 5.566-17.615Q7.537-18.808 10.165-18.808Q12.792-18.808 14.763-17.615Q16.734-16.423 17.806-14.279Q18.877-12.135 18.877-9.197Q18.877-6.292 17.806-4.114Q16.734-1.936 14.763-0.761Q12.792 0.415 10.165 0.415M10.165-2.766Q12.516-2.766 13.795-4.477Q15.074-6.189 15.074-9.197Q15.074-12.205 13.795-13.916Q12.516-15.627 10.165-15.627Q7.848-15.627 6.552-13.916Q5.255-12.205 5.255-9.197Q5.255-6.189 6.552-4.477Q7.848-2.766 10.165-2.766" fill="#8a8a8a" transform="translate(691.143 536.089)"/>
    <path d="M8.643 0.415Q5.878 0.415 4.235-1.435Q2.593-3.285 2.593-6.569L2.593-18.393L6.258-18.393L6.258-7.503Q6.258-5.013 7.122-3.838Q7.987-2.662 9.750-2.662Q11.755-2.662 12.879-3.959Q14.002-5.255 14.002-7.606L14.002-18.393L17.667-18.393L17.667 0L14.244 0L14.175-4.806L14.694-4.598Q14.210-2.178 12.654-0.882Q11.098 0.415 8.643 0.415" fill="#8a8a8a" transform="translate(713.547 536.089)"/>
    <path d="M9.127 0.415Q6.776 0.415 5.030-0.761Q3.285-1.936 2.368-4.097Q1.452-6.258 1.452-9.197Q1.452-12.135 2.386-14.296Q3.319-16.457 5.048-17.633Q6.776-18.808 9.127-18.808Q11.029-18.808 12.516-18.013Q14.002-17.218 14.763-15.800L14.763-24.547L18.428-24.547L18.428 0L15.005 0L14.901-2.766Q14.141-1.279 12.602-0.432Q11.064 0.415 9.127 0.415M10.096-2.766Q11.582-2.766 12.619-3.527Q13.657-4.287 14.210-5.739Q14.763-7.191 14.763-9.197Q14.763-11.271 14.210-12.706Q13.657-14.141 12.619-14.884Q11.582-15.627 10.096-15.627Q7.883-15.627 6.569-13.916Q5.255-12.205 5.255-9.197Q5.255-6.223 6.569-4.495Q7.883-2.766 10.096-2.766" fill="#8a8a8a" transform="translate(735.882 536.089)"/>
    <path d="M5.912-8.298L1.452-8.298L1.452-12.654L5.912-12.654" fill="#8a8a8a" transform="translate(769.453 536.089)"/>
    <path d="M10.165 0.415Q7.537 0.415 5.566-0.761Q3.596-1.936 2.524-4.114Q1.452-6.292 1.452-9.197Q1.452-12.101 2.524-14.262Q3.596-16.423 5.566-17.615Q7.537-18.808 10.165-18.808Q12.412-18.808 14.158-18.030Q15.904-17.252 16.993-15.766Q18.082-14.279 18.393-12.135L14.556-11.928Q14.279-13.726 13.103-14.677Q11.928-15.627 10.165-15.627Q7.848-15.627 6.552-13.916Q5.255-12.205 5.255-9.197Q5.255-6.189 6.552-4.477Q7.848-2.766 10.165-2.766Q11.928-2.766 13.103-3.751Q14.279-4.737 14.556-6.742L18.393-6.534Q18.082-4.425 16.993-2.870Q15.904-1.314 14.158-0.449Q12.412 0.415 10.165 0.415" fill="#8a8a8a" transform="translate(789.368 536.089)"/>
    <path d="M6.258 0L2.593 0L2.593-18.393L5.947-18.393L6.085-13.518L5.774-13.622Q6.154-16.111 7.312-17.252Q8.471-18.393 10.441-18.393L12.205-18.393L12.205-15.109L10.441-15.109Q9.058-15.109 8.125-14.659Q7.191-14.210 6.725-13.276Q6.258-12.343 6.258-10.856" fill="#8a8a8a" transform="translate(810.907 536.089)"/>
    <path d="M10.165 0.415Q7.468 0.415 5.515-0.761Q3.561-1.936 2.507-4.114Q1.452-6.292 1.452-9.197Q1.452-12.101 2.507-14.262Q3.561-16.423 5.497-17.615Q7.433-18.808 10.061-18.808Q12.550-18.808 14.452-17.650Q16.353-16.492 17.408-14.314Q18.462-12.135 18.462-9.058L18.462-8.125L5.255-8.125Q5.394-5.428 6.690-4.080Q7.987-2.731 10.199-2.731Q11.824-2.731 12.896-3.492Q13.968-4.253 14.383-5.532L18.186-5.290Q17.460-2.731 15.333-1.158Q13.207 0.415 10.165 0.415M5.255-10.891L14.590-10.891Q14.417-13.345 13.190-14.521Q11.963-15.697 10.061-15.697Q8.090-15.697 6.828-14.469Q5.566-13.242 5.255-10.891" fill="#8a8a8a" transform="translate(826.604 536.089)"/>
    <path d="M9.127 0.415Q6.776 0.415 5.030-0.761Q3.285-1.936 2.368-4.097Q1.452-6.258 1.452-9.197Q1.452-12.135 2.386-14.296Q3.319-16.457 5.048-17.633Q6.776-18.808 9.127-18.808Q11.029-18.808 12.516-18.013Q14.002-17.218 14.763-15.800L14.763-24.547L18.428-24.547L18.428 0L15.005 0L14.901-2.766Q14.141-1.279 12.602-0.432Q11.064 0.415 9.127 0.415M10.096-2.766Q11.582-2.766 12.619-3.527Q13.657-4.287 14.210-5.739Q14.763-7.191 14.763-9.197Q14.763-11.271 14.210-12.706Q13.657-14.141 12.619-14.884Q11.582-15.627 10.096-15.627Q7.883-15.627 6.569-13.916Q5.255-12.205 5.255-9.197Q5.255-6.223 6.569-4.495Q7.883-2.766 10.096-2.766" fill="#8a8a8a" transform="translate(848.593 536.089)"/>
    <path d="M6.258 0L2.593 0L2.593-18.393L6.258-18.393L6.258 0M6.327-21.055L2.524-21.055L2.524-24.720L6.327-24.720" fill="#8a8a8a" transform="translate(871.688 536.089)"/>
    <path d="M13.069 0L9.646 0Q7.018 0 5.774-1.210Q4.529-2.420 4.529-4.979L4.529-22.715L8.194-22.715L8.194-5.255Q8.194-3.976 8.747-3.492Q9.300-3.008 10.441-3.008L13.069-3.008L13.069 0M13.069-15.385L1.729-15.385L1.729-18.393L13.069-18.393" fill="#8a8a8a" transform="translate(882.613 536.089)"/>
    <path d="M10.165 0.415Q7.468 0.415 5.515-0.761Q3.561-1.936 2.507-4.114Q1.452-6.292 1.452-9.197Q1.452-12.101 2.507-14.262Q3.561-16.423 5.497-17.615Q7.433-18.808 10.061-18.808Q12.550-18.808 14.452-17.650Q16.353-16.492 17.408-14.314Q18.462-12.135 18.462-9.058L18.462-8.125L5.255-8.125Q5.394-5.428 6.690-4.080Q7.987-2.731 10.199-2.731Q11.824-2.731 12.896-3.492Q13.968-4.253 14.383-5.532L18.186-5.290Q17.460-2.731 15.333-1.158Q13.207 0.415 10.165 0.415M5.255-10.891L14.590-10.891Q14.417-13.345 13.190-14.521Q11.963-15.697 10.061-15.697Q8.090-15.697 6.828-14.469Q5.566-13.242 5.255-10.891" fill="#8a8a8a" transform="translate(898.863 536.089)"/>
    <path d="M9.127 0.415Q6.776 0.415 5.030-0.761Q3.285-1.936 2.368-4.097Q1.452-6.258 1.452-9.197Q1.452-12.135 2.386-14.296Q3.319-16.457 5.048-17.633Q6.776-18.808 9.127-18.808Q11.029-18.808 12.516-18.013Q14.002-17.218 14.763-15.800L14.763-24.547L18.428-24.547L18.428 0L15.005 0L14.901-2.766Q14.141-1.279 12.602-0.432Q11.064 0.415 9.127 0.415M10.096-2.766Q11.582-2.766 12.619-3.527Q13.657-4.287 14.210-5.739Q14.763-7.191 14.763-9.197Q14.763-11.271 14.210-12.706Q13.657-14.141 12.619-14.884Q11.582-15.627 10.096-15.627Q7.883-15.627 6.569-13.916Q5.255-12.205 5.255-9.197Q5.255-6.223 6.569-4.495Q7.883-2.766 10.096-2.766" fill="#8a8a8a" transform="translate(920.852 536.089)"/>
    <path d="M6.258 0L2.593 0L2.593-18.393L5.947-18.393L6.085-13.484L5.636-13.726Q5.947-15.524 6.811-16.630Q7.675-17.736 8.920-18.272Q10.165-18.808 11.617-18.808Q13.691-18.808 15.057-17.892Q16.423-16.976 17.131-15.403Q17.840-13.830 17.840-11.824L17.840 0L14.175 0L14.175-10.718Q14.175-12.343 13.830-13.449Q13.484-14.556 12.689-15.143Q11.893-15.731 10.614-15.731Q8.678-15.731 7.468-14.452Q6.258-13.173 6.258-10.718" fill="#8a8a8a" transform="translate(954.423 536.089)"/>
    <path d="M10.165 0.415Q7.537 0.415 5.566-0.761Q3.596-1.936 2.524-4.114Q1.452-6.292 1.452-9.197Q1.452-12.135 2.524-14.279Q3.596-16.423 5.566-17.615Q7.537-18.808 10.165-18.808Q12.792-18.808 14.763-17.615Q16.734-16.423 17.806-14.279Q18.877-12.135 18.877-9.197Q18.877-6.292 17.806-4.114Q16.734-1.936 14.763-0.761Q12.792 0.415 10.165 0.415M10.165-2.766Q12.516-2.766 13.795-4.477Q15.074-6.189 15.074-9.197Q15.074-12.205 13.795-13.916Q12.516-15.627 10.165-15.627Q7.848-15.627 6.552-13.916Q5.255-12.205 5.255-9.197Q5.255-6.189 6.552-4.477Q7.848-2.766 10.165-2.766" fill="#8a8a8a" transform="translate(976.931 536.089)"/>
    <path d="M13.069 0L9.646 0Q7.018 0 5.774-1.210Q4.529-2.420 4.529-4.979L4.529-22.715L8.194-22.715L8.194-5.255Q8.194-3.976 8.747-3.492Q9.300-3.008 10.441-3.008L13.069-3.008L13.069 0M13.069-15.385L1.729-15.385L1.729-18.393L13.069-18.393" fill="#8a8a8a" transform="translate(999.334 536.089)"/>
    <path d="M13.069 0L9.646 0Q7.018 0 5.774-1.210Q4.529-2.420 4.529-4.979L4.529-22.715L8.194-22.715L8.194-5.255Q8.194-3.976 8.747-3.492Q9.300-3.008 10.441-3.008L13.069-3.008L13.069 0M13.069-15.385L1.729-15.385L1.729-18.393L13.069-18.393" fill="#8a8a8a" transform="translate(1026.060 536.089)"/>
    <path d="M6.258 0L2.593 0L2.593-24.547L6.258-24.547L6.258-14.244L5.808-14.314Q6.120-15.869 6.949-16.855Q7.779-17.840 8.989-18.324Q10.199-18.808 11.651-18.808Q13.657-18.808 15.040-17.927Q16.423-17.045 17.131-15.455Q17.840-13.864 17.840-11.824L17.840 0L14.175 0L14.175-10.856Q14.175-13.345 13.328-14.538Q12.481-15.731 10.683-15.731Q8.678-15.731 7.468-14.469Q6.258-13.207 6.258-10.787" fill="#8a8a8a" transform="translate(1042.310 536.089)"/>
    <path d="M7.745 0.415Q4.875 0.415 3.164-0.899Q1.452-2.213 1.452-4.598Q1.452-6.984 2.887-8.315Q4.322-9.646 7.330-10.234L13.657-11.444Q13.657-13.588 12.654-14.642Q11.651-15.697 9.681-15.697Q7.917-15.697 6.915-14.919Q5.912-14.141 5.532-12.619L1.763-12.861Q2.282-15.627 4.339-17.218Q6.396-18.808 9.681-18.808Q13.415-18.808 15.368-16.820Q17.321-14.832 17.321-11.236L17.321-4.080Q17.321-3.423 17.546-3.164Q17.771-2.904 18.290-2.904L18.946-2.904L18.946 0Q18.774 0.035 18.393 0.069Q18.013 0.104 17.598 0.104Q16.423 0.104 15.576-0.277Q14.728-0.657 14.314-1.539Q13.899-2.420 13.899-3.907L14.279-3.734Q14.002-2.524 13.086-1.590Q12.170-0.657 10.770-0.121Q9.370 0.415 7.745 0.415M8.332-2.489Q9.992-2.489 11.167-3.129Q12.343-3.769 13-4.909Q13.657-6.050 13.657-7.503L13.657-8.678L8.263-7.641Q6.604-7.330 5.929-6.655Q5.255-5.981 5.255-4.944Q5.255-3.769 6.068-3.129Q6.880-2.489 8.332-2.489" fill="#8a8a8a" transform="translate(1064.817 536.089)"/>
    <path d="M6.258 0L2.593 0L2.593-18.393L5.947-18.393L6.085-13.484L5.636-13.726Q5.947-15.524 6.811-16.630Q7.675-17.736 8.920-18.272Q10.165-18.808 11.617-18.808Q13.691-18.808 15.057-17.892Q16.423-16.976 17.131-15.403Q17.840-13.830 17.840-11.824L17.840 0L14.175 0L14.175-10.718Q14.175-12.343 13.830-13.449Q13.484-14.556 12.689-15.143Q11.893-15.731 10.614-15.731Q8.678-15.731 7.468-14.452Q6.258-13.173 6.258-10.718" fill="#8a8a8a" transform="translate(1086.426 536.089)"/>
    <path d="M6.258 0L2.593 0L2.593-24.547L6.258-24.547L6.258-9.300L14.521-18.393L19.154-18.393L11.963-10.649L19.430 0L15.212 0L9.508-8.367L6.258-4.909" fill="#8a8a8a" transform="translate(1108.933 536.089)"/>
    <path d="M10.165 0.415Q7.468 0.415 5.515-0.761Q3.561-1.936 2.507-4.114Q1.452-6.292 1.452-9.197Q1.452-12.101 2.507-14.262Q3.561-16.423 5.497-17.615Q7.433-18.808 10.061-18.808Q12.550-18.808 14.452-17.650Q16.353-16.492 17.408-14.314Q18.462-12.135 18.462-9.058L18.462-8.125L5.255-8.125Q5.394-5.428 6.690-4.080Q7.987-2.731 10.199-2.731Q11.824-2.731 12.896-3.492Q13.968-4.253 14.383-5.532L18.186-5.290Q17.460-2.731 15.333-1.158Q13.207 0.415 10.165 0.415M5.255-10.891L14.590-10.891Q14.417-13.345 13.190-14.521Q11.963-15.697 10.061-15.697Q8.090-15.697 6.828-14.469Q5.566-13.242 5.255-10.891" fill="#8a8a8a" transform="translate(1132.063 536.089)"/>
    <path d="M9.127 0.415Q6.776 0.415 5.030-0.761Q3.285-1.936 2.368-4.097Q1.452-6.258 1.452-9.197Q1.452-12.135 2.386-14.296Q3.319-16.457 5.048-17.633Q6.776-18.808 9.127-18.808Q11.029-18.808 12.516-18.013Q14.002-17.218 14.763-15.800L14.763-24.547L18.428-24.547L18.428 0L15.005 0L14.901-2.766Q14.141-1.279 12.602-0.432Q11.064 0.415 9.127 0.415M10.096-2.766Q11.582-2.766 12.619-3.527Q13.657-4.287 14.210-5.739Q14.763-7.191 14.763-9.197Q14.763-11.271 14.210-12.706Q13.657-14.141 12.619-14.884Q11.582-15.627 10.096-15.627Q7.883-15.627 6.569-13.916Q5.255-12.205 5.255-9.197Q5.255-6.223 6.569-4.495Q7.883-2.766 10.096-2.766" fill="#8a8a8a" transform="translate(1154.052 536.089)"/>
</svg>