<svg xmlns="http://www.w3.org/2000/svg" width="512" height="512" viewBox="0 0 512 512">
  <rect width="512" height="512" fill="#0a0a0a"/>
  <defs><filter id="glow" x="-60%" y="-60%" width="220%" height="220%"><feGaussianBlur stdDeviation="8.09"/></filter></defs>
  <rect x="163.98" y="317.32" width="184.04" height="9.52" rx="4.76" fill="#e10600" filter="url(#glow)" opacity="0.75"/>
  <path d="M45.28 299.77L79.32 187.77L62.18 182.55L28.13 294.55Z M113.37 294.55L79.32 182.55L62.18 187.77L96.23 299.77Z M47.6 269.56L93.9 269.56L93.9 253.08L47.6 253.08Z M79.71 188.39L79.7 187.92L79.66 187.45L79.6 186.98L79.52 186.52L79.41 186.07L79.27 185.62L79.12 185.17L78.94 184.74L78.74 184.32L78.51 183.91L78.27 183.51L78 183.12L77.72 182.75L77.41 182.39L77.09 182.05L76.75 181.73L76.39 181.42L76.02 181.14L75.63 180.87L75.23 180.63L74.82 180.4L74.4 180.2L73.96 180.02L73.52 179.86L73.07 179.73L72.61 179.62L72.15 179.54L71.69 179.47L71.22 179.44L70.75 179.43L70.28 179.44L69.82 179.47L69.35 179.54L68.89 179.62L68.43 179.73L67.98 179.86L67.54 180.02L67.11 180.2L66.68 180.4L66.27 180.63L65.87 180.87L65.49 181.14L65.11 181.42L64.76 181.73L64.42 182.05L64.09 182.39L63.79 182.75L63.5 183.12L63.24 183.51L62.99 183.91L62.77 184.32L62.57 184.74L62.39 185.17L62.23 185.62L62.1 186.07L61.99 186.52L61.9 186.98L61.84 187.45L61.8 187.92L61.79 188.39L61.8 188.85L61.84 189.32L61.9 189.79L61.99 190.25L62.1 190.7L62.23 191.15L62.39 191.6L62.57 192.03L62.77 192.45L62.99 192.87L63.24 193.27L63.5 193.65L63.79 194.02L64.09 194.38L64.42 194.72L64.76 195.04L65.11 195.35L65.49 195.63L65.87 195.9L66.27 196.15L66.68 196.37L67.11 196.57L67.54 196.75L67.98 196.91L68.43 197.04L68.89 197.15L69.35 197.24L69.82 197.3L70.28 197.33L70.75 197.35L71.22 197.33L71.69 197.3L72.15 197.24L72.61 197.15L73.07 197.04L73.52 196.91L73.96 196.75L74.4 196.57L74.82 196.37L75.23 196.15L75.63 195.9L76.02 195.63L76.39 195.35L76.75 195.04L77.09 194.72L77.41 194.38L77.72 194.02L78 193.65L78.27 193.27L78.51 192.87L78.74 192.45L78.94 192.03L79.12 191.6L79.27 191.15L79.41 190.7L79.52 190.25L79.6 189.79L79.66 189.32L79.7 188.85L79.71 188.39Z M153.63 297.16L153.63 185.16L135.71 185.16L135.71 297.16Z M191.71 297.16L191.71 185.16L173.79 185.16L173.79 297.16Z M182.75 194.12L185.57 194.15L188.37 194.22L191.16 194.35L193.93 194.52L196.67 194.75L199.36 195.02L202.02 195.35L204.62 195.72L207.16 196.13L209.63 196.6L212.03 197.1L214.35 197.65L216.58 198.24L218.72 198.87L220.77 199.53L222.7 200.23L224.53 200.97L226.24 201.74L227.84 202.54L229.31 203.36L230.65 204.21L231.86 205.08L232.94 205.98L233.88 206.89L234.68 207.82L235.34 208.76L235.85 209.71L236.22 210.67L236.44 211.63L236.51 212.6L236.44 213.57L236.22 214.53L235.85 215.49L235.34 216.44L234.68 217.38L233.88 218.31L232.94 219.22L231.86 220.12L230.65 220.99L229.31 221.84L227.84 222.66L226.24 223.46L224.53 224.23L222.7 224.97L220.77 225.67L218.72 226.33L216.58 226.96L214.35 227.55L212.03 228.1L209.63 228.6L207.16 229.07L204.62 229.48L202.02 229.85L199.36 230.18L196.67 230.45L193.93 230.68L191.16 230.85L188.37 230.98L185.57 231.05L182.75 231.08L182.75 249L186.5 248.95L190.24 248.8L193.97 248.55L197.66 248.2L201.3 247.76L204.9 247.22L208.44 246.58L211.91 245.85L215.29 245.03L218.59 244.12L221.79 243.13L224.88 242.05L227.86 240.89L230.72 239.65L233.44 238.34L236.02 236.96L238.46 235.51L240.74 234L242.87 232.42L244.83 230.8L246.62 229.13L248.23 227.41L249.67 225.64L250.92 223.85L251.99 222.02L252.87 220.17L253.55 218.29L254.04 216.4L254.33 214.51L254.43 212.6L254.33 210.69L254.04 208.8L253.55 206.91L252.87 205.03L251.99 203.18L250.92 201.35L249.67 199.56L248.23 197.79L246.62 196.07L244.83 194.4L242.87 192.78L240.74 191.2L238.46 189.69L236.02 188.24L233.44 186.86L230.72 185.55L227.86 184.31L224.88 183.15L221.79 182.07L218.59 181.08L215.29 180.17L211.91 179.35L208.44 178.62L204.9 177.98L201.3 177.44L197.66 177L193.97 176.65L190.24 176.4L186.5 176.25L182.75 176.2Z M176.72 246.66L239.44 303.78L251.51 290.54L188.79 233.42Z M292.51 297.16L292.51 185.16L274.59 185.16L274.59 297.16Z M274.59 203.08L344.03 203.08L344.03 185.16L274.59 185.16Z M274.59 297.16L344.03 297.16L344.03 279.24L274.59 279.24Z M274.59 250.12L331.53 250.12L331.53 232.2L274.59 232.2Z M382.11 297.16L382.11 185.16L364.19 185.16L364.19 297.16Z M373.15 203.08L407.87 203.08L407.87 185.16L373.15 185.16Z M373.15 297.16L407.87 297.16L407.87 279.24L373.15 279.24Z M407.87 203.08L409.22 203.13L410.56 203.29L411.9 203.55L413.23 203.91L414.54 204.38L415.83 204.94L417.1 205.61L418.35 206.37L419.57 207.23L420.75 208.18L421.9 209.22L423.01 210.35L424.08 211.57L425.11 212.86L426.09 214.23L427.02 215.68L427.89 217.2L428.71 218.78L429.48 220.42L430.18 222.12L430.82 223.87L431.4 225.67L431.92 227.51L432.37 229.39L432.75 231.3L433.07 233.24L433.31 235.2L433.49 237.18L433.6 239.17L433.63 241.16L433.6 243.15L433.49 245.14L433.31 247.12L433.07 249.08L432.75 251.02L432.37 252.93L431.92 254.81L431.4 256.65L430.82 258.45L430.18 260.2L429.48 261.9L428.71 263.54L427.89 265.12L427.02 266.64L426.09 268.09L425.11 269.46L424.08 270.75L423.01 271.97L421.9 273.1L420.75 274.14L419.57 275.09L418.35 275.95L417.1 276.71L415.83 277.38L414.54 277.94L413.23 278.41L411.9 278.77L410.56 279.03L409.22 279.19L407.87 279.24L407.87 297.16L410.16 297.08L412.44 296.85L414.71 296.47L416.95 295.94L419.18 295.25L421.37 294.42L423.53 293.44L425.64 292.32L427.7 291.06L429.71 289.66L431.66 288.13L433.55 286.46L435.36 284.68L437.1 282.78L438.76 280.76L440.33 278.63L441.82 276.4L443.21 274.08L444.51 271.66L445.7 269.16L446.79 266.58L447.78 263.94L448.65 261.23L449.41 258.46L450.06 255.65L450.6 252.8L451.01 249.92L451.31 247.01L451.49 244.09L451.55 241.16L451.49 238.23L451.31 235.31L451.01 232.4L450.6 229.52L450.06 226.67L449.41 223.86L448.65 221.09L447.78 218.38L446.79 215.74L445.7 213.16L444.51 210.66L443.21 208.24L441.82 205.92L440.33 203.69L438.76 201.56L437.1 199.54L435.36 197.64L433.55 195.86L431.66 194.19L429.71 192.66L427.7 191.26L425.64 190L423.53 188.88L421.37 187.9L419.18 187.07L416.95 186.38L414.71 185.85L412.44 185.47L410.16 185.24L407.87 185.16Z" fill="#ededed" fill-rule="nonzero"/>
  <circle cx="474.4" cy="285.51" r="11.65" fill="#e10600"/>
  <rect x="163.98" y="317.32" width="184.04" height="9.52" rx="4.76" fill="#e10600"/>
</svg>
