<svg xmlns="http://www.w3.org/2000/svg" width="512" height="512" viewBox="0 0 512 512">
  <rect width="512" height="512" fill="#0a0a0a"/>
  
  <g>
    <path d="M21.741 0L1.997 0L30.393-78.756L52.800-78.756L81.197 0L61.341 0L56.239-14.864L26.955-14.864L21.741 0M41.708-57.903L32.168-30.171L51.025-30.171" fill="#ededed" transform="translate(25.89 295.38)"/>
    <path d="M127.785 0L108.484 0L108.484-78.756L127.785-78.756" fill="#ededed" transform="translate(25.89 295.38)"/>
    <path d="M179.919 0L160.618 0L160.618-78.756L196.669-78.756Q205.432-78.756 211.921-75.872Q218.410-72.988 221.960-67.719Q225.509-62.450 225.509-55.351Q225.509-49.805 223.291-45.590Q221.072-41.375 217.134-38.657Q213.197-35.939 207.761-35.052L207.429-36.161Q215.526-36.161 219.686-32.723Q223.845-29.284 224.289-22.407L226.175 0L206.430 0L205.210-19.190Q204.877-23.627 202.603-25.734Q200.329-27.842 194.672-27.842L179.919-27.842L179.919 0M179.919-63.005L179.919-43.593L193.674-43.593Q199.553-43.593 202.659-46.145Q205.765-48.696 205.765-53.355Q205.765-58.124 202.603-60.565Q199.442-63.005 193.452-63.005" fill="#ededed" transform="translate(25.89 295.38)"/>
    <path d="M314.138 0L256.679 0L256.679-78.756L313.250-78.756L313.250-63.005L275.980-63.005L275.980-47.365L311.919-47.365L311.919-31.613L275.980-31.613L275.980-15.751L314.138-15.751" fill="#ededed" transform="translate(25.89 295.38)"/>
    <path d="M372.817 0L344.087 0L344.087-78.756L372.151-78.756Q391.674-78.756 402.156-68.496Q412.639-58.235 412.639-39.267Q412.639-20.410 402.323-10.205Q392.007 0 372.817 0M363.388-63.005L363.388-15.751L372.151-15.751Q382.800-15.751 387.792-21.519Q392.783-27.287 392.783-39.378Q392.783-51.469 387.792-57.237Q382.800-63.005 372.151-63.005" fill="#ededed" transform="translate(25.89 295.38)"/>
    <path d="M458.229 0L438.262 0L438.262-18.524L458.229-18.524" fill="#ff2d2d" transform="translate(25.89 295.38)"/>
  </g>
  
</svg>