<svg xmlns="http://www.w3.org/2000/svg" width="1640" height="856" viewBox="0 0 1640 856">
  <rect width="1640" height="856" fill="#0a0a0a"/>
  <defs><filter id="glow" x="-60%" y="-60%" width="220%" height="220%"><feGaussianBlur stdDeviation="6.38"/></filter></defs>
  <rect x="695.4" y="419.25" width="249.21" height="7.5" rx="3.75" fill="#e10600" filter="url(#glow)" opacity="0.75"/>
  <path d="M531.92 386.5L578.87 236.5L558.11 230L511.16 380Z M625.82 380L578.87 230L558.11 236.5L605.06 386.5Z M536.56 345.26L600.41 345.26L600.41 325.25L536.56 325.25Z M579.36 237.17L579.35 236.6L579.3 236.03L579.23 235.46L579.12 234.9L578.99 234.35L578.83 233.8L578.64 233.27L578.42 232.74L578.18 232.23L577.91 231.73L577.61 231.24L577.29 230.77L576.94 230.32L576.57 229.89L576.18 229.48L575.76 229.08L575.33 228.71L574.88 228.37L574.41 228.04L573.93 227.75L573.42 227.48L572.91 227.23L572.38 227.01L571.85 226.82L571.3 226.66L570.75 226.53L570.19 226.42L569.62 226.35L569.06 226.3L568.49 226.29L567.92 226.3L567.35 226.35L566.79 226.42L566.23 226.53L565.67 226.66L565.13 226.82L564.59 227.01L564.06 227.23L563.55 227.48L563.05 227.75L562.56 228.04L562.1 228.37L561.64 228.71L561.21 229.08L560.8 229.48L560.41 229.89L560.04 230.32L559.69 230.77L559.37 231.24L559.07 231.73L558.8 232.23L558.55 232.74L558.33 233.27L558.14 233.8L557.98 234.35L557.85 234.9L557.75 235.46L557.67 236.03L557.63 236.6L557.61 237.17L557.63 237.73L557.67 238.3L557.75 238.87L557.85 239.43L557.98 239.98L558.14 240.53L558.33 241.06L558.55 241.59L558.8 242.1L559.07 242.6L559.37 243.09L559.69 243.56L560.04 244.01L560.41 244.44L560.8 244.85L561.21 245.25L561.64 245.62L562.1 245.96L562.56 246.29L563.05 246.58L563.55 246.85L564.06 247.1L564.59 247.32L565.13 247.51L565.67 247.67L566.23 247.8L566.79 247.91L567.35 247.98L567.92 248.03L568.49 248.04L569.06 248.03L569.62 247.98L570.19 247.91L570.75 247.8L571.3 247.67L571.85 247.51L572.38 247.32L572.91 247.1L573.42 246.85L573.93 246.58L574.41 246.29L574.88 245.96L575.33 245.62L575.76 245.25L576.18 244.85L576.57 244.44L576.94 244.01L577.29 243.56L577.61 243.09L577.91 242.6L578.18 242.1L578.42 241.59L578.64 241.06L578.83 240.53L578.99 239.98L579.12 239.43L579.23 238.87L579.3 238.3L579.35 237.73L579.36 237.17Z M680.24 383.25L680.24 233.25L658.49 233.25L658.49 383.25Z M731.99 383.25L731.99 233.25L710.24 233.25L710.24 383.25Z M721.11 244.13L725.06 244.16L728.99 244.27L732.9 244.44L736.78 244.69L740.62 245.01L744.4 245.39L748.12 245.84L751.77 246.36L755.33 246.95L758.8 247.59L762.16 248.3L765.42 249.07L768.55 249.89L771.55 250.77L774.41 251.7L777.13 252.69L779.69 253.72L782.09 254.79L784.33 255.91L786.39 257.06L788.27 258.25L789.97 259.48L791.48 260.73L792.8 262L793.92 263.3L794.84 264.62L795.56 265.95L796.07 267.3L796.38 268.65L796.49 270L796.38 271.35L796.07 272.7L795.56 274.05L794.84 275.38L793.92 276.7L792.8 278L791.48 279.27L789.97 280.52L788.27 281.75L786.39 282.94L784.33 284.09L782.09 285.21L779.69 286.28L777.13 287.31L774.41 288.3L771.55 289.23L768.55 290.11L765.42 290.93L762.16 291.7L758.8 292.41L755.33 293.05L751.77 293.64L748.12 294.16L744.4 294.61L740.62 294.99L736.78 295.31L732.9 295.56L728.99 295.73L725.06 295.84L721.11 295.88L721.11 317.63L726.2 317.56L731.26 317.36L736.31 317.04L741.31 316.58L746.25 316L751.13 315.29L755.92 314.46L760.62 313.51L765.21 312.43L769.68 311.24L774.01 309.94L778.2 308.53L782.24 307.01L786.1 305.39L789.79 303.68L793.29 301.87L796.59 299.97L799.69 297.99L802.57 295.94L805.23 293.81L807.65 291.62L809.84 289.37L811.79 287.07L813.48 284.72L814.93 282.33L816.12 279.9L817.04 277.45L817.71 274.98L818.1 272.49L818.24 270L818.1 267.51L817.71 265.02L817.04 262.55L816.12 260.1L814.93 257.67L813.48 255.28L811.79 252.93L809.84 250.63L807.65 248.38L805.23 246.19L802.57 244.06L799.69 242.01L796.59 240.03L793.29 238.13L789.79 236.32L786.1 234.61L782.24 232.99L778.2 231.47L774.01 230.06L769.68 228.76L765.21 227.57L760.62 226.49L755.92 225.54L751.13 224.71L746.25 224L741.31 223.42L736.31 222.96L731.26 222.64L726.2 222.44L721.11 222.38Z M713.9 314.89L800.15 391.39L814.58 375.11L728.33 298.61Z M869.99 383.25L869.99 233.25L848.24 233.25L848.24 383.25Z M848.24 255L941.24 255L941.24 233.25L848.24 233.25Z M848.24 383.25L941.24 383.25L941.24 361.5L848.24 361.5Z M848.24 319.13L924.5 319.13L924.5 297.38L848.24 297.38Z M992.99 383.25L992.99 233.25L971.24 233.25L971.24 383.25Z M982.11 255L1029.74 255L1029.74 233.25L982.11 233.25Z M982.11 383.25L1029.74 383.25L1029.74 361.5L982.11 361.5Z M1029.74 255L1031.66 255.07L1033.58 255.29L1035.49 255.66L1037.38 256.16L1039.25 256.81L1041.09 257.61L1042.91 258.54L1044.69 259.6L1046.42 260.8L1048.11 262.13L1049.75 263.59L1051.34 265.17L1052.87 266.87L1054.33 268.68L1055.72 270.6L1057.05 272.62L1058.3 274.74L1059.47 276.95L1060.56 279.25L1061.56 281.63L1062.48 284.08L1063.31 286.59L1064.05 289.17L1064.69 291.79L1065.24 294.47L1065.68 297.18L1066.04 299.92L1066.29 302.68L1066.44 305.46L1066.49 308.25L1066.44 311.04L1066.29 313.82L1066.04 316.58L1065.68 319.32L1065.24 322.03L1064.69 324.71L1064.05 327.33L1063.31 329.91L1062.48 332.42L1061.56 334.88L1060.56 337.25L1059.47 339.55L1058.3 341.76L1057.05 343.88L1055.72 345.9L1054.33 347.82L1052.87 349.63L1051.34 351.33L1049.75 352.91L1048.11 354.37L1046.42 355.7L1044.69 356.9L1042.91 357.96L1041.09 358.89L1039.25 359.69L1037.38 360.34L1035.49 360.84L1033.58 361.21L1031.66 361.43L1029.74 361.5L1029.74 383.25L1032.8 383.15L1035.85 382.84L1038.89 382.33L1041.9 381.61L1044.88 380.69L1047.81 379.58L1050.7 378.27L1053.53 376.77L1056.3 375.08L1058.99 373.2L1061.6 371.15L1064.12 368.93L1066.55 366.54L1068.88 363.99L1071.1 361.28L1073.21 358.43L1075.2 355.45L1077.06 352.33L1078.8 349.1L1080.4 345.75L1081.86 342.3L1083.18 338.76L1084.35 335.13L1085.37 331.43L1086.24 327.66L1086.96 323.84L1087.52 319.98L1087.92 316.09L1088.16 312.18L1088.24 308.25L1088.16 304.32L1087.92 300.41L1087.52 296.52L1086.96 292.66L1086.24 288.84L1085.37 285.07L1084.35 281.37L1083.18 277.74L1081.86 274.2L1080.4 270.75L1078.8 267.4L1077.06 264.17L1075.2 261.05L1073.21 258.07L1071.1 255.22L1068.88 252.51L1066.55 249.96L1064.12 247.57L1061.6 245.35L1058.99 243.3L1056.3 241.42L1053.53 239.73L1050.7 238.23L1047.81 236.92L1044.88 235.81L1041.9 234.89L1038.89 234.17L1035.85 233.66L1032.8 233.35L1029.74 233.25Z" fill="#ededed" fill-rule="nonzero"/>
  <circle cx="1117.38" cy="369.11" r="14.14" fill="#e10600"/>
  <rect x="695.4" y="419.25" width="249.21" height="7.5" rx="3.75" fill="#e10600"/>
  <path d="M393.06 560.43L405.13 526.43L402.72 525.57L390.65 559.57Z M417.2 559.57L405.13 525.57L402.72 526.43L414.79 560.43Z M395.72 550.29L412.13 550.29L412.13 547.95L395.72 547.95Z M405.2 526.46L405.2 526.39L405.19 526.33L405.18 526.26L405.17 526.19L405.16 526.13L405.14 526.07L405.12 526L405.09 525.94L405.06 525.88L405.03 525.82L404.99 525.76L404.96 525.71L404.92 525.66L404.87 525.61L404.83 525.56L404.78 525.51L404.73 525.47L404.67 525.43L404.62 525.39L404.56 525.35L404.5 525.32L404.44 525.29L404.38 525.27L404.32 525.25L404.25 525.23L404.19 525.21L404.12 525.2L404.06 525.19L403.99 525.19L403.92 525.18L403.86 525.19L403.79 525.19L403.73 525.2L403.66 525.21L403.6 525.23L403.53 525.25L403.47 525.27L403.41 525.29L403.35 525.32L403.29 525.35L403.23 525.39L403.18 525.43L403.12 525.47L403.07 525.51L403.02 525.56L402.98 525.61L402.93 525.66L402.89 525.71L402.86 525.76L402.82 525.82L402.79 525.88L402.76 525.94L402.73 526L402.71 526.07L402.69 526.13L402.68 526.19L402.67 526.26L402.66 526.33L402.65 526.39L402.65 526.46L402.65 526.53L402.66 526.59L402.67 526.66L402.68 526.72L402.69 526.79L402.71 526.85L402.73 526.92L402.76 526.98L402.79 527.04L402.82 527.1L402.86 527.15L402.89 527.21L402.93 527.26L402.98 527.31L403.02 527.36L403.07 527.41L403.12 527.45L403.18 527.49L403.23 527.53L403.29 527.56L403.35 527.6L403.41 527.62L403.47 527.65L403.53 527.67L403.6 527.69L403.66 527.71L403.73 527.72L403.79 527.73L403.86 527.73L403.92 527.73L403.99 527.73L404.06 527.73L404.12 527.72L404.19 527.71L404.25 527.69L404.32 527.67L404.38 527.65L404.44 527.62L404.5 527.6L404.56 527.56L404.62 527.53L404.67 527.49L404.73 527.45L404.78 527.41L404.83 527.36L404.87 527.31L404.92 527.26L404.96 527.21L404.99 527.15L405.03 527.1L405.06 527.04L405.09 526.98L405.12 526.92L405.14 526.85L405.16 526.79L405.17 526.72L405.18 526.66L405.19 526.59L405.2 526.53L405.2 526.46Z M425.51 560L425.51 526L422.96 526L422.96 560Z M433.33 551.28L442.85 551.28L442.85 548.73L433.33 548.73Z M471.07 548.1L471.06 547.48L471.02 546.86L470.95 546.24L470.85 545.63L470.73 545.03L470.58 544.43L470.4 543.85L470.2 543.27L469.97 542.71L469.72 542.17L469.44 541.64L469.14 541.12L468.82 540.63L468.47 540.16L468.11 539.71L467.72 539.28L467.32 538.87L466.89 538.49L466.46 538.14L466 537.81L465.54 537.52L465.06 537.25L464.57 537.01L464.06 536.8L463.56 536.62L463.04 536.47L462.51 536.35L461.99 536.27L461.46 536.22L460.92 536.2L460.39 536.21L459.86 536.26L459.33 536.34L458.81 536.45L458.29 536.59L457.78 536.76L457.28 536.96L456.78 537.2L456.3 537.46L455.83 537.76L455.38 538.08L454.94 538.43L454.51 538.8L454.1 539.2L453.72 539.62L453.35 540.07L453 540.54L452.67 541.03L452.37 541.54L452.08 542.07L451.83 542.61L451.59 543.17L451.38 543.74L451.2 544.32L451.05 544.92L450.92 545.52L450.82 546.13L450.74 546.74L450.69 547.36L450.68 547.98L450.68 548.6L450.72 549.22L450.78 549.84L450.88 550.45L451 551.06L451.14 551.66L451.31 552.24L451.51 552.82L451.74 553.38L451.98 553.93L452.26 554.47L452.55 554.98L452.87 555.48L453.21 555.96L453.57 556.41L453.96 556.84L454.36 557.25L454.78 557.64L455.21 558L455.66 558.33L456.12 558.63L456.6 558.91L457.09 559.15L457.59 559.37L458.1 559.55L458.61 559.7L459.14 559.83L459.66 559.92L460.19 559.97L460.73 560L461.26 559.99L461.79 559.95L462.32 559.88L462.84 559.78L463.36 559.64L463.87 559.47L464.38 559.28L464.87 559.05L465.36 558.79L465.83 558.5L466.29 558.19L466.73 557.84L467.16 557.47L467.57 557.08L467.96 556.66L468.34 556.21L468.69 555.75L466.74 554.11L466.47 554.48L466.19 554.82L465.9 555.15L465.59 555.46L465.27 555.75L464.94 556.02L464.59 556.27L464.24 556.5L463.87 556.7L463.5 556.88L463.12 557.04L462.74 557.17L462.35 557.27L461.96 557.36L461.56 557.41L461.16 557.44L460.76 557.45L460.36 557.43L459.97 557.38L459.57 557.31L459.18 557.22L458.79 557.1L458.41 556.95L458.04 556.78L457.67 556.59L457.31 556.37L456.96 556.14L456.63 555.88L456.3 555.59L455.99 555.29L455.69 554.97L455.4 554.63L455.13 554.27L454.87 553.9L454.63 553.51L454.41 553.1L454.21 552.68L454.02 552.25L453.85 551.81L453.7 551.36L453.57 550.89L453.47 550.42L453.38 549.95L453.31 549.47L453.26 548.98L453.23 548.5L453.23 548.01L453.24 547.52L453.27 547.03L453.33 546.55L453.41 546.07L453.5 545.6L453.62 545.13L453.76 544.67L453.91 544.22L454.09 543.79L454.28 543.36L454.49 542.95L454.72 542.55L454.97 542.16L455.23 541.79L455.51 541.44L455.8 541.11L456.1 540.79L456.42 540.5L456.75 540.22L457.09 539.97L457.45 539.74L457.81 539.53L458.18 539.35L458.55 539.19L458.94 539.05L459.33 538.94L459.72 538.86L460.12 538.8L460.51 538.76L460.91 538.75L461.31 538.77L461.71 538.81L462.1 538.87L462.5 538.96L462.89 539.08L463.27 539.22L463.64 539.38L464.01 539.57L464.37 539.78L464.72 540.02L465.06 540.27L465.39 540.55L465.71 540.85L466.01 541.17L466.3 541.5L466.57 541.86L466.83 542.23L467.07 542.62L467.3 543.02L467.51 543.44L467.7 543.87L467.87 544.31L468.02 544.76L468.15 545.22L468.27 545.69L468.36 546.16L468.43 546.64L468.48 547.13L468.51 547.61L468.52 548.1Z M451.95 549.38L469.8 549.38L469.8 546.83L451.95 546.83Z M495.72 548.1L495.71 547.48L495.67 546.86L495.61 546.24L495.52 545.63L495.4 545.02L495.25 544.42L495.09 543.84L494.89 543.26L494.68 542.7L494.44 542.15L494.18 541.62L493.89 541.11L493.58 540.61L493.26 540.14L492.91 539.69L492.55 539.26L492.16 538.85L491.77 538.47L491.35 538.12L490.92 537.79L490.48 537.5L490.03 537.23L489.56 536.99L489.09 536.78L488.61 536.61L488.12 536.46L487.62 536.35L487.12 536.27L486.62 536.22L486.12 536.2L485.62 536.22L485.12 536.27L484.62 536.35L484.12 536.46L483.63 536.61L483.15 536.78L482.68 536.99L482.21 537.23L481.76 537.5L481.32 537.79L480.89 538.12L480.47 538.47L480.08 538.85L479.69 539.26L479.33 539.69L478.98 540.14L478.66 540.61L478.35 541.11L478.06 541.62L477.8 542.15L477.56 542.7L477.35 543.26L477.15 543.84L476.99 544.42L476.84 545.02L476.72 545.63L476.63 546.24L476.57 546.86L476.53 547.48L476.51 548.1L476.53 548.72L476.57 549.34L476.63 549.96L476.72 550.57L476.84 551.18L476.99 551.78L477.15 552.36L477.35 552.94L477.56 553.5L477.8 554.05L478.06 554.58L478.35 555.09L478.66 555.59L478.98 556.06L479.33 556.51L479.69 556.94L480.08 557.35L480.47 557.73L480.89 558.08L481.32 558.41L481.76 558.7L482.21 558.97L482.68 559.21L483.15 559.42L483.63 559.59L484.12 559.74L484.62 559.85L485.12 559.93L485.62 559.98L486.12 560L486.62 559.98L487.12 559.93L487.62 559.85L488.12 559.74L488.61 559.59L489.09 559.42L489.56 559.21L490.03 558.97L490.48 558.7L490.92 558.41L491.35 558.08L491.77 557.73L492.16 557.35L492.55 556.94L492.91 556.51L493.26 556.06L493.58 555.59L493.89 555.09L494.18 554.58L494.44 554.05L494.68 553.5L494.89 552.94L495.09 552.36L495.25 551.78L495.4 551.18L495.52 550.57L495.61 549.96L495.67 549.34L495.71 548.72L495.72 548.1L493.17 548.1L493.17 548.59L493.14 549.08L493.09 549.56L493.02 550.04L492.93 550.52L492.83 550.99L492.71 551.45L492.57 551.9L492.41 552.34L492.23 552.78L492.04 553.19L491.83 553.6L491.6 553.98L491.36 554.36L491.11 554.71L490.84 555.05L490.56 555.37L490.27 555.66L489.96 555.94L489.65 556.2L489.32 556.43L488.99 556.64L488.65 556.83L488.3 556.99L487.95 557.13L487.59 557.25L487.22 557.33L486.86 557.4L486.49 557.44L486.12 557.45L485.75 557.44L485.38 557.4L485.02 557.33L484.65 557.25L484.29 557.13L483.94 556.99L483.59 556.83L483.25 556.64L482.92 556.43L482.59 556.2L482.28 555.94L481.97 555.66L481.68 555.37L481.4 555.05L481.13 554.71L480.88 554.36L480.64 553.98L480.41 553.6L480.2 553.19L480.01 552.78L479.83 552.34L479.67 551.9L479.53 551.45L479.41 550.99L479.31 550.52L479.22 550.04L479.15 549.56L479.1 549.08L479.07 548.59L479.06 548.1L479.07 547.61L479.1 547.12L479.15 546.64L479.22 546.16L479.31 545.68L479.41 545.21L479.53 544.75L479.67 544.3L479.83 543.86L480.01 543.42L480.2 543.01L480.41 542.6L480.64 542.22L480.88 541.84L481.13 541.49L481.4 541.15L481.68 540.83L481.97 540.54L482.28 540.26L482.59 540L482.92 539.77L483.25 539.56L483.59 539.37L483.94 539.21L484.29 539.07L484.65 538.95L485.02 538.87L485.38 538.8L485.75 538.76L486.12 538.75L486.49 538.76L486.86 538.8L487.22 538.87L487.59 538.95L487.95 539.07L488.3 539.21L488.65 539.37L488.99 539.56L489.32 539.77L489.65 540L489.96 540.26L490.27 540.54L490.56 540.83L490.84 541.15L491.11 541.49L491.36 541.84L491.6 542.22L491.83 542.6L492.04 543.01L492.23 543.42L492.41 543.86L492.57 544.3L492.71 544.75L492.83 545.21L492.93 545.68L493.02 546.16L493.09 546.64L493.14 547.12L493.17 547.61L493.17 548.1Z M498.27 560L498.27 527.36L495.72 527.36L495.72 560Z M541.11 548.1L541.1 547.48L541.06 546.86L540.99 546.24L540.89 545.63L540.77 545.02L540.62 544.42L540.44 543.84L540.23 543.26L540 542.7L539.75 542.15L539.47 541.62L539.17 541.11L538.84 540.61L538.5 540.14L538.13 539.69L537.74 539.26L537.33 538.85L536.91 538.47L536.47 538.12L536.01 537.79L535.55 537.5L535.06 537.23L534.57 536.99L534.07 536.78L533.55 536.61L533.04 536.46L532.51 536.35L531.98 536.27L531.45 536.22L530.91 536.2L530.38 536.22L529.85 536.27L529.32 536.35L528.79 536.46L528.28 536.61L527.76 536.78L527.26 536.99L526.77 537.23L526.28 537.5L525.81 537.79L525.36 538.12L524.92 538.47L524.5 538.85L524.09 539.26L523.7 539.69L523.33 540.14L522.99 540.61L522.66 541.11L522.36 541.62L522.08 542.15L521.83 542.7L521.6 543.26L521.39 543.84L521.21 544.42L521.06 545.02L520.94 545.63L520.84 546.24L520.77 546.86L520.73 547.48L520.71 548.1L520.73 548.72L520.77 549.34L520.84 549.96L520.94 550.57L521.06 551.18L521.21 551.78L521.39 552.36L521.6 552.94L521.83 553.5L522.08 554.05L522.36 554.58L522.66 555.09L522.99 555.59L523.33 556.06L523.7 556.51L524.09 556.94L524.5 557.35L524.92 557.73L525.36 558.08L525.81 558.41L526.28 558.7L526.77 558.97L527.26 559.21L527.76 559.42L528.28 559.59L528.79 559.74L529.32 559.85L529.85 559.93L530.38 559.98L530.91 560L531.45 559.98L531.98 559.93L532.51 559.85L533.04 559.74L533.55 559.59L534.07 559.42L534.57 559.21L535.06 558.97L535.55 558.7L536.01 558.41L536.47 558.08L536.91 557.73L537.33 557.35L537.74 556.94L538.13 556.51L538.5 556.06L538.84 555.59L539.17 555.09L539.47 554.58L539.75 554.05L540 553.5L540.23 552.94L540.44 552.36L540.62 551.78L540.77 551.18L540.89 550.57L540.99 549.96L541.06 549.34L541.1 548.72L541.11 548.1L538.56 548.1L538.55 548.59L538.52 549.08L538.47 549.56L538.4 550.04L538.3 550.52L538.19 550.99L538.06 551.45L537.9 551.9L537.73 552.34L537.54 552.78L537.33 553.19L537.1 553.6L536.86 553.98L536.6 554.36L536.32 554.71L536.03 555.05L535.73 555.37L535.41 555.66L535.08 555.94L534.74 556.2L534.39 556.43L534.03 556.64L533.66 556.83L533.28 556.99L532.89 557.13L532.51 557.25L532.11 557.33L531.71 557.4L531.32 557.44L530.91 557.45L530.51 557.44L530.12 557.4L529.72 557.33L529.32 557.25L528.94 557.13L528.55 556.99L528.17 556.83L527.8 556.64L527.44 556.43L527.09 556.2L526.75 555.94L526.42 555.66L526.1 555.37L525.8 555.05L525.51 554.71L525.23 554.36L524.97 553.98L524.73 553.6L524.5 553.19L524.29 552.78L524.1 552.34L523.93 551.9L523.77 551.45L523.64 550.99L523.53 550.52L523.43 550.04L523.36 549.56L523.31 549.08L523.28 548.59L523.26 548.1L523.28 547.61L523.31 547.12L523.36 546.64L523.43 546.16L523.53 545.68L523.64 545.21L523.77 544.75L523.93 544.3L524.1 543.86L524.29 543.42L524.5 543.01L524.73 542.6L524.97 542.22L525.23 541.84L525.51 541.49L525.8 541.15L526.1 540.83L526.42 540.54L526.75 540.26L527.09 540L527.44 539.77L527.8 539.56L528.17 539.37L528.55 539.21L528.94 539.07L529.32 538.95L529.72 538.87L530.12 538.8L530.51 538.76L530.91 538.75L531.32 538.76L531.71 538.8L532.11 538.87L532.51 538.95L532.89 539.07L533.28 539.21L533.66 539.37L534.03 539.56L534.39 539.77L534.74 540L535.08 540.26L535.41 540.54L535.73 540.83L536.03 541.15L536.32 541.49L536.6 541.84L536.86 542.22L537.1 542.6L537.33 543.01L537.54 543.42L537.73 543.86L537.9 544.3L538.06 544.75L538.19 545.21L538.3 545.68L538.4 546.16L538.47 546.64L538.52 547.12L538.55 547.61L538.56 548.1Z M541.11 560L541.11 536.2L538.56 536.2L538.56 560Z M549.1 560L549.1 536.2L546.55 536.2L546.55 560Z M566.95 560L566.95 545.13L564.4 545.13L564.4 560Z M549.1 545.13L549.12 544.72L549.15 544.33L549.2 543.93L549.27 543.53L549.37 543.15L549.48 542.76L549.61 542.38L549.77 542.01L549.94 541.65L550.13 541.3L550.34 540.96L550.57 540.63L550.81 540.31L551.07 540.01L551.35 539.72L551.64 539.44L551.94 539.18L552.26 538.94L552.59 538.71L552.93 538.5L553.28 538.31L553.64 538.14L554.01 537.98L554.39 537.85L554.78 537.74L555.16 537.64L555.56 537.57L555.96 537.52L556.35 537.49L556.75 537.48L557.16 537.49L557.55 537.52L557.95 537.57L558.35 537.64L558.73 537.74L559.12 537.85L559.5 537.98L559.87 538.14L560.23 538.31L560.58 538.5L560.92 538.71L561.25 538.94L561.57 539.18L561.87 539.44L562.16 539.72L562.44 540.01L562.7 540.31L562.94 540.63L563.17 540.96L563.38 541.3L563.57 541.65L563.74 542.01L563.9 542.38L564.03 542.76L564.14 543.15L564.24 543.53L564.31 543.93L564.36 544.33L564.39 544.72L564.4 545.13L566.95 545.13L566.94 544.59L566.9 544.06L566.83 543.53L566.73 543L566.61 542.49L566.46 541.97L566.28 541.47L566.07 540.98L565.84 540.49L565.59 540.03L565.31 539.57L565.01 539.13L564.68 538.71L564.34 538.3L563.97 537.91L563.58 537.54L563.17 537.2L562.75 536.87L562.31 536.57L561.85 536.29L561.39 536.04L560.9 535.81L560.41 535.6L559.91 535.42L559.39 535.27L558.88 535.15L558.35 535.05L557.82 534.98L557.29 534.94L556.75 534.92L556.22 534.94L555.69 534.98L555.16 535.05L554.63 535.15L554.12 535.27L553.6 535.42L553.1 535.6L552.61 535.81L552.12 536.04L551.65 536.29L551.2 536.57L550.76 536.87L550.34 537.2L549.93 537.54L549.54 537.91L549.17 538.3L548.83 538.71L548.5 539.13L548.2 539.57L547.92 540.03L547.67 540.49L547.44 540.98L547.23 541.47L547.05 541.97L546.9 542.49L546.78 543L546.68 543.53L546.61 544.06L546.57 544.59L546.55 545.13Z M591.6 548.1L591.59 547.48L591.55 546.86L591.49 546.24L591.4 545.63L591.28 545.02L591.13 544.42L590.97 543.84L590.77 543.26L590.56 542.7L590.32 542.15L590.06 541.62L589.77 541.11L589.46 540.61L589.14 540.14L588.79 539.69L588.43 539.26L588.04 538.85L587.65 538.47L587.23 538.12L586.8 537.79L586.36 537.5L585.91 537.23L585.44 536.99L584.97 536.78L584.49 536.61L584 536.46L583.5 536.35L583 536.27L582.5 536.22L582 536.2L581.5 536.22L581 536.27L580.5 536.35L580 536.46L579.51 536.61L579.03 536.78L578.56 536.99L578.09 537.23L577.64 537.5L577.2 537.79L576.77 538.12L576.35 538.47L575.96 538.85L575.57 539.26L575.21 539.69L574.86 540.14L574.54 540.61L574.23 541.11L573.94 541.62L573.68 542.15L573.44 542.7L573.23 543.26L573.03 543.84L572.87 544.42L572.72 545.02L572.6 545.63L572.51 546.24L572.45 546.86L572.41 547.48L572.39 548.1L572.41 548.72L572.45 549.34L572.51 549.96L572.6 550.57L572.72 551.18L572.87 551.78L573.03 552.36L573.23 552.94L573.44 553.5L573.68 554.05L573.94 554.58L574.23 555.09L574.54 555.59L574.86 556.06L575.21 556.51L575.57 556.94L575.96 557.35L576.35 557.73L576.77 558.08L577.2 558.41L577.64 558.7L578.09 558.97L578.56 559.21L579.03 559.42L579.51 559.59L580 559.74L580.5 559.85L581 559.93L581.5 559.98L582 560L582.5 559.98L583 559.93L583.5 559.85L584 559.74L584.49 559.59L584.97 559.42L585.44 559.21L585.91 558.97L586.36 558.7L586.8 558.41L587.23 558.08L587.65 557.73L588.04 557.35L588.43 556.94L588.79 556.51L589.14 556.06L589.46 555.59L589.77 555.09L590.06 554.58L590.32 554.05L590.56 553.5L590.77 552.94L590.97 552.36L591.13 551.78L591.28 551.18L591.4 550.57L591.49 549.96L591.55 549.34L591.59 548.72L591.6 548.1L589.05 548.1L589.05 548.59L589.02 549.08L588.97 549.56L588.9 550.04L588.81 550.52L588.71 550.99L588.59 551.45L588.45 551.9L588.29 552.34L588.11 552.78L587.92 553.19L587.71 553.6L587.48 553.98L587.24 554.36L586.99 554.71L586.72 555.05L586.44 555.37L586.15 555.66L585.84 555.94L585.53 556.2L585.2 556.43L584.87 556.64L584.53 556.83L584.18 556.99L583.83 557.13L583.47 557.25L583.1 557.33L582.74 557.4L582.37 557.44L582 557.45L581.63 557.44L581.26 557.4L580.9 557.33L580.53 557.25L580.17 557.13L579.82 556.99L579.47 556.83L579.13 556.64L578.8 556.43L578.47 556.2L578.16 555.94L577.85 555.66L577.56 555.37L577.28 555.05L577.01 554.71L576.76 554.36L576.52 553.98L576.29 553.6L576.08 553.19L575.89 552.78L575.71 552.34L575.55 551.9L575.41 551.45L575.29 550.99L575.19 550.52L575.1 550.04L575.03 549.56L574.98 549.08L574.95 548.59L574.94 548.1L574.95 547.61L574.98 547.12L575.03 546.64L575.1 546.16L575.19 545.68L575.29 545.21L575.41 544.75L575.55 544.3L575.71 543.86L575.89 543.42L576.08 543.01L576.29 542.6L576.52 542.22L576.76 541.84L577.01 541.49L577.28 541.15L577.56 540.83L577.85 540.54L578.16 540.26L578.47 540L578.8 539.77L579.13 539.56L579.47 539.37L579.82 539.21L580.17 539.07L580.53 538.95L580.9 538.87L581.26 538.8L581.63 538.76L582 538.75L582.37 538.76L582.74 538.8L583.1 538.87L583.47 538.95L583.83 539.07L584.18 539.21L584.53 539.37L584.87 539.56L585.2 539.77L585.53 540L585.84 540.26L586.15 540.54L586.44 540.83L586.72 541.15L586.99 541.49L587.24 541.84L587.48 542.22L587.71 542.6L587.92 543.01L588.11 543.42L588.29 543.86L588.45 544.3L588.59 544.75L588.71 545.21L588.81 545.68L588.9 546.16L588.97 546.64L589.02 547.12L589.05 547.61L589.05 548.1Z M594.15 560L594.15 527.36L591.6 527.36L591.6 560Z M619.14 566.8L619.14 536.2L616.59 536.2L616.59 566.8Z M638.35 548.1L638.34 547.48L638.3 546.86L638.22 546.24L638.12 545.63L637.98 545.02L637.82 544.42L637.63 543.84L637.41 543.26L637.17 542.7L636.9 542.15L636.6 541.62L636.28 541.11L635.93 540.61L635.56 540.14L635.17 539.69L634.76 539.26L634.32 538.85L633.87 538.47L633.4 538.12L632.91 537.79L632.41 537.5L631.9 537.23L631.37 536.99L630.84 536.78L630.29 536.61L629.74 536.46L629.18 536.35L628.61 536.27L628.04 536.22L627.47 536.2L626.91 536.22L626.34 536.27L625.77 536.35L625.21 536.46L624.66 536.61L624.11 536.78L623.58 536.99L623.05 537.23L622.54 537.5L622.03 537.79L621.55 538.12L621.08 538.47L620.63 538.85L620.19 539.26L619.78 539.69L619.39 540.14L619.02 540.61L618.67 541.11L618.35 541.62L618.05 542.15L617.78 542.7L617.54 543.26L617.32 543.84L617.13 544.42L616.97 545.02L616.83 545.63L616.73 546.24L616.65 546.86L616.61 547.48L616.59 548.1L616.61 548.72L616.65 549.34L616.73 549.96L616.83 550.57L616.97 551.18L617.13 551.78L617.32 552.36L617.54 552.94L617.78 553.5L618.05 554.05L618.35 554.58L618.67 555.09L619.02 555.59L619.39 556.06L619.78 556.51L620.19 556.94L620.63 557.35L621.08 557.73L621.55 558.08L622.03 558.41L622.54 558.7L623.05 558.97L623.58 559.21L624.11 559.42L624.66 559.59L625.21 559.74L625.77 559.85L626.34 559.93L626.91 559.98L627.47 560L628.04 559.98L628.61 559.93L629.18 559.85L629.74 559.74L630.29 559.59L630.84 559.42L631.37 559.21L631.9 558.97L632.41 558.7L632.91 558.41L633.4 558.08L633.87 557.73L634.32 557.35L634.76 556.94L635.17 556.51L635.56 556.06L635.93 555.59L636.28 555.09L636.6 554.58L636.9 554.05L637.17 553.5L637.41 552.94L637.63 552.36L637.82 551.78L637.98 551.18L638.12 550.57L638.22 549.96L638.3 549.34L638.34 548.72L638.35 548.1L635.8 548.1L635.79 548.59L635.76 549.08L635.7 549.56L635.62 550.04L635.52 550.52L635.4 550.99L635.25 551.45L635.08 551.9L634.9 552.34L634.69 552.78L634.46 553.19L634.21 553.6L633.95 553.98L633.67 554.36L633.37 554.71L633.05 555.05L632.72 555.37L632.37 555.66L632.01 555.94L631.64 556.2L631.26 556.43L630.86 556.64L630.46 556.83L630.05 556.99L629.63 557.13L629.21 557.25L628.78 557.33L628.35 557.4L627.91 557.44L627.47 557.45L627.04 557.44L626.6 557.4L626.17 557.33L625.74 557.25L625.32 557.13L624.9 556.99L624.49 556.83L624.09 556.64L623.69 556.43L623.31 556.2L622.94 555.94L622.58 555.66L622.23 555.37L621.9 555.05L621.58 554.71L621.28 554.36L621 553.98L620.74 553.6L620.49 553.19L620.26 552.78L620.05 552.34L619.87 551.9L619.7 551.45L619.55 550.99L619.43 550.52L619.33 550.04L619.25 549.56L619.19 549.08L619.16 548.59L619.14 548.1L619.16 547.61L619.19 547.12L619.25 546.64L619.33 546.16L619.43 545.68L619.55 545.21L619.7 544.75L619.87 544.3L620.05 543.86L620.26 543.42L620.49 543.01L620.74 542.6L621 542.22L621.28 541.84L621.58 541.49L621.9 541.15L622.23 540.83L622.58 540.54L622.94 540.26L623.31 540L623.69 539.77L624.09 539.56L624.49 539.37L624.9 539.21L625.32 539.07L625.74 538.95L626.17 538.87L626.6 538.8L627.04 538.76L627.47 538.75L627.91 538.76L628.35 538.8L628.78 538.87L629.21 538.95L629.63 539.07L630.05 539.21L630.46 539.37L630.86 539.56L631.26 539.77L631.64 540L632.01 540.26L632.37 540.54L632.72 540.83L633.05 541.15L633.37 541.49L633.67 541.84L633.95 542.22L634.21 542.6L634.46 543.01L634.69 543.42L634.9 543.86L635.08 544.3L635.25 544.75L635.4 545.21L635.52 545.68L635.62 546.16L635.7 546.64L635.76 547.12L635.79 547.61L635.8 548.1Z M646.34 560L646.34 536.2L643.79 536.2L643.79 560Z M646.34 542.07L646.35 541.83L646.37 541.59L646.4 541.35L646.44 541.12L646.5 540.89L646.57 540.66L646.65 540.43L646.74 540.21L646.84 540L646.95 539.79L647.07 539.58L647.21 539.39L647.35 539.2L647.51 539.01L647.67 538.84L647.84 538.67L648.02 538.52L648.21 538.37L648.4 538.24L648.61 538.11L648.82 537.99L649.03 537.89L649.25 537.8L649.47 537.71L649.7 537.64L649.93 537.59L650.17 537.54L650.4 537.51L650.64 537.48L650.88 537.48L651.12 537.48L651.35 537.49L651.59 537.52L651.83 537.56L652.06 537.61L652.29 537.68L652.51 537.76L652.74 537.84L652.95 537.94L653.16 538.05L653.37 538.17L653.57 538.31L655.03 536.22L654.72 536.01L654.4 535.82L654.07 535.65L653.74 535.5L653.39 535.36L653.04 535.24L652.68 535.14L652.32 535.06L651.96 535L651.59 534.95L651.22 534.93L650.85 534.93L650.48 534.94L650.11 534.97L649.74 535.03L649.38 535.1L649.02 535.19L648.66 535.3L648.31 535.42L647.97 535.57L647.64 535.73L647.31 535.91L647 536.11L646.7 536.32L646.4 536.55L646.12 536.79L645.85 537.05L645.6 537.32L645.36 537.6L645.14 537.9L644.93 538.2L644.74 538.52L644.56 538.85L644.4 539.18L644.26 539.53L644.14 539.88L644.03 540.23L643.95 540.59L643.88 540.96L643.83 541.32L643.8 541.69L643.79 542.07Z M685.27 548.1L685.26 547.48L685.22 546.86L685.14 546.24L685.04 545.63L684.9 545.02L684.74 544.42L684.55 543.84L684.33 543.26L684.09 542.7L683.82 542.15L683.52 541.62L683.2 541.11L682.85 540.61L682.48 540.14L682.09 539.69L681.68 539.26L681.24 538.85L680.79 538.47L680.32 538.12L679.83 537.79L679.33 537.5L678.82 537.23L678.29 536.99L677.76 536.78L677.21 536.61L676.66 536.46L676.1 536.35L675.53 536.27L674.96 536.22L674.39 536.2L673.83 536.22L673.26 536.27L672.69 536.35L672.13 536.46L671.58 536.61L671.03 536.78L670.5 536.99L669.97 537.23L669.46 537.5L668.96 537.79L668.47 538.12L668 538.47L667.55 538.85L667.11 539.26L666.7 539.69L666.31 540.14L665.94 540.61L665.59 541.11L665.27 541.62L664.97 542.15L664.7 542.7L664.46 543.26L664.24 543.84L664.05 544.42L663.89 545.02L663.75 545.63L663.65 546.24L663.57 546.86L663.53 547.48L663.51 548.1L663.53 548.72L663.57 549.34L663.65 549.96L663.75 550.57L663.89 551.18L664.05 551.78L664.24 552.36L664.46 552.94L664.7 553.5L664.97 554.05L665.27 554.58L665.59 555.09L665.94 555.59L666.31 556.06L666.7 556.51L667.11 556.94L667.55 557.35L668 557.73L668.47 558.08L668.96 558.41L669.46 558.7L669.97 558.97L670.5 559.21L671.03 559.42L671.58 559.59L672.13 559.74L672.69 559.85L673.26 559.93L673.83 559.98L674.39 560L674.96 559.98L675.53 559.93L676.1 559.85L676.66 559.74L677.21 559.59L677.76 559.42L678.29 559.21L678.82 558.97L679.33 558.7L679.83 558.41L680.32 558.08L680.79 557.73L681.24 557.35L681.68 556.94L682.09 556.51L682.48 556.06L682.85 555.59L683.2 555.09L683.52 554.58L683.82 554.05L684.09 553.5L684.33 552.94L684.55 552.36L684.74 551.78L684.9 551.18L685.04 550.57L685.14 549.96L685.22 549.34L685.26 548.72L685.27 548.1L682.72 548.1L682.71 548.59L682.68 549.08L682.62 549.56L682.54 550.04L682.44 550.52L682.32 550.99L682.17 551.45L682 551.9L681.82 552.34L681.61 552.78L681.38 553.19L681.13 553.6L680.87 553.98L680.59 554.36L680.29 554.71L679.97 555.05L679.64 555.37L679.29 555.66L678.93 555.94L678.56 556.2L678.18 556.43L677.78 556.64L677.38 556.83L676.97 556.99L676.55 557.13L676.13 557.25L675.7 557.33L675.27 557.4L674.83 557.44L674.39 557.45L673.96 557.44L673.52 557.4L673.09 557.33L672.66 557.25L672.24 557.13L671.82 556.99L671.41 556.83L671.01 556.64L670.61 556.43L670.23 556.2L669.86 555.94L669.5 555.66L669.15 555.37L668.82 555.05L668.5 554.71L668.2 554.36L667.92 553.98L667.66 553.6L667.41 553.19L667.18 552.78L666.97 552.34L666.79 551.9L666.62 551.45L666.47 550.99L666.35 550.52L666.25 550.04L666.17 549.56L666.11 549.08L666.08 548.59L666.06 548.1L666.08 547.61L666.11 547.12L666.17 546.64L666.25 546.16L666.35 545.68L666.47 545.21L666.62 544.75L666.79 544.3L666.97 543.86L667.18 543.42L667.41 543.01L667.66 542.6L667.92 542.22L668.2 541.84L668.5 541.49L668.82 541.15L669.15 540.83L669.5 540.54L669.86 540.26L670.23 540L670.61 539.77L671.01 539.56L671.41 539.37L671.82 539.21L672.24 539.07L672.66 538.95L673.09 538.87L673.52 538.8L673.96 538.76L674.39 538.75L674.83 538.76L675.27 538.8L675.7 538.87L676.13 538.95L676.55 539.07L676.97 539.21L677.38 539.37L677.78 539.56L678.18 539.77L678.56 540L678.93 540.26L679.29 540.54L679.64 540.83L679.97 541.15L680.29 541.49L680.59 541.84L680.87 542.22L681.13 542.6L681.38 543.01L681.61 543.42L681.82 543.86L682 544.3L682.17 544.75L682.32 545.21L682.44 545.68L682.54 546.16L682.62 546.64L682.68 547.12L682.71 547.61L682.72 548.1Z M690.71 536.2L690.71 551.08L693.26 551.08L693.26 536.2Z M708.56 536.2L708.56 560L711.11 560L711.11 536.2Z M690.71 551.08L690.73 551.61L690.77 552.14L690.84 552.67L690.94 553.2L691.06 553.71L691.21 554.23L691.39 554.73L691.6 555.22L691.83 555.71L692.08 556.17L692.36 556.63L692.66 557.07L692.99 557.49L693.33 557.9L693.7 558.29L694.09 558.66L694.5 559L694.92 559.33L695.36 559.63L695.81 559.91L696.28 560.16L696.77 560.39L697.26 560.6L697.76 560.78L698.28 560.93L698.79 561.05L699.32 561.15L699.85 561.22L700.38 561.26L700.92 561.28L701.45 561.26L701.98 561.22L702.51 561.15L703.04 561.05L703.55 560.93L704.07 560.78L704.57 560.6L705.06 560.39L705.55 560.16L706.01 559.91L706.47 559.63L706.91 559.33L707.33 559L707.74 558.66L708.13 558.29L708.5 557.9L708.84 557.49L709.17 557.07L709.47 556.63L709.75 556.17L710 555.71L710.23 555.22L710.44 554.73L710.62 554.23L710.77 553.71L710.89 553.2L710.99 552.67L711.06 552.14L711.1 551.61L711.11 551.08L708.56 551.08L708.55 551.48L708.52 551.87L708.47 552.27L708.4 552.67L708.3 553.05L708.19 553.44L708.06 553.82L707.9 554.19L707.73 554.55L707.54 554.9L707.33 555.24L707.1 555.57L706.86 555.89L706.6 556.19L706.32 556.48L706.03 556.76L705.73 557.02L705.41 557.26L705.08 557.49L704.74 557.7L704.39 557.89L704.03 558.06L703.66 558.22L703.28 558.35L702.89 558.46L702.51 558.56L702.11 558.63L701.71 558.68L701.32 558.71L700.92 558.73L700.51 558.71L700.12 558.68L699.72 558.63L699.32 558.56L698.94 558.46L698.55 558.35L698.17 558.22L697.8 558.06L697.44 557.89L697.09 557.7L696.75 557.49L696.42 557.26L696.1 557.02L695.8 556.76L695.51 556.48L695.23 556.19L694.97 555.89L694.73 555.57L694.5 555.24L694.29 554.9L694.1 554.55L693.93 554.19L693.77 553.82L693.64 553.44L693.53 553.05L693.43 552.67L693.36 552.27L693.31 551.87L693.28 551.48L693.26 551.08Z M735.76 548.1L735.75 547.48L735.71 546.86L735.65 546.24L735.56 545.63L735.44 545.02L735.29 544.42L735.13 543.84L734.93 543.26L734.72 542.7L734.48 542.15L734.22 541.62L733.93 541.11L733.62 540.61L733.3 540.14L732.95 539.69L732.59 539.26L732.2 538.85L731.81 538.47L731.39 538.12L730.96 537.79L730.52 537.5L730.07 537.23L729.6 536.99L729.13 536.78L728.65 536.61L728.16 536.46L727.66 536.35L727.16 536.27L726.66 536.22L726.16 536.2L725.66 536.22L725.16 536.27L724.66 536.35L724.16 536.46L723.67 536.61L723.19 536.78L722.72 536.99L722.25 537.23L721.8 537.5L721.36 537.79L720.93 538.12L720.51 538.47L720.12 538.85L719.73 539.26L719.37 539.69L719.02 540.14L718.7 540.61L718.39 541.11L718.1 541.62L717.84 542.15L717.6 542.7L717.39 543.26L717.19 543.84L717.03 544.42L716.88 545.02L716.76 545.63L716.67 546.24L716.61 546.86L716.57 547.48L716.55 548.1L716.57 548.72L716.61 549.34L716.67 549.96L716.76 550.57L716.88 551.18L717.03 551.78L717.19 552.36L717.39 552.94L717.6 553.5L717.84 554.05L718.1 554.58L718.39 555.09L718.7 555.59L719.02 556.06L719.37 556.51L719.73 556.94L720.12 557.35L720.51 557.73L720.93 558.08L721.36 558.41L721.8 558.7L722.25 558.97L722.72 559.21L723.19 559.42L723.67 559.59L724.16 559.74L724.66 559.85L725.16 559.93L725.66 559.98L726.16 560L726.66 559.98L727.16 559.93L727.66 559.85L728.16 559.74L728.65 559.59L729.13 559.42L729.6 559.21L730.07 558.97L730.52 558.7L730.96 558.41L731.39 558.08L731.81 557.73L732.2 557.35L732.59 556.94L732.95 556.51L733.3 556.06L733.62 555.59L733.93 555.09L734.22 554.58L734.48 554.05L734.72 553.5L734.93 552.94L735.13 552.36L735.29 551.78L735.44 551.18L735.56 550.57L735.65 549.96L735.71 549.34L735.75 548.72L735.76 548.1L733.21 548.1L733.21 548.59L733.18 549.08L733.13 549.56L733.06 550.04L732.97 550.52L732.87 550.99L732.75 551.45L732.61 551.9L732.45 552.34L732.27 552.78L732.08 553.19L731.87 553.6L731.64 553.98L731.4 554.36L731.15 554.71L730.88 555.05L730.6 555.37L730.31 555.66L730 555.94L729.69 556.2L729.36 556.43L729.03 556.64L728.69 556.83L728.34 556.99L727.99 557.13L727.63 557.25L727.26 557.33L726.9 557.4L726.53 557.44L726.16 557.45L725.79 557.44L725.42 557.4L725.06 557.33L724.69 557.25L724.33 557.13L723.98 556.99L723.63 556.83L723.29 556.64L722.96 556.43L722.63 556.2L722.32 555.94L722.01 555.66L721.72 555.37L721.44 555.05L721.17 554.71L720.92 554.36L720.68 553.98L720.45 553.6L720.24 553.19L720.05 552.78L719.87 552.34L719.71 551.9L719.57 551.45L719.45 550.99L719.35 550.52L719.26 550.04L719.19 549.56L719.14 549.08L719.11 548.59L719.1 548.1L719.11 547.61L719.14 547.12L719.19 546.64L719.26 546.16L719.35 545.68L719.45 545.21L719.57 544.75L719.71 544.3L719.87 543.86L720.05 543.42L720.24 543.01L720.45 542.6L720.68 542.22L720.92 541.84L721.17 541.49L721.44 541.15L721.72 540.83L722.01 540.54L722.32 540.26L722.63 540L722.96 539.77L723.29 539.56L723.63 539.37L723.98 539.21L724.33 539.07L724.69 538.95L725.06 538.87L725.42 538.8L725.79 538.76L726.16 538.75L726.53 538.76L726.9 538.8L727.26 538.87L727.63 538.95L727.99 539.07L728.34 539.21L728.69 539.37L729.03 539.56L729.36 539.77L729.69 540L730 540.26L730.31 540.54L730.6 540.83L730.88 541.15L731.15 541.49L731.4 541.84L731.64 542.22L731.87 542.6L732.08 543.01L732.27 543.42L732.45 543.86L732.61 544.3L732.75 544.75L732.87 545.21L732.97 545.68L733.06 546.16L733.13 546.64L733.18 547.12L733.21 547.61L733.21 548.1Z M738.31 560L738.31 527.36L735.76 527.36L735.76 560Z M768.28 548.1L768.27 547.97L768.26 547.85L768.25 547.72L768.22 547.6L768.19 547.47L768.16 547.35L768.12 547.23L768.07 547.11L768.01 547L767.95 546.89L767.89 546.78L767.81 546.68L767.74 546.58L767.66 546.48L767.57 546.39L767.48 546.3L767.38 546.22L767.28 546.14L767.17 546.07L767.07 546L766.95 545.94L766.84 545.89L766.72 545.84L766.6 545.8L766.48 545.76L766.36 545.73L766.23 545.71L766.11 545.69L765.98 545.68L765.85 545.68L765.73 545.68L765.6 545.69L765.48 545.71L765.35 545.73L765.23 545.76L765.11 545.8L764.99 545.84L764.87 545.89L764.76 545.94L764.64 546L764.54 546.07L764.43 546.14L764.33 546.22L764.23 546.3L764.14 546.39L764.05 546.48L763.97 546.58L763.9 546.68L763.82 546.78L763.76 546.89L763.7 547L763.64 547.11L763.59 547.23L763.55 547.35L763.52 547.47L763.49 547.6L763.46 547.72L763.45 547.85L763.44 547.97L763.43 548.1L763.44 548.23L763.45 548.35L763.46 548.48L763.49 548.6L763.52 548.73L763.55 548.85L763.59 548.97L763.64 549.09L763.7 549.2L763.76 549.31L763.82 549.42L763.9 549.52L763.97 549.62L764.05 549.72L764.14 549.81L764.23 549.9L764.33 549.98L764.43 550.06L764.54 550.13L764.64 550.2L764.76 550.26L764.87 550.31L764.99 550.36L765.11 550.4L765.23 550.44L765.35 550.47L765.48 550.49L765.6 550.51L765.73 550.52L765.85 550.52L765.98 550.52L766.11 550.51L766.23 550.49L766.36 550.47L766.48 550.44L766.6 550.4L766.72 550.36L766.84 550.31L766.95 550.26L767.07 550.2L767.17 550.13L767.28 550.06L767.38 549.98L767.48 549.9L767.57 549.81L767.66 549.72L767.74 549.62L767.81 549.52L767.89 549.42L767.95 549.31L768.01 549.2L768.07 549.09L768.12 548.97L768.16 548.85L768.19 548.73L768.22 548.6L768.25 548.48L768.26 548.35L768.27 548.23L768.28 548.1Z M808.91 538.35L808.48 538.01L808.04 537.7L807.59 537.41L807.12 537.15L806.65 536.93L806.16 536.73L805.67 536.56L805.17 536.43L804.66 536.32L804.16 536.25L803.64 536.21L803.13 536.2L802.62 536.22L802.11 536.28L801.6 536.37L801.1 536.49L800.6 536.64L800.11 536.82L799.63 537.03L799.16 537.27L798.7 537.54L798.25 537.84L797.82 538.17L797.4 538.53L797 538.91L796.61 539.31L796.24 539.74L795.89 540.19L795.56 540.66L795.25 541.15L794.96 541.66L794.7 542.19L794.45 542.74L794.23 543.3L794.04 543.87L793.87 544.45L793.73 545.04L793.61 545.65L793.51 546.25L793.45 546.87L793.41 547.48L793.39 548.1L793.41 548.72L793.45 549.33L793.51 549.95L793.61 550.55L793.73 551.16L793.87 551.75L794.04 552.33L794.23 552.9L794.45 553.46L794.7 554.01L794.96 554.54L795.25 555.05L795.56 555.54L795.89 556.01L796.24 556.46L796.61 556.89L797 557.29L797.4 557.67L797.82 558.03L798.25 558.36L798.7 558.66L799.16 558.93L799.63 559.17L800.11 559.38L800.6 559.56L801.1 559.71L801.6 559.83L802.11 559.92L802.62 559.98L803.13 560L803.64 559.99L804.16 559.95L804.66 559.88L805.17 559.77L805.67 559.64L806.16 559.47L806.65 559.27L807.12 559.05L807.59 558.79L808.04 558.5L808.48 558.19L808.91 557.85L807.45 555.76L807.13 556.03L806.8 556.27L806.47 556.5L806.12 556.7L805.77 556.88L805.41 557.03L805.04 557.17L804.67 557.27L804.3 557.35L803.92 557.41L803.54 557.44L803.16 557.45L802.78 557.43L802.41 557.39L802.03 557.32L801.66 557.22L801.29 557.11L800.93 556.96L800.57 556.8L800.22 556.61L799.88 556.39L799.55 556.16L799.23 555.9L798.91 555.62L798.61 555.32L798.33 555.01L798.05 554.67L797.79 554.32L797.55 553.94L797.32 553.56L797.11 553.16L796.91 552.74L796.73 552.31L796.57 551.87L796.42 551.43L796.3 550.97L796.19 550.5L796.1 550.03L796.03 549.55L795.98 549.07L795.95 548.59L795.94 548.1L795.95 547.61L795.98 547.13L796.03 546.65L796.1 546.17L796.19 545.7L796.3 545.23L796.42 544.77L796.57 544.33L796.73 543.89L796.91 543.46L797.11 543.04L797.32 542.64L797.55 542.26L797.79 541.88L798.05 541.53L798.33 541.19L798.61 540.88L798.91 540.58L799.23 540.3L799.55 540.04L799.88 539.81L800.22 539.59L800.57 539.4L800.93 539.24L801.29 539.09L801.66 538.98L802.03 538.88L802.41 538.81L802.78 538.77L803.16 538.75L803.54 538.76L803.92 538.79L804.3 538.85L804.67 538.93L805.04 539.03L805.41 539.17L805.77 539.32L806.12 539.5L806.47 539.7L806.8 539.93L807.13 540.17L807.45 540.44Z M821.1 560L821.1 536.2L818.55 536.2L818.55 560Z M821.1 542.07L821.11 541.83L821.13 541.59L821.16 541.35L821.2 541.12L821.26 540.89L821.33 540.66L821.41 540.43L821.5 540.21L821.6 540L821.71 539.79L821.83 539.58L821.97 539.39L822.11 539.2L822.27 539.01L822.43 538.84L822.6 538.67L822.78 538.52L822.97 538.37L823.16 538.24L823.37 538.11L823.58 537.99L823.79 537.89L824.01 537.8L824.23 537.71L824.46 537.64L824.69 537.59L824.93 537.54L825.16 537.51L825.4 537.48L825.64 537.48L825.88 537.48L826.11 537.49L826.35 537.52L826.59 537.56L826.82 537.61L827.05 537.68L827.27 537.76L827.5 537.84L827.71 537.94L827.92 538.05L828.13 538.17L828.33 538.31L829.79 536.22L829.48 536.01L829.16 535.82L828.83 535.65L828.5 535.5L828.15 535.36L827.8 535.24L827.44 535.14L827.08 535.06L826.72 535L826.35 534.95L825.98 534.93L825.61 534.93L825.24 534.94L824.87 534.97L824.5 535.03L824.14 535.1L823.78 535.19L823.42 535.3L823.07 535.42L822.73 535.57L822.4 535.73L822.07 535.91L821.76 536.11L821.46 536.32L821.16 536.55L820.88 536.79L820.61 537.05L820.36 537.32L820.12 537.6L819.9 537.9L819.69 538.2L819.5 538.52L819.32 538.85L819.16 539.18L819.02 539.53L818.9 539.88L818.79 540.23L818.71 540.59L818.64 540.96L818.59 541.32L818.56 541.69L818.55 542.07Z M858.67 548.1L858.66 547.48L858.62 546.86L858.55 546.24L858.45 545.63L858.33 545.03L858.18 544.43L858 543.85L857.8 543.27L857.57 542.71L857.32 542.17L857.04 541.64L856.74 541.12L856.42 540.63L856.07 540.16L855.71 539.71L855.32 539.28L854.92 538.87L854.49 538.49L854.06 538.14L853.6 537.81L853.14 537.52L852.66 537.25L852.17 537.01L851.66 536.8L851.16 536.62L850.64 536.47L850.11 536.35L849.59 536.27L849.06 536.22L848.52 536.2L847.99 536.21L847.46 536.26L846.93 536.34L846.41 536.45L845.89 536.59L845.38 536.76L844.88 536.96L844.38 537.2L843.9 537.46L843.43 537.76L842.98 538.08L842.54 538.43L842.11 538.8L841.7 539.2L841.32 539.62L840.95 540.07L840.6 540.54L840.27 541.03L839.97 541.54L839.68 542.07L839.43 542.61L839.19 543.17L838.98 543.74L838.8 544.32L838.65 544.92L838.52 545.52L838.42 546.13L838.34 546.74L838.29 547.36L838.28 547.98L838.28 548.6L838.32 549.22L838.38 549.84L838.48 550.45L838.6 551.06L838.74 551.66L838.91 552.24L839.11 552.82L839.34 553.38L839.58 553.93L839.86 554.47L840.15 554.98L840.47 555.48L840.81 555.96L841.17 556.41L841.56 556.84L841.96 557.25L842.38 557.64L842.81 558L843.26 558.33L843.72 558.63L844.2 558.91L844.69 559.15L845.19 559.37L845.7 559.55L846.21 559.7L846.74 559.83L847.26 559.92L847.79 559.97L848.33 560L848.86 559.99L849.39 559.95L849.92 559.88L850.44 559.78L850.96 559.64L851.47 559.47L851.98 559.28L852.47 559.05L852.96 558.79L853.43 558.5L853.89 558.19L854.33 557.84L854.76 557.47L855.17 557.08L855.56 556.66L855.94 556.21L856.29 555.75L854.34 554.11L854.07 554.48L853.79 554.82L853.5 555.15L853.19 555.46L852.87 555.75L852.54 556.02L852.19 556.27L851.84 556.5L851.47 556.7L851.1 556.88L850.72 557.04L850.34 557.17L849.95 557.27L849.56 557.36L849.16 557.41L848.76 557.44L848.36 557.45L847.96 557.43L847.57 557.38L847.17 557.31L846.78 557.22L846.39 557.1L846.01 556.95L845.64 556.78L845.27 556.59L844.91 556.37L844.56 556.14L844.23 555.88L843.9 555.59L843.59 555.29L843.29 554.97L843 554.63L842.73 554.27L842.47 553.9L842.23 553.51L842.01 553.1L841.81 552.68L841.62 552.25L841.45 551.81L841.3 551.36L841.17 550.89L841.07 550.42L840.98 549.95L840.91 549.47L840.86 548.98L840.83 548.5L840.83 548.01L840.84 547.52L840.87 547.03L840.93 546.55L841.01 546.07L841.1 545.6L841.22 545.13L841.36 544.67L841.51 544.22L841.69 543.79L841.88 543.36L842.09 542.95L842.32 542.55L842.57 542.16L842.83 541.79L843.11 541.44L843.4 541.11L843.7 540.79L844.02 540.5L844.35 540.22L844.69 539.97L845.05 539.74L845.41 539.53L845.78 539.35L846.15 539.19L846.54 539.05L846.93 538.94L847.32 538.86L847.72 538.8L848.11 538.76L848.51 538.75L848.91 538.77L849.31 538.81L849.7 538.87L850.1 538.96L850.49 539.08L850.87 539.22L851.24 539.38L851.61 539.57L851.97 539.78L852.32 540.02L852.66 540.27L852.99 540.55L853.31 540.85L853.61 541.17L853.9 541.5L854.17 541.86L854.43 542.23L854.67 542.62L854.9 543.02L855.11 543.44L855.3 543.87L855.47 544.31L855.62 544.76L855.75 545.22L855.87 545.69L855.96 546.16L856.03 546.64L856.08 547.13L856.11 547.61L856.12 548.1Z M839.55 549.38L857.4 549.38L857.4 546.83L839.55 546.83Z M883.32 548.1L883.31 547.48L883.27 546.86L883.21 546.24L883.12 545.63L883 545.02L882.85 544.42L882.69 543.84L882.49 543.26L882.28 542.7L882.04 542.15L881.78 541.62L881.49 541.11L881.18 540.61L880.86 540.14L880.51 539.69L880.15 539.26L879.76 538.85L879.37 538.47L878.95 538.12L878.52 537.79L878.08 537.5L877.63 537.23L877.16 536.99L876.69 536.78L876.21 536.61L875.72 536.46L875.22 536.35L874.72 536.27L874.22 536.22L873.72 536.2L873.22 536.22L872.72 536.27L872.22 536.35L871.72 536.46L871.23 536.61L870.75 536.78L870.28 536.99L869.81 537.23L869.36 537.5L868.92 537.79L868.49 538.12L868.07 538.47L867.68 538.85L867.29 539.26L866.93 539.69L866.58 540.14L866.26 540.61L865.95 541.11L865.66 541.62L865.4 542.15L865.16 542.7L864.95 543.26L864.75 543.84L864.59 544.42L864.44 545.02L864.32 545.63L864.23 546.24L864.17 546.86L864.13 547.48L864.11 548.1L864.13 548.72L864.17 549.34L864.23 549.96L864.32 550.57L864.44 551.18L864.59 551.78L864.75 552.36L864.95 552.94L865.16 553.5L865.4 554.05L865.66 554.58L865.95 555.09L866.26 555.59L866.58 556.06L866.93 556.51L867.29 556.94L867.68 557.35L868.07 557.73L868.49 558.08L868.92 558.41L869.36 558.7L869.81 558.97L870.28 559.21L870.75 559.42L871.23 559.59L871.72 559.74L872.22 559.85L872.72 559.93L873.22 559.98L873.72 560L874.22 559.98L874.72 559.93L875.22 559.85L875.72 559.74L876.21 559.59L876.69 559.42L877.16 559.21L877.63 558.97L878.08 558.7L878.52 558.41L878.95 558.08L879.37 557.73L879.76 557.35L880.15 556.94L880.51 556.51L880.86 556.06L881.18 555.59L881.49 555.09L881.78 554.58L882.04 554.05L882.28 553.5L882.49 552.94L882.69 552.36L882.85 551.78L883 551.18L883.12 550.57L883.21 549.96L883.27 549.34L883.31 548.72L883.32 548.1L880.77 548.1L880.77 548.59L880.74 549.08L880.69 549.56L880.62 550.04L880.53 550.52L880.43 550.99L880.31 551.45L880.17 551.9L880.01 552.34L879.83 552.78L879.64 553.19L879.43 553.6L879.2 553.98L878.96 554.36L878.71 554.71L878.44 555.05L878.16 555.37L877.87 555.66L877.56 555.94L877.25 556.2L876.92 556.43L876.59 556.64L876.25 556.83L875.9 556.99L875.55 557.13L875.19 557.25L874.82 557.33L874.46 557.4L874.09 557.44L873.72 557.45L873.35 557.44L872.98 557.4L872.62 557.33L872.25 557.25L871.89 557.13L871.54 556.99L871.19 556.83L870.85 556.64L870.52 556.43L870.19 556.2L869.88 555.94L869.57 555.66L869.28 555.37L869 555.05L868.73 554.71L868.48 554.36L868.24 553.98L868.01 553.6L867.8 553.19L867.61 552.78L867.43 552.34L867.27 551.9L867.13 551.45L867.01 550.99L866.91 550.52L866.82 550.04L866.75 549.56L866.7 549.08L866.67 548.59L866.66 548.1L866.67 547.61L866.7 547.12L866.75 546.64L866.82 546.16L866.91 545.68L867.01 545.21L867.13 544.75L867.27 544.3L867.43 543.86L867.61 543.42L867.8 543.01L868.01 542.6L868.24 542.22L868.48 541.84L868.73 541.49L869 541.15L869.28 540.83L869.57 540.54L869.88 540.26L870.19 540L870.52 539.77L870.85 539.56L871.19 539.37L871.54 539.21L871.89 539.07L872.25 538.95L872.62 538.87L872.98 538.8L873.35 538.76L873.72 538.75L874.09 538.76L874.46 538.8L874.82 538.87L875.19 538.95L875.55 539.07L875.9 539.21L876.25 539.37L876.59 539.56L876.92 539.77L877.25 540L877.56 540.26L877.87 540.54L878.16 540.83L878.44 541.15L878.71 541.49L878.96 541.84L879.2 542.22L879.43 542.6L879.64 543.01L879.83 543.42L880.01 543.86L880.17 544.3L880.31 544.75L880.43 545.21L880.53 545.68L880.62 546.16L880.69 546.64L880.74 547.12L880.77 547.61L880.77 548.1Z M885.87 560L885.87 527.36L883.32 527.36L883.32 560Z M895.65 560L895.65 536.2L893.1 536.2L893.1 560Z M896.36 529.4L896.36 529.3L896.35 529.19L896.34 529.09L896.32 528.99L896.3 528.89L896.27 528.79L896.23 528.69L896.19 528.59L896.15 528.5L896.1 528.41L896.04 528.32L895.98 528.23L895.92 528.15L895.85 528.07L895.78 527.99L895.71 527.92L895.63 527.85L895.54 527.79L895.46 527.73L895.37 527.68L895.28 527.63L895.18 527.58L895.09 527.54L894.99 527.51L894.89 527.48L894.79 527.45L894.69 527.44L894.58 527.42L894.48 527.41L894.37 527.41L894.27 527.41L894.17 527.42L894.06 527.44L893.96 527.45L893.86 527.48L893.76 527.51L893.66 527.54L893.57 527.58L893.47 527.63L893.38 527.68L893.29 527.73L893.21 527.79L893.12 527.85L893.04 527.92L892.97 527.99L892.9 528.07L892.83 528.15L892.77 528.23L892.71 528.32L892.65 528.41L892.6 528.5L892.56 528.59L892.52 528.69L892.48 528.79L892.45 528.89L892.43 528.99L892.41 529.09L892.4 529.19L892.39 529.3L892.39 529.4L892.39 529.5L892.4 529.61L892.41 529.71L892.43 529.81L892.45 529.91L892.48 530.01L892.52 530.11L892.56 530.21L892.6 530.3L892.65 530.39L892.71 530.48L892.77 530.57L892.83 530.65L892.9 530.73L892.97 530.81L893.04 530.88L893.12 530.95L893.21 531.01L893.29 531.07L893.38 531.12L893.47 531.17L893.57 531.22L893.66 531.26L893.76 531.29L893.86 531.32L893.96 531.35L894.06 531.36L894.17 531.38L894.27 531.39L894.37 531.39L894.48 531.39L894.58 531.38L894.69 531.36L894.79 531.35L894.89 531.32L894.99 531.29L895.09 531.26L895.18 531.22L895.28 531.17L895.37 531.12L895.46 531.07L895.54 531.01L895.63 530.95L895.71 530.88L895.78 530.81L895.85 530.73L895.92 530.65L895.98 530.57L896.04 530.48L896.1 530.39L896.15 530.3L896.19 530.21L896.23 530.11L896.27 530.01L896.3 529.91L896.32 529.81L896.34 529.71L896.35 529.61L896.36 529.5L896.36 529.4Z M910.95 559.32L910.95 529.4L908.4 529.4L908.4 559.32Z M904.23 537.48L916.47 537.48L916.47 534.92L904.23 534.92Z M909.68 560.6L915.11 560.6L915.11 558.04L909.68 558.04Z M942.32 548.1L942.3 547.48L942.26 546.86L942.19 546.24L942.09 545.63L941.97 545.03L941.82 544.43L941.64 543.85L941.44 543.27L941.21 542.71L940.96 542.17L940.68 541.64L940.38 541.12L940.06 540.63L939.71 540.16L939.35 539.71L938.96 539.28L938.56 538.87L938.13 538.49L937.7 538.14L937.24 537.81L936.78 537.52L936.3 537.25L935.81 537.01L935.3 536.8L934.8 536.62L934.28 536.47L933.75 536.35L933.23 536.27L932.7 536.22L932.16 536.2L931.63 536.21L931.1 536.26L930.57 536.34L930.05 536.45L929.53 536.59L929.02 536.76L928.52 536.96L928.02 537.2L927.54 537.46L927.07 537.76L926.62 538.08L926.18 538.43L925.75 538.8L925.34 539.2L924.96 539.62L924.59 540.07L924.24 540.54L923.91 541.03L923.61 541.54L923.32 542.07L923.07 542.61L922.83 543.17L922.62 543.74L922.44 544.32L922.29 544.92L922.16 545.52L922.06 546.13L921.98 546.74L921.93 547.36L921.92 547.98L921.92 548.6L921.96 549.22L922.02 549.84L922.12 550.45L922.24 551.06L922.38 551.66L922.55 552.24L922.75 552.82L922.98 553.38L923.22 553.93L923.5 554.47L923.79 554.98L924.11 555.48L924.45 555.96L924.81 556.41L925.2 556.84L925.6 557.25L926.02 557.64L926.45 558L926.9 558.33L927.36 558.63L927.84 558.91L928.33 559.15L928.83 559.37L929.34 559.55L929.85 559.7L930.38 559.83L930.9 559.92L931.43 559.97L931.97 560L932.5 559.99L933.03 559.95L933.56 559.88L934.08 559.78L934.6 559.64L935.11 559.47L935.62 559.28L936.11 559.05L936.6 558.79L937.07 558.5L937.53 558.19L937.97 557.84L938.4 557.47L938.81 557.08L939.2 556.66L939.58 556.21L939.93 555.75L937.98 554.11L937.71 554.48L937.43 554.82L937.14 555.15L936.83 555.46L936.51 555.75L936.18 556.02L935.83 556.27L935.48 556.5L935.11 556.7L934.74 556.88L934.36 557.04L933.98 557.17L933.59 557.27L933.2 557.36L932.8 557.41L932.4 557.44L932 557.45L931.6 557.43L931.21 557.38L930.81 557.31L930.42 557.22L930.03 557.1L929.65 556.95L929.28 556.78L928.91 556.59L928.55 556.37L928.2 556.14L927.87 555.88L927.54 555.59L927.23 555.29L926.93 554.97L926.64 554.63L926.37 554.27L926.11 553.9L925.87 553.51L925.65 553.1L925.45 552.68L925.26 552.25L925.09 551.81L924.94 551.36L924.81 550.89L924.71 550.42L924.62 549.95L924.55 549.47L924.5 548.98L924.47 548.5L924.47 548.01L924.48 547.52L924.51 547.03L924.57 546.55L924.65 546.07L924.74 545.6L924.86 545.13L925 544.67L925.15 544.22L925.33 543.79L925.52 543.36L925.73 542.95L925.96 542.55L926.21 542.16L926.47 541.79L926.75 541.44L927.04 541.11L927.34 540.79L927.66 540.5L927.99 540.22L928.33 539.97L928.69 539.74L929.05 539.53L929.42 539.35L929.79 539.19L930.18 539.05L930.57 538.94L930.96 538.86L931.36 538.8L931.75 538.76L932.15 538.75L932.55 538.77L932.95 538.81L933.34 538.87L933.74 538.96L934.13 539.08L934.51 539.22L934.88 539.38L935.25 539.57L935.61 539.78L935.96 540.02L936.3 540.27L936.63 540.55L936.95 540.85L937.25 541.17L937.54 541.5L937.81 541.86L938.07 542.23L938.31 542.62L938.54 543.02L938.75 543.44L938.94 543.87L939.11 544.31L939.26 544.76L939.39 545.22L939.51 545.69L939.6 546.16L939.67 546.64L939.72 547.13L939.75 547.61L939.76 548.1Z M923.19 549.38L941.04 549.38L941.04 546.83L923.19 546.83Z M966.96 548.1L966.95 547.48L966.91 546.86L966.85 546.24L966.76 545.63L966.64 545.02L966.49 544.42L966.33 543.84L966.13 543.26L965.92 542.7L965.68 542.15L965.42 541.62L965.13 541.11L964.82 540.61L964.5 540.14L964.15 539.69L963.79 539.26L963.4 538.85L963.01 538.47L962.59 538.12L962.16 537.79L961.72 537.5L961.27 537.23L960.8 536.99L960.33 536.78L959.85 536.61L959.36 536.46L958.86 536.35L958.36 536.27L957.86 536.22L957.36 536.2L956.86 536.22L956.36 536.27L955.86 536.35L955.36 536.46L954.87 536.61L954.39 536.78L953.92 536.99L953.45 537.23L953 537.5L952.56 537.79L952.13 538.12L951.71 538.47L951.32 538.85L950.93 539.26L950.57 539.69L950.22 540.14L949.9 540.61L949.59 541.11L949.3 541.62L949.04 542.15L948.8 542.7L948.59 543.26L948.39 543.84L948.23 544.42L948.08 545.02L947.96 545.63L947.87 546.24L947.81 546.86L947.77 547.48L947.75 548.1L947.77 548.72L947.81 549.34L947.87 549.96L947.96 550.57L948.08 551.18L948.23 551.78L948.39 552.36L948.59 552.94L948.8 553.5L949.04 554.05L949.3 554.58L949.59 555.09L949.9 555.59L950.22 556.06L950.57 556.51L950.93 556.94L951.32 557.35L951.71 557.73L952.13 558.08L952.56 558.41L953 558.7L953.45 558.97L953.92 559.21L954.39 559.42L954.87 559.59L955.36 559.74L955.86 559.85L956.36 559.93L956.86 559.98L957.36 560L957.86 559.98L958.36 559.93L958.86 559.85L959.36 559.74L959.85 559.59L960.33 559.42L960.8 559.21L961.27 558.97L961.72 558.7L962.16 558.41L962.59 558.08L963.01 557.73L963.4 557.35L963.79 556.94L964.15 556.51L964.5 556.06L964.82 555.59L965.13 555.09L965.42 554.58L965.68 554.05L965.92 553.5L966.13 552.94L966.33 552.36L966.49 551.78L966.64 551.18L966.76 550.57L966.85 549.96L966.91 549.34L966.95 548.72L966.96 548.1L964.42 548.1L964.41 548.59L964.38 549.08L964.33 549.56L964.26 550.04L964.17 550.52L964.07 550.99L963.95 551.45L963.81 551.9L963.65 552.34L963.47 552.78L963.28 553.19L963.07 553.6L962.84 553.98L962.6 554.36L962.35 554.71L962.08 555.05L961.8 555.37L961.51 555.66L961.2 555.94L960.89 556.2L960.56 556.43L960.23 556.64L959.89 556.83L959.54 556.99L959.19 557.13L958.83 557.25L958.46 557.33L958.1 557.4L957.73 557.44L957.36 557.45L956.99 557.44L956.62 557.4L956.26 557.33L955.89 557.25L955.53 557.13L955.18 556.99L954.83 556.83L954.49 556.64L954.16 556.43L953.83 556.2L953.52 555.94L953.21 555.66L952.92 555.37L952.64 555.05L952.37 554.71L952.12 554.36L951.88 553.98L951.65 553.6L951.44 553.19L951.25 552.78L951.07 552.34L950.91 551.9L950.77 551.45L950.65 550.99L950.55 550.52L950.46 550.04L950.39 549.56L950.34 549.08L950.31 548.59L950.3 548.1L950.31 547.61L950.34 547.12L950.39 546.64L950.46 546.16L950.55 545.68L950.65 545.21L950.77 544.75L950.91 544.3L951.07 543.86L951.25 543.42L951.44 543.01L951.65 542.6L951.88 542.22L952.12 541.84L952.37 541.49L952.64 541.15L952.92 540.83L953.21 540.54L953.52 540.26L953.83 540L954.16 539.77L954.49 539.56L954.83 539.37L955.18 539.21L955.53 539.07L955.89 538.95L956.26 538.87L956.62 538.8L956.99 538.76L957.36 538.75L957.73 538.76L958.1 538.8L958.46 538.87L958.83 538.95L959.19 539.07L959.54 539.21L959.89 539.37L960.23 539.56L960.56 539.77L960.89 540L961.2 540.26L961.51 540.54L961.8 540.83L962.08 541.15L962.35 541.49L962.6 541.84L962.84 542.22L963.07 542.6L963.28 543.01L963.47 543.42L963.65 543.86L963.81 544.3L963.95 544.75L964.07 545.21L964.17 545.68L964.26 546.16L964.33 546.64L964.38 547.12L964.41 547.61L964.42 548.1Z M969.51 560L969.51 527.36L966.96 527.36L966.96 560Z M994.5 560L994.5 536.2L991.96 536.2L991.96 560Z M1012.36 560L1012.36 545.13L1009.8 545.13L1009.8 560Z M994.5 545.13L994.52 544.72L994.55 544.33L994.6 543.93L994.67 543.53L994.77 543.15L994.88 542.76L995.01 542.38L995.17 542.01L995.34 541.65L995.53 541.3L995.74 540.96L995.97 540.63L996.21 540.31L996.47 540.01L996.75 539.72L997.04 539.44L997.34 539.18L997.66 538.94L997.99 538.71L998.33 538.5L998.68 538.31L999.04 538.14L999.41 537.98L999.79 537.85L1000.18 537.74L1000.56 537.64L1000.96 537.57L1001.36 537.52L1001.75 537.49L1002.16 537.48L1002.56 537.49L1002.95 537.52L1003.35 537.57L1003.75 537.64L1004.13 537.74L1004.52 537.85L1004.9 537.98L1005.27 538.14L1005.63 538.31L1005.98 538.5L1006.32 538.71L1006.65 538.94L1006.97 539.18L1007.27 539.44L1007.56 539.72L1007.84 540.01L1008.1 540.31L1008.34 540.63L1008.57 540.96L1008.78 541.3L1008.97 541.65L1009.14 542.01L1009.3 542.38L1009.43 542.76L1009.54 543.15L1009.64 543.53L1009.71 543.93L1009.76 544.33L1009.79 544.72L1009.8 545.13L1012.36 545.13L1012.34 544.59L1012.3 544.06L1012.23 543.53L1012.13 543L1012.01 542.49L1011.86 541.97L1011.68 541.47L1011.47 540.98L1011.24 540.49L1010.99 540.03L1010.71 539.57L1010.41 539.13L1010.08 538.71L1009.74 538.3L1009.37 537.91L1008.98 537.54L1008.57 537.2L1008.15 536.87L1007.71 536.57L1007.25 536.29L1006.79 536.04L1006.3 535.81L1005.81 535.6L1005.31 535.42L1004.79 535.27L1004.28 535.15L1003.75 535.05L1003.22 534.98L1002.69 534.94L1002.16 534.92L1001.62 534.94L1001.09 534.98L1000.56 535.05L1000.03 535.15L999.52 535.27L999 535.42L998.5 535.6L998.01 535.81L997.52 536.04L997.05 536.29L996.6 536.57L996.16 536.87L995.74 537.2L995.33 537.54L994.94 537.91L994.57 538.3L994.23 538.71L993.9 539.13L993.6 539.57L993.32 540.03L993.07 540.49L992.84 540.98L992.63 541.47L992.45 541.97L992.3 542.49L992.18 543L992.08 543.53L992.01 544.06L991.97 544.59L991.96 545.13Z M1039.56 548.1L1039.54 547.48L1039.5 546.86L1039.42 546.24L1039.32 545.63L1039.18 545.02L1039.02 544.42L1038.83 543.84L1038.61 543.26L1038.37 542.7L1038.1 542.15L1037.8 541.62L1037.48 541.11L1037.13 540.61L1036.76 540.14L1036.37 539.69L1035.96 539.26L1035.52 538.85L1035.07 538.47L1034.6 538.12L1034.12 537.79L1033.61 537.5L1033.1 537.23L1032.57 536.99L1032.04 536.78L1031.49 536.61L1030.94 536.46L1030.38 536.35L1029.81 536.27L1029.24 536.22L1028.68 536.2L1028.11 536.22L1027.54 536.27L1026.97 536.35L1026.41 536.46L1025.86 536.61L1025.31 536.78L1024.78 536.99L1024.25 537.23L1023.74 537.5L1023.24 537.79L1022.75 538.12L1022.28 538.47L1021.83 538.85L1021.39 539.26L1020.98 539.69L1020.59 540.14L1020.22 540.61L1019.87 541.11L1019.55 541.62L1019.25 542.15L1018.98 542.7L1018.74 543.26L1018.52 543.84L1018.33 544.42L1018.17 545.02L1018.03 545.63L1017.93 546.24L1017.85 546.86L1017.81 547.48L1017.8 548.1L1017.81 548.72L1017.85 549.34L1017.93 549.96L1018.03 550.57L1018.17 551.18L1018.33 551.78L1018.52 552.36L1018.74 552.94L1018.98 553.5L1019.25 554.05L1019.55 554.58L1019.87 555.09L1020.22 555.59L1020.59 556.06L1020.98 556.51L1021.39 556.94L1021.83 557.35L1022.28 557.73L1022.75 558.08L1023.24 558.41L1023.74 558.7L1024.25 558.97L1024.78 559.21L1025.31 559.42L1025.86 559.59L1026.41 559.74L1026.97 559.85L1027.54 559.93L1028.11 559.98L1028.68 560L1029.24 559.98L1029.81 559.93L1030.38 559.85L1030.94 559.74L1031.49 559.59L1032.04 559.42L1032.57 559.21L1033.1 558.97L1033.61 558.7L1034.12 558.41L1034.6 558.08L1035.07 557.73L1035.52 557.35L1035.96 556.94L1036.37 556.51L1036.76 556.06L1037.13 555.59L1037.48 555.09L1037.8 554.58L1038.1 554.05L1038.37 553.5L1038.61 552.94L1038.83 552.36L1039.02 551.78L1039.18 551.18L1039.32 550.57L1039.42 549.96L1039.5 549.34L1039.54 548.72L1039.56 548.1L1037.01 548.1L1036.99 548.59L1036.96 549.08L1036.9 549.56L1036.82 550.04L1036.72 550.52L1036.6 550.99L1036.45 551.45L1036.28 551.9L1036.1 552.34L1035.89 552.78L1035.66 553.19L1035.41 553.6L1035.15 553.98L1034.87 554.36L1034.57 554.71L1034.25 555.05L1033.92 555.37L1033.57 555.66L1033.21 555.94L1032.84 556.2L1032.46 556.43L1032.06 556.64L1031.66 556.83L1031.25 556.99L1030.83 557.13L1030.41 557.25L1029.98 557.33L1029.55 557.4L1029.11 557.44L1028.68 557.45L1028.24 557.44L1027.8 557.4L1027.37 557.33L1026.94 557.25L1026.52 557.13L1026.1 556.99L1025.69 556.83L1025.29 556.64L1024.89 556.43L1024.51 556.2L1024.14 555.94L1023.78 555.66L1023.43 555.37L1023.1 555.05L1022.78 554.71L1022.48 554.36L1022.2 553.98L1021.94 553.6L1021.69 553.19L1021.46 552.78L1021.25 552.34L1021.07 551.9L1020.9 551.45L1020.75 550.99L1020.63 550.52L1020.53 550.04L1020.45 549.56L1020.39 549.08L1020.36 548.59L1020.35 548.1L1020.36 547.61L1020.39 547.12L1020.45 546.64L1020.53 546.16L1020.63 545.68L1020.75 545.21L1020.9 544.75L1021.07 544.3L1021.25 543.86L1021.46 543.42L1021.69 543.01L1021.94 542.6L1022.2 542.22L1022.48 541.84L1022.78 541.49L1023.1 541.15L1023.43 540.83L1023.78 540.54L1024.14 540.26L1024.51 540L1024.89 539.77L1025.29 539.56L1025.69 539.37L1026.1 539.21L1026.52 539.07L1026.94 538.95L1027.37 538.87L1027.8 538.8L1028.24 538.76L1028.68 538.75L1029.11 538.76L1029.55 538.8L1029.98 538.87L1030.41 538.95L1030.83 539.07L1031.25 539.21L1031.66 539.37L1032.06 539.56L1032.46 539.77L1032.84 540L1033.21 540.26L1033.57 540.54L1033.92 540.83L1034.25 541.15L1034.57 541.49L1034.87 541.84L1035.15 542.22L1035.41 542.6L1035.66 543.01L1035.89 543.42L1036.1 543.86L1036.28 544.3L1036.45 544.75L1036.6 545.21L1036.72 545.68L1036.82 546.16L1036.9 546.64L1036.96 547.12L1036.99 547.61L1037.01 548.1Z M1053.07 559.32L1053.07 529.4L1050.52 529.4L1050.52 559.32Z M1046.36 537.48L1058.6 537.48L1058.6 534.92L1046.36 534.92Z M1051.8 560.6L1057.24 560.6L1057.24 558.04L1051.8 558.04Z M1089.11 559.32L1089.11 529.4L1086.56 529.4L1086.56 559.32Z M1082.4 537.48L1094.64 537.48L1094.64 534.92L1082.4 534.92Z M1087.84 560.6L1093.28 560.6L1093.28 558.04L1087.84 558.04Z M1102.63 560L1102.63 527.36L1100.08 527.36L1100.08 560Z M1120.47 560L1120.47 545.13L1117.93 545.13L1117.93 560Z M1102.63 545.13L1102.64 544.72L1102.67 544.33L1102.72 543.93L1102.79 543.53L1102.89 543.15L1103 542.76L1103.13 542.38L1103.29 542.01L1103.46 541.65L1103.65 541.3L1103.86 540.96L1104.09 540.63L1104.33 540.31L1104.59 540.01L1104.87 539.72L1105.16 539.44L1105.46 539.18L1105.78 538.94L1106.11 538.71L1106.45 538.5L1106.8 538.31L1107.16 538.14L1107.53 537.98L1107.91 537.85L1108.3 537.74L1108.68 537.64L1109.08 537.57L1109.48 537.52L1109.87 537.49L1110.28 537.48L1110.68 537.49L1111.07 537.52L1111.47 537.57L1111.87 537.64L1112.25 537.74L1112.64 537.85L1113.02 537.98L1113.39 538.14L1113.75 538.31L1114.1 538.5L1114.44 538.71L1114.77 538.94L1115.09 539.18L1115.39 539.44L1115.68 539.72L1115.96 540.01L1116.22 540.31L1116.46 540.63L1116.69 540.96L1116.9 541.3L1117.09 541.65L1117.26 542.01L1117.42 542.38L1117.55 542.76L1117.66 543.15L1117.76 543.53L1117.83 543.93L1117.88 544.33L1117.91 544.72L1117.93 545.13L1120.47 545.13L1120.46 544.59L1120.42 544.06L1120.35 543.53L1120.25 543L1120.13 542.49L1119.98 541.97L1119.8 541.47L1119.59 540.98L1119.36 540.49L1119.11 540.03L1118.83 539.57L1118.53 539.13L1118.2 538.71L1117.86 538.3L1117.49 537.91L1117.1 537.54L1116.69 537.2L1116.27 536.87L1115.83 536.57L1115.38 536.29L1114.91 536.04L1114.42 535.81L1113.93 535.6L1113.43 535.42L1112.91 535.27L1112.4 535.15L1111.87 535.05L1111.34 534.98L1110.81 534.94L1110.28 534.92L1109.74 534.94L1109.21 534.98L1108.68 535.05L1108.15 535.15L1107.64 535.27L1107.12 535.42L1106.62 535.6L1106.13 535.81L1105.64 536.04L1105.18 536.29L1104.72 536.57L1104.28 536.87L1103.86 537.2L1103.45 537.54L1103.06 537.91L1102.69 538.3L1102.35 538.71L1102.02 539.13L1101.72 539.57L1101.44 540.03L1101.19 540.49L1100.96 540.98L1100.75 541.47L1100.57 541.97L1100.42 542.49L1100.3 543L1100.2 543.53L1100.13 544.06L1100.09 544.59L1100.08 545.13Z M1146.32 548.1L1146.3 547.48L1146.26 546.86L1146.19 546.24L1146.09 545.63L1145.97 545.02L1145.82 544.42L1145.64 543.84L1145.43 543.26L1145.2 542.7L1144.95 542.15L1144.67 541.62L1144.37 541.11L1144.04 540.61L1143.7 540.14L1143.33 539.69L1142.94 539.26L1142.53 538.85L1142.11 538.47L1141.67 538.12L1141.21 537.79L1140.75 537.5L1140.26 537.23L1139.77 536.99L1139.27 536.78L1138.75 536.61L1138.24 536.46L1137.71 536.35L1137.18 536.27L1136.65 536.22L1136.12 536.2L1135.58 536.22L1135.05 536.27L1134.52 536.35L1133.99 536.46L1133.48 536.61L1132.96 536.78L1132.46 536.99L1131.97 537.23L1131.48 537.5L1131.01 537.79L1130.56 538.12L1130.12 538.47L1129.7 538.85L1129.29 539.26L1128.9 539.69L1128.53 540.14L1128.19 540.61L1127.86 541.11L1127.56 541.62L1127.28 542.15L1127.03 542.7L1126.8 543.26L1126.59 543.84L1126.41 544.42L1126.26 545.02L1126.14 545.63L1126.04 546.24L1125.97 546.86L1125.93 547.48L1125.92 548.1L1125.93 548.72L1125.97 549.34L1126.04 549.96L1126.14 550.57L1126.26 551.18L1126.41 551.78L1126.59 552.36L1126.8 552.94L1127.03 553.5L1127.28 554.05L1127.56 554.58L1127.86 555.09L1128.19 555.59L1128.53 556.06L1128.9 556.51L1129.29 556.94L1129.7 557.35L1130.12 557.73L1130.56 558.08L1131.01 558.41L1131.48 558.7L1131.97 558.97L1132.46 559.21L1132.96 559.42L1133.48 559.59L1133.99 559.74L1134.52 559.85L1135.05 559.93L1135.58 559.98L1136.12 560L1136.65 559.98L1137.18 559.93L1137.71 559.85L1138.24 559.74L1138.75 559.59L1139.27 559.42L1139.77 559.21L1140.26 558.97L1140.75 558.7L1141.21 558.41L1141.67 558.08L1142.11 557.73L1142.53 557.35L1142.94 556.94L1143.33 556.51L1143.7 556.06L1144.04 555.59L1144.37 555.09L1144.67 554.58L1144.95 554.05L1145.2 553.5L1145.43 552.94L1145.64 552.36L1145.82 551.78L1145.97 551.18L1146.09 550.57L1146.19 549.96L1146.26 549.34L1146.3 548.72L1146.32 548.1L1143.76 548.1L1143.75 548.59L1143.72 549.08L1143.67 549.56L1143.6 550.04L1143.5 550.52L1143.39 550.99L1143.26 551.45L1143.1 551.9L1142.93 552.34L1142.74 552.78L1142.53 553.19L1142.3 553.6L1142.06 553.98L1141.8 554.36L1141.52 554.71L1141.23 555.05L1140.93 555.37L1140.61 555.66L1140.28 555.94L1139.94 556.2L1139.59 556.43L1139.23 556.64L1138.86 556.83L1138.48 556.99L1138.09 557.13L1137.71 557.25L1137.31 557.33L1136.91 557.4L1136.52 557.44L1136.12 557.45L1135.71 557.44L1135.32 557.4L1134.92 557.33L1134.52 557.25L1134.14 557.13L1133.75 556.99L1133.37 556.83L1133 556.64L1132.64 556.43L1132.29 556.2L1131.95 555.94L1131.62 555.66L1131.3 555.37L1131 555.05L1130.71 554.71L1130.43 554.36L1130.17 553.98L1129.93 553.6L1129.7 553.19L1129.49 552.78L1129.3 552.34L1129.13 551.9L1128.97 551.45L1128.84 550.99L1128.73 550.52L1128.63 550.04L1128.56 549.56L1128.51 549.08L1128.48 548.59L1128.46 548.1L1128.48 547.61L1128.51 547.12L1128.56 546.64L1128.63 546.16L1128.73 545.68L1128.84 545.21L1128.97 544.75L1129.13 544.3L1129.3 543.86L1129.49 543.42L1129.7 543.01L1129.93 542.6L1130.17 542.22L1130.43 541.84L1130.71 541.49L1131 541.15L1131.3 540.83L1131.62 540.54L1131.95 540.26L1132.29 540L1132.64 539.77L1133 539.56L1133.37 539.37L1133.75 539.21L1134.14 539.07L1134.52 538.95L1134.92 538.87L1135.32 538.8L1135.71 538.76L1136.12 538.75L1136.52 538.76L1136.91 538.8L1137.31 538.87L1137.71 538.95L1138.09 539.07L1138.48 539.21L1138.86 539.37L1139.23 539.56L1139.59 539.77L1139.94 540L1140.28 540.26L1140.61 540.54L1140.93 540.83L1141.23 541.15L1141.52 541.49L1141.8 541.84L1142.06 542.22L1142.3 542.6L1142.53 543.01L1142.74 543.42L1142.93 543.86L1143.1 544.3L1143.26 544.75L1143.39 545.21L1143.5 545.68L1143.6 546.16L1143.67 546.64L1143.72 547.12L1143.75 547.61L1143.76 548.1Z M1146.32 560L1146.32 536.2L1143.76 536.2L1143.76 560Z M1154.31 560L1154.31 536.2L1151.76 536.2L1151.76 560Z M1172.16 560L1172.16 545.13L1169.61 545.13L1169.61 560Z M1154.31 545.13L1154.32 544.72L1154.35 544.33L1154.4 543.93L1154.47 543.53L1154.57 543.15L1154.68 542.76L1154.81 542.38L1154.97 542.01L1155.14 541.65L1155.33 541.3L1155.54 540.96L1155.77 540.63L1156.01 540.31L1156.27 540.01L1156.55 539.72L1156.84 539.44L1157.14 539.18L1157.46 538.94L1157.79 538.71L1158.13 538.5L1158.48 538.31L1158.84 538.14L1159.21 537.98L1159.59 537.85L1159.98 537.74L1160.36 537.64L1160.76 537.57L1161.16 537.52L1161.55 537.49L1161.96 537.48L1162.36 537.49L1162.75 537.52L1163.15 537.57L1163.55 537.64L1163.93 537.74L1164.32 537.85L1164.7 537.98L1165.07 538.14L1165.43 538.31L1165.78 538.5L1166.12 538.71L1166.45 538.94L1166.77 539.18L1167.07 539.44L1167.36 539.72L1167.64 540.01L1167.9 540.31L1168.14 540.63L1168.37 540.96L1168.58 541.3L1168.77 541.65L1168.94 542.01L1169.1 542.38L1169.23 542.76L1169.34 543.15L1169.44 543.53L1169.51 543.93L1169.56 544.33L1169.59 544.72L1169.61 545.13L1172.16 545.13L1172.14 544.59L1172.1 544.06L1172.03 543.53L1171.93 543L1171.81 542.49L1171.66 541.97L1171.48 541.47L1171.27 540.98L1171.04 540.49L1170.79 540.03L1170.51 539.57L1170.21 539.13L1169.88 538.71L1169.54 538.3L1169.17 537.91L1168.78 537.54L1168.37 537.2L1167.95 536.87L1167.51 536.57L1167.06 536.29L1166.59 536.04L1166.1 535.81L1165.61 535.6L1165.11 535.42L1164.59 535.27L1164.08 535.15L1163.55 535.05L1163.02 534.98L1162.49 534.94L1161.96 534.92L1161.42 534.94L1160.89 534.98L1160.36 535.05L1159.83 535.15L1159.32 535.27L1158.8 535.42L1158.3 535.6L1157.81 535.81L1157.32 536.04L1156.86 536.29L1156.4 536.57L1155.96 536.87L1155.54 537.2L1155.13 537.54L1154.74 537.91L1154.37 538.3L1154.03 538.71L1153.7 539.13L1153.4 539.57L1153.12 540.03L1152.87 540.49L1152.64 540.98L1152.43 541.47L1152.25 541.97L1152.1 542.49L1151.98 543L1151.88 543.53L1151.81 544.06L1151.77 544.59L1151.76 545.13Z M1180.15 560L1180.15 527.36L1177.6 527.36L1177.6 560Z M1179.69 550.98L1196.18 537.18L1194.54 535.22L1178.05 549.03Z M1179.2 551.07L1194.67 561.07L1196.05 558.93L1180.58 548.93Z M1222.48 548.1L1222.46 547.48L1222.42 546.86L1222.35 546.24L1222.25 545.63L1222.13 545.03L1221.98 544.43L1221.8 543.85L1221.6 543.27L1221.37 542.71L1221.12 542.17L1220.84 541.64L1220.54 541.12L1220.22 540.63L1219.87 540.16L1219.51 539.71L1219.12 539.28L1218.72 538.87L1218.29 538.49L1217.86 538.14L1217.4 537.81L1216.94 537.52L1216.46 537.25L1215.97 537.01L1215.46 536.8L1214.96 536.62L1214.44 536.47L1213.91 536.35L1213.39 536.27L1212.86 536.22L1212.32 536.2L1211.79 536.21L1211.26 536.26L1210.73 536.34L1210.21 536.45L1209.69 536.59L1209.18 536.76L1208.68 536.96L1208.18 537.2L1207.7 537.46L1207.23 537.76L1206.78 538.08L1206.34 538.43L1205.91 538.8L1205.5 539.2L1205.12 539.62L1204.75 540.07L1204.4 540.54L1204.07 541.03L1203.77 541.54L1203.48 542.07L1203.23 542.61L1202.99 543.17L1202.78 543.74L1202.6 544.32L1202.45 544.92L1202.32 545.52L1202.22 546.13L1202.14 546.74L1202.09 547.36L1202.08 547.98L1202.08 548.6L1202.12 549.22L1202.18 549.84L1202.28 550.45L1202.4 551.06L1202.54 551.66L1202.71 552.24L1202.91 552.82L1203.14 553.38L1203.38 553.93L1203.66 554.47L1203.95 554.98L1204.27 555.48L1204.61 555.96L1204.97 556.41L1205.36 556.84L1205.76 557.25L1206.18 557.64L1206.61 558L1207.06 558.33L1207.52 558.63L1208 558.91L1208.49 559.15L1208.99 559.37L1209.5 559.55L1210.01 559.7L1210.54 559.83L1211.06 559.92L1211.59 559.97L1212.13 560L1212.66 559.99L1213.19 559.95L1213.72 559.88L1214.24 559.78L1214.76 559.64L1215.27 559.47L1215.78 559.28L1216.27 559.05L1216.76 558.79L1217.23 558.5L1217.69 558.19L1218.13 557.84L1218.56 557.47L1218.97 557.08L1219.36 556.66L1219.74 556.21L1220.09 555.75L1218.14 554.11L1217.87 554.48L1217.59 554.82L1217.3 555.15L1216.99 555.46L1216.67 555.75L1216.34 556.02L1215.99 556.27L1215.64 556.5L1215.27 556.7L1214.9 556.88L1214.52 557.04L1214.14 557.17L1213.75 557.27L1213.36 557.36L1212.96 557.41L1212.56 557.44L1212.16 557.45L1211.76 557.43L1211.37 557.38L1210.97 557.31L1210.58 557.22L1210.19 557.1L1209.81 556.95L1209.44 556.78L1209.07 556.59L1208.71 556.37L1208.36 556.14L1208.03 555.88L1207.7 555.59L1207.39 555.29L1207.09 554.97L1206.8 554.63L1206.53 554.27L1206.27 553.9L1206.03 553.51L1205.81 553.1L1205.61 552.68L1205.42 552.25L1205.25 551.81L1205.1 551.36L1204.97 550.89L1204.87 550.42L1204.78 549.95L1204.71 549.47L1204.66 548.98L1204.63 548.5L1204.63 548.01L1204.64 547.52L1204.67 547.03L1204.73 546.55L1204.81 546.07L1204.9 545.6L1205.02 545.13L1205.16 544.67L1205.31 544.22L1205.49 543.79L1205.68 543.36L1205.89 542.95L1206.12 542.55L1206.37 542.16L1206.63 541.79L1206.91 541.44L1207.2 541.11L1207.5 540.79L1207.82 540.5L1208.15 540.22L1208.49 539.97L1208.85 539.74L1209.21 539.53L1209.58 539.35L1209.95 539.19L1210.34 539.05L1210.73 538.94L1211.12 538.86L1211.52 538.8L1211.91 538.76L1212.31 538.75L1212.71 538.77L1213.11 538.81L1213.5 538.87L1213.9 538.96L1214.29 539.08L1214.67 539.22L1215.04 539.38L1215.41 539.57L1215.77 539.78L1216.12 540.02L1216.46 540.27L1216.79 540.55L1217.11 540.85L1217.41 541.17L1217.7 541.5L1217.97 541.86L1218.23 542.23L1218.47 542.62L1218.7 543.02L1218.91 543.44L1219.1 543.87L1219.27 544.31L1219.42 544.76L1219.55 545.22L1219.67 545.69L1219.76 546.16L1219.83 546.64L1219.88 547.13L1219.91 547.61L1219.93 548.1Z M1203.35 549.38L1221.2 549.38L1221.2 546.83L1203.35 546.83Z M1247.13 548.1L1247.11 547.48L1247.07 546.86L1247.01 546.24L1246.92 545.63L1246.8 545.02L1246.65 544.42L1246.49 543.84L1246.29 543.26L1246.08 542.7L1245.84 542.15L1245.58 541.62L1245.29 541.11L1244.98 540.61L1244.66 540.14L1244.31 539.69L1243.95 539.26L1243.56 538.85L1243.17 538.47L1242.75 538.12L1242.32 537.79L1241.88 537.5L1241.43 537.23L1240.96 536.99L1240.49 536.78L1240.01 536.61L1239.52 536.46L1239.02 536.35L1238.52 536.27L1238.02 536.22L1237.52 536.2L1237.02 536.22L1236.52 536.27L1236.02 536.35L1235.52 536.46L1235.03 536.61L1234.55 536.78L1234.08 536.99L1233.61 537.23L1233.16 537.5L1232.72 537.79L1232.29 538.12L1231.87 538.47L1231.48 538.85L1231.09 539.26L1230.73 539.69L1230.38 540.14L1230.06 540.61L1229.75 541.11L1229.46 541.62L1229.2 542.15L1228.96 542.7L1228.75 543.26L1228.55 543.84L1228.39 544.42L1228.24 545.02L1228.12 545.63L1228.03 546.24L1227.97 546.86L1227.93 547.48L1227.92 548.1L1227.93 548.72L1227.97 549.34L1228.03 549.96L1228.12 550.57L1228.24 551.18L1228.39 551.78L1228.55 552.36L1228.75 552.94L1228.96 553.5L1229.2 554.05L1229.46 554.58L1229.75 555.09L1230.06 555.59L1230.38 556.06L1230.73 556.51L1231.09 556.94L1231.48 557.35L1231.87 557.73L1232.29 558.08L1232.72 558.41L1233.16 558.7L1233.61 558.97L1234.08 559.21L1234.55 559.42L1235.03 559.59L1235.52 559.74L1236.02 559.85L1236.52 559.93L1237.02 559.98L1237.52 560L1238.02 559.98L1238.52 559.93L1239.02 559.85L1239.52 559.74L1240.01 559.59L1240.49 559.42L1240.96 559.21L1241.43 558.97L1241.88 558.7L1242.32 558.41L1242.75 558.08L1243.17 557.73L1243.56 557.35L1243.95 556.94L1244.31 556.51L1244.66 556.06L1244.98 555.59L1245.29 555.09L1245.58 554.58L1245.84 554.05L1246.08 553.5L1246.29 552.94L1246.49 552.36L1246.65 551.78L1246.8 551.18L1246.92 550.57L1247.01 549.96L1247.07 549.34L1247.11 548.72L1247.13 548.1L1244.58 548.1L1244.57 548.59L1244.54 549.08L1244.49 549.56L1244.42 550.04L1244.33 550.52L1244.23 550.99L1244.11 551.45L1243.97 551.9L1243.81 552.34L1243.63 552.78L1243.44 553.19L1243.23 553.6L1243 553.98L1242.76 554.36L1242.51 554.71L1242.24 555.05L1241.96 555.37L1241.67 555.66L1241.36 555.94L1241.05 556.2L1240.72 556.43L1240.39 556.64L1240.05 556.83L1239.7 556.99L1239.35 557.13L1238.99 557.25L1238.62 557.33L1238.26 557.4L1237.89 557.44L1237.52 557.45L1237.15 557.44L1236.78 557.4L1236.42 557.33L1236.05 557.25L1235.69 557.13L1235.34 556.99L1234.99 556.83L1234.65 556.64L1234.32 556.43L1233.99 556.2L1233.68 555.94L1233.37 555.66L1233.08 555.37L1232.8 555.05L1232.53 554.71L1232.28 554.36L1232.04 553.98L1231.81 553.6L1231.6 553.19L1231.41 552.78L1231.23 552.34L1231.07 551.9L1230.93 551.45L1230.81 550.99L1230.71 550.52L1230.62 550.04L1230.55 549.56L1230.5 549.08L1230.47 548.59L1230.47 548.1L1230.47 547.61L1230.5 547.12L1230.55 546.64L1230.62 546.16L1230.71 545.68L1230.81 545.21L1230.93 544.75L1231.07 544.3L1231.23 543.86L1231.41 543.42L1231.6 543.01L1231.81 542.6L1232.04 542.22L1232.28 541.84L1232.53 541.49L1232.8 541.15L1233.08 540.83L1233.37 540.54L1233.68 540.26L1233.99 540L1234.32 539.77L1234.65 539.56L1234.99 539.37L1235.34 539.21L1235.69 539.07L1236.05 538.95L1236.42 538.87L1236.78 538.8L1237.15 538.76L1237.52 538.75L1237.89 538.76L1238.26 538.8L1238.62 538.87L1238.99 538.95L1239.35 539.07L1239.7 539.21L1240.05 539.37L1240.39 539.56L1240.72 539.77L1241.05 540L1241.36 540.26L1241.67 540.54L1241.96 540.83L1242.24 541.15L1242.51 541.49L1242.76 541.84L1243 542.22L1243.23 542.6L1243.44 543.01L1243.63 543.42L1243.81 543.86L1243.97 544.3L1244.11 544.75L1244.23 545.21L1244.33 545.68L1244.42 546.16L1244.49 546.64L1244.54 547.12L1244.57 547.61L1244.58 548.1Z M1249.68 560L1249.68 527.36L1247.13 527.36L1247.13 560Z" fill="#ededed" fill-rule="nonzero"/>
</svg>
