<svg xmlns="http://www.w3.org/2000/svg" width="1080" height="1080" viewBox="0 0 1080 1080">
  <rect width="1080" height="1080" fill="#0a0a0a"/>
  <defs><filter id="glow" x="-200%" y="-200%" width="500%" height="500%"><feGaussianBlur stdDeviation="18.21"/></filter></defs>
    <g>
      <rect x="415.15" y="612.31" width="249.70" height="7.80" rx="3.90" fill="#ff2d2d" opacity="0.75" filter="url(#glow)"/>
      <rect x="415.15" y="612.31" width="249.70" height="7.80" rx="3.90" fill="#ff2d2d"/>
    </g>
  <g>
    <path d="M30.588 0L2.809 0L42.761-110.804L74.286-110.804L114.238 0L86.303 0L79.124-20.912L37.923-20.912L30.588 0M58.679-81.465L45.258-42.449L71.789-42.449" fill="#ededed" transform="translate(216.25 570.69)"/>
    <path d="M179.784 0L152.629 0L152.629-110.804L179.784-110.804" fill="#ededed" transform="translate(216.25 570.69)"/>
    <path d="M253.133 0L225.978 0L225.978-110.804L276.699-110.804Q289.028-110.804 298.157-106.747Q307.287-102.689 312.281-95.276Q317.275-87.863 317.275-77.875Q317.275-70.072 314.154-64.142Q311.032-58.211 305.492-54.388Q299.952-50.564 292.305-49.316L291.837-50.876Q303.229-50.876 309.082-46.038Q314.934-41.200 315.558-31.525L318.211 0L290.432 0L288.715-26.999Q288.247-33.241 285.048-36.206Q281.849-39.172 273.890-39.172L253.133-39.172L253.133 0M253.133-88.643L253.133-61.333L272.485-61.333Q280.756-61.333 285.126-64.922Q289.496-68.511 289.496-75.066Q289.496-81.777 285.048-85.210Q280.600-88.643 272.173-88.643" fill="#ededed" transform="translate(216.25 570.69)"/>
    <path d="M441.969 0L361.128 0L361.128-110.804L440.720-110.804L440.720-88.643L388.283-88.643L388.283-66.639L438.848-66.639L438.848-44.478L388.283-44.478L388.283-22.161L441.969-22.161" fill="#ededed" transform="translate(216.25 570.69)"/>
    <path d="M524.526 0L484.106 0L484.106-110.804L523.589-110.804Q551.056-110.804 565.804-96.369Q580.552-81.933 580.552-55.246Q580.552-28.715 566.038-14.358Q551.525 0 524.526 0M511.261-88.643L511.261-22.161L523.589-22.161Q538.571-22.161 545.594-30.276Q552.617-38.391 552.617-55.402Q552.617-72.413 545.594-80.528Q538.571-88.643 523.589-88.643" fill="#ededed" transform="translate(216.25 570.69)"/>
    <path d="M644.694 0L616.603 0L616.603-26.062L644.694-26.062" fill="#ff2d2d" transform="translate(216.25 570.69)"/>
  </g>
  
</svg>