<svg xmlns="http://www.w3.org/2000/svg" width="1640" height="856" viewBox="0 0 1640 856">
  <defs>
    <!-- metal face: bright top → base #ededed → shadow lower third -->
    <linearGradient id="metal" x1="0" y1="0" x2="0" y2="1">
      <stop offset="0" stop-color="#f5f5f5"/>
      <stop offset="0.14" stop-color="#ededed"/>
      <stop offset="0.46" stop-color="#c2c2c2"/>
      <stop offset="0.66" stop-color="#7d7d7d"/>
      <stop offset="1" stop-color="#6a6a6a"/>
    </linearGradient>
    <!-- red lacquer: sheen top → signal red → deep bottom -->
    <linearGradient id="redLacquer" x1="0" y1="0" x2="0" y2="1">
      <stop offset="0" stop-color="#ff3a30"/>
      <stop offset="0.5" stop-color="#e10600"/>
      <stop offset="1" stop-color="#b00500"/>
    </linearGradient>
    <linearGradient id="redSheen" x1="0" y1="0" x2="0" y2="1">
      <stop offset="0" stop-color="#ffffff" stop-opacity="0.4"/>
      <stop offset="1" stop-color="#ffffff" stop-opacity="0"/>
    </linearGradient>
    <!-- bronze inlay -->
    <linearGradient id="bronze" x1="0" y1="0" x2="0" y2="1">
      <stop offset="0" stop-color="#d9b87a"/>
      <stop offset="0.5" stop-color="#a8814a"/>
      <stop offset="1" stop-color="#7a5c2e"/>
    </linearGradient>
    <!-- silver serif -->
    <linearGradient id="silver" x1="0" y1="0" x2="0" y2="1">
      <stop offset="0" stop-color="#f2f2f2"/>
      <stop offset="1" stop-color="#9a9a9a"/>
    </linearGradient>
    <!-- soft spotlight behind the mark (light only, no new hue) -->
    <radialGradient id="spot" cx="0.5" cy="0.42" r="0.62">
      <stop offset="0" stop-color="#ffffff" stop-opacity="0.05"/>
      <stop offset="1" stop-color="#ffffff" stop-opacity="0"/>
    </radialGradient>
    <!-- brushed-steel striations (very fine horizontal lines) -->
    <pattern id="brushed" patternUnits="userSpaceOnUse" width="6" height="5">
      <rect width="6" height="1" fill="#ffffff"/>
    </pattern>
    <filter id="redGlow_c" x="-50%" y="-300%" width="200%" height="700%">
      <feGaussianBlur stdDeviation="18.831999999999997"/>
    </filter>
  </defs>
    <rect width="1640" height="856" fill="#0a0a0a"/>
    <rect width="1640" height="856" fill="url(#spot)"/>
    
  <g opacity="0.32">
    <!-- faint highlight edge (drawn first, sits just above) -->
    <circle cx="820" cy="349.6087134649013" r="284.88" fill="none" stroke="#efe0bb" stroke-width="4.264" transform="translate(0 -0.6)" opacity="0.3"/>
    <circle cx="820" cy="349.6087134649013" r="333.84" fill="none" stroke="#efe0bb" stroke-width="3.4112000000000005" transform="translate(0 -0.6)" opacity="0.22"/>
    <polygon points="820.00,127.05 1012.74,460.89 627.26,460.89" fill="none" stroke="#efe0bb" stroke-width="4.264" stroke-linejoin="round" transform="translate(0 -0.6)" opacity="0.28"/>
    <polygon points="820.00,572.17 627.26,238.33 1012.74,238.33" fill="none" stroke="#efe0bb" stroke-width="4.264" stroke-linejoin="round" transform="translate(0 -0.6)" opacity="0.28"/>
    <!-- bronze inlay -->
    <circle cx="820" cy="349.6087134649013" r="284.88" fill="none" stroke="url(#bronze)" stroke-width="4.264" transform="translate(0 0)" opacity="1"/>
    <circle cx="820" cy="349.6087134649013" r="333.84" fill="none" stroke="url(#bronze)" stroke-width="3.4112000000000005" transform="translate(0 0)" opacity="1"/>
    <polygon points="820.00,127.05 1012.74,460.89 627.26,460.89" fill="none" stroke="url(#bronze)" stroke-width="4.264" stroke-linejoin="round" transform="translate(0 0)" opacity="1"/>
    <polygon points="820.00,572.17 627.26,238.33 1012.74,238.33" fill="none" stroke="url(#bronze)" stroke-width="4.264" stroke-linejoin="round" transform="translate(0 0)" opacity="1"/>
    <circle cx="820" cy="349.6087134649013" r="5.97" fill="url(#bronze)"/>
  </g>
    
  <g transform="translate(475.60 401.64)">
    <path d="M32.349 0L-2.409 0L50.761-120.450L84.315-120.450L137.657 0L102.210 0L92.746-23.402L41.813-23.402L32.349 0M67.280-87.068L51.793-48.524L82.766-48.524L67.280-87.068M208.894 0L174.824 0L174.824-120.450L208.894-120.450L208.894 0M294.758 0L260.687 0L260.687-120.450L314.546-120.450Q341.045-120.450 355.154-108.491Q369.264-96.532 369.264-75.883Q369.264-62.634 363.070-52.912Q356.875-43.190 345.518-37.856L371.673 0L335.194 0L313.341-32.005L294.758-32.005L294.758 0M294.758-93.607L294.758-58.332L313.685-58.332Q324.354-58.332 329.602-62.978Q334.850-67.624 334.850-75.883Q334.850-84.315 329.602-88.961Q324.354-93.607 313.685-93.607L294.758-93.607M512.255 0L415.551 0L415.551-120.450L510.018-120.450L510.018-94.123L449.277-94.123L449.277-73.818L502.791-73.818L502.791-48.352L449.277-48.352L449.277-26.327L512.255-26.327L512.255 0M615.670 0L558.714 0L558.714-120.450L615.670-120.450Q635.630-120.450 650.772-113.051Q665.915-105.652 674.432-92.144Q682.950-78.636 682.950-60.225Q682.950-41.813 674.432-28.306Q665.915-14.798 650.772-7.399Q635.630 0 615.670 0M592.784-93.262L592.784-27.187L614.293-27.187Q629.608-27.187 639.071-35.963Q648.535-44.738 648.535-60.225Q648.535-75.711 639.071-84.487Q629.608-93.262 614.293-93.262" fill="#050505" transform="translate(0 3.4414189357981515)"/>
    <path d="M32.349 0L-2.409 0L50.761-120.450L84.315-120.450L137.657 0L102.210 0L92.746-23.402L41.813-23.402L32.349 0M67.280-87.068L51.793-48.524L82.766-48.524L67.280-87.068M208.894 0L174.824 0L174.824-120.450L208.894-120.450L208.894 0M294.758 0L260.687 0L260.687-120.450L314.546-120.450Q341.045-120.450 355.154-108.491Q369.264-96.532 369.264-75.883Q369.264-62.634 363.070-52.912Q356.875-43.190 345.518-37.856L371.673 0L335.194 0L313.341-32.005L294.758-32.005L294.758 0M294.758-93.607L294.758-58.332L313.685-58.332Q324.354-58.332 329.602-62.978Q334.850-67.624 334.850-75.883Q334.850-84.315 329.602-88.961Q324.354-93.607 313.685-93.607L294.758-93.607M512.255 0L415.551 0L415.551-120.450L510.018-120.450L510.018-94.123L449.277-94.123L449.277-73.818L502.791-73.818L502.791-48.352L449.277-48.352L449.277-26.327L512.255-26.327L512.255 0M615.670 0L558.714 0L558.714-120.450L615.670-120.450Q635.630-120.450 650.772-113.051Q665.915-105.652 674.432-92.144Q682.950-78.636 682.950-60.225Q682.950-41.813 674.432-28.306Q665.915-14.798 650.772-7.399Q635.630 0 615.670 0M592.784-93.262L592.784-27.187L614.293-27.187Q629.608-27.187 639.071-35.963Q648.535-44.738 648.535-60.225Q648.535-75.711 639.071-84.487Q629.608-93.262 614.293-93.262" fill="#fbfbfb" transform="translate(0 -2.064851361478891)"/>
    <path d="M32.349 0L-2.409 0L50.761-120.450L84.315-120.450L137.657 0L102.210 0L92.746-23.402L41.813-23.402L32.349 0M67.280-87.068L51.793-48.524L82.766-48.524L67.280-87.068M208.894 0L174.824 0L174.824-120.450L208.894-120.450L208.894 0M294.758 0L260.687 0L260.687-120.450L314.546-120.450Q341.045-120.450 355.154-108.491Q369.264-96.532 369.264-75.883Q369.264-62.634 363.070-52.912Q356.875-43.190 345.518-37.856L371.673 0L335.194 0L313.341-32.005L294.758-32.005L294.758 0M294.758-93.607L294.758-58.332L313.685-58.332Q324.354-58.332 329.602-62.978Q334.850-67.624 334.850-75.883Q334.850-84.315 329.602-88.961Q324.354-93.607 313.685-93.607L294.758-93.607M512.255 0L415.551 0L415.551-120.450L510.018-120.450L510.018-94.123L449.277-94.123L449.277-73.818L502.791-73.818L502.791-48.352L449.277-48.352L449.277-26.327L512.255-26.327L512.255 0M615.670 0L558.714 0L558.714-120.450L615.670-120.450Q635.630-120.450 650.772-113.051Q665.915-105.652 674.432-92.144Q682.950-78.636 682.950-60.225Q682.950-41.813 674.432-28.306Q665.915-14.798 650.772-7.399Q635.630 0 615.670 0M592.784-93.262L592.784-27.187L614.293-27.187Q629.608-27.187 639.071-35.963Q648.535-44.738 648.535-60.225Q648.535-75.711 639.071-84.487Q629.608-93.262 614.293-93.262" fill="url(#metal)"/>
    <path d="M32.349 0L-2.409 0L50.761-120.450L84.315-120.450L137.657 0L102.210 0L92.746-23.402L41.813-23.402L32.349 0M67.280-87.068L51.793-48.524L82.766-48.524L67.280-87.068M208.894 0L174.824 0L174.824-120.450L208.894-120.450L208.894 0M294.758 0L260.687 0L260.687-120.450L314.546-120.450Q341.045-120.450 355.154-108.491Q369.264-96.532 369.264-75.883Q369.264-62.634 363.070-52.912Q356.875-43.190 345.518-37.856L371.673 0L335.194 0L313.341-32.005L294.758-32.005L294.758 0M294.758-93.607L294.758-58.332L313.685-58.332Q324.354-58.332 329.602-62.978Q334.850-67.624 334.850-75.883Q334.850-84.315 329.602-88.961Q324.354-93.607 313.685-93.607L294.758-93.607M512.255 0L415.551 0L415.551-120.450L510.018-120.450L510.018-94.123L449.277-94.123L449.277-73.818L502.791-73.818L502.791-48.352L449.277-48.352L449.277-26.327L512.255-26.327L512.255 0M615.670 0L558.714 0L558.714-120.450L615.670-120.450Q635.630-120.450 650.772-113.051Q665.915-105.652 674.432-92.144Q682.950-78.636 682.950-60.225Q682.950-41.813 674.432-28.306Q665.915-14.798 650.772-7.399Q635.630 0 615.670 0M592.784-93.262L592.784-27.187L614.293-27.187Q629.608-27.187 639.071-35.963Q648.535-44.738 648.535-60.225Q648.535-75.711 639.071-84.487Q629.608-93.262 614.293-93.262" fill="url(#brushed)" opacity="0.07"/>
  </g>
    
  <defs>
    <linearGradient id="ends_c" x1="475.6" y1="0" x2="1164.4" y2="0" gradientUnits="userSpaceOnUse">
      <stop offset="0" stop-color="#000"/>
      <stop offset="0.040" stop-color="#fff"/>
      <stop offset="0.960" stop-color="#fff"/>
      <stop offset="1" stop-color="#000"/>
    </linearGradient>
    <mask id="endsMask_c" maskUnits="userSpaceOnUse" x="456.76800000000003" y="407.80915713215086" width="726.4639999999999" height="56.495999999999995">
      <rect x="456.76800000000003" y="407.80915713215086" width="726.4639999999999" height="56.495999999999995" fill="url(#ends_c)"/>
    </mask>
  </defs>
  <!-- luminous glow, fading at the tips -->
  <g mask="url(#endsMask_c)">
    <rect x="475.6" y="426.64115713215085" width="688.8" height="18.831999999999997" rx="9.415999999999999" fill="#e10600" filter="url(#redGlow_c)" opacity="0.7"/>
    <!-- lacquer body -->
    <rect x="475.6" y="426.64115713215085" width="688.8" height="18.831999999999997" rx="9.415999999999999" fill="url(#redLacquer)"/>
    <!-- glassy top sheen -->
    <rect x="475.6" y="426.64115713215085" width="688.8" height="9.42" rx="9.415999999999999" fill="url(#redSheen)"/>
  </g>
    
  <g transform="translate(492.00 573.0171571321508)">
    <path d="M1.033 0.207Q0.537 0.207 0.207 0.062Q-0.124-0.083-0.124-0.372Q-0.124-0.909 1.115-1.322Q2.231-1.652 3.139-2.313Q4.048-2.974 4.626-4.337Q6.113-7.724 7.332-10.699Q8.551-13.673 9.707-16.709Q10.864-19.745 12.144-23.339Q12.516-24.289 12.681-24.929Q12.847-25.569 12.888-26.065Q13.425-26.189 13.879-26.333Q14.334-26.478 14.871-26.767Q15.366-27.015 15.635-27.469Q15.903-27.924 16.069-28.172Q16.316-28.337 16.440-28.089Q16.564-27.882 16.626-27.635Q16.688-27.387 16.771-27.098Q17.721-24.082 18.733-20.963Q19.745-17.845 20.736-14.891Q21.728-11.938 22.595-9.377Q23.463-6.816 24.082-4.916Q24.784-2.892 25.776-2.189Q26.767-1.487 28.006-1.239Q29.246-0.991 29.246-0.289Q29.246-0.041 28.936 0.062Q28.626 0.165 28.172 0.165Q27.511 0.165 26.437 0.103Q25.363 0.041 24.185 0Q23.008-0.041 22.099-0.041Q20.860-0.041 19.435 0Q18.010 0.041 17.101 0.041Q16.606 0.041 16.296-0.103Q15.986-0.248 15.986-0.496Q15.986-0.785 16.358-1.012Q16.729-1.239 17.225-1.322Q19.993-1.818 19.786-3.387Q19.745-4.048 19.497-5.122Q19.249-6.196 18.919-7.373Q18.588-8.551 18.299-9.542Q18.134-10.038 17.308-10.038L9.666-10.038Q9.212-10.038 8.964-9.335Q8.757-8.716 8.406-7.580Q8.055-6.444 7.745-5.370Q7.435-4.296 7.394-3.842Q7.270-2.850 7.910-2.231Q8.551-1.611 9.831-1.281Q11.070-0.991 11.070-0.454Q11.070 0.041 9.955 0.041Q9.170 0.041 8.138 0Q7.105-0.041 5.948-0.041Q4.626-0.041 3.387 0.083Q2.148 0.207 1.033 0.207M10.822-11.731L16.853-11.731Q17.432-11.731 17.432-11.938Q17.432-12.020 17.411-12.124Q17.390-12.227 17.349-12.392L14.292-22.182Q14.086-22.843 13.962-22.843Q13.879-22.843 13.673-22.223L10.079-12.392Q9.996-12.144 9.996-12.062Q9.996-11.731 10.822-11.731M31.228 0.165Q30.774 0.165 30.464 0.041Q30.154-0.083 30.154-0.330Q30.154-0.867 31.352-1.115Q32.881-1.404 33.645-2.024Q34.409-2.644 34.409-4.048L34.409-22.719Q34.409-24.165 33.831-24.743Q33.252-25.321 31.683-25.652Q30.485-25.858 30.485-26.478Q30.485-26.767 30.795-26.891Q31.104-27.015 31.517-27.015Q33.128-27.015 34.264-26.932Q35.400-26.850 36.763-26.850Q38.044-26.850 39.139-26.912Q40.233-26.974 41.803-26.974Q42.877-26.974 42.877-26.478Q42.877-25.900 41.679-25.652Q40.068-25.321 39.428-24.722Q38.787-24.123 38.787-22.719L38.787-4.048Q38.787-2.685 39.552-2.065Q40.316-1.446 41.886-1.115Q43.083-0.867 43.083-0.330Q43.083 0.165 42.051 0.165Q40.481 0.165 39.304 0.062Q38.127-0.041 36.763-0.041Q35.318-0.041 34.058 0.062Q32.798 0.165 31.228 0.165M45.644-6.940Q45.355-6.940 45.355-7.229Q45.355-8.138 45.541-8.840Q45.727-9.542 46.099-9.583Q48.164-9.914 50.312-10.182Q52.460-10.451 54.526-10.657Q54.980-10.699 54.980-10.285Q54.980-9.377 54.794-8.736Q54.608-8.096 54.112-8.055Q52.130-7.766 49.982-7.456Q47.834-7.146 45.644-6.940M65.307 0.620Q63.076 0.620 61.341-0.537Q59.606-1.694 58.636-3.718Q57.665-5.742 57.665-8.427Q57.665-10.864 58.801-12.888Q59.937-14.912 61.837-16.130Q63.737-17.349 66.009-17.349Q68.570-17.349 70.243-15.841Q71.916-14.334 71.916-11.979Q71.916-10.616 70.635-10.616L62.085-10.616Q61.506-10.616 61.279-10.285Q61.052-9.955 61.052-9.088Q61.052-7.270 61.837-5.762Q62.622-4.255 63.985-3.346Q65.348-2.437 67.042-2.437Q68.281-2.437 69.293-2.912Q70.305-3.387 71.172-4.255Q71.420-4.585 71.627-4.585Q71.998-4.585 71.998-4.131Q71.998-3.470 71.420-2.561Q70.594-1.239 68.983-0.310Q67.372 0.620 65.307 0.620M62.167-12.020L65.431-12.020Q66.505-12.020 67.104-12.062Q67.703-12.103 68.281-12.227Q68.653-12.310 68.653-13.260Q68.653-14.375 67.703-15.201Q66.752-16.027 65.431-16.027Q64.522-16.027 63.634-15.490Q62.746-14.953 62.167-14.148Q61.589-13.342 61.630-12.516Q61.630-12.020 62.167-12.020M88.232 0.785Q88.150 0.785 87.943 0.578Q87.737 0.372 87.737 0.289Q87.778-0.207 87.860-0.909Q87.943-1.611 87.943-2.107L87.943-2.355Q87.241-1.281 85.836-0.351Q84.432 0.578 82.532 0.578Q80.177 0.578 78.442-0.640Q76.708-1.859 75.737-3.800Q74.766-5.742 74.766-7.931Q74.766-10.451 75.923-12.599Q77.079-14.747 79.227-16.048Q81.375-17.349 84.267-17.349Q85.052-17.349 85.816-17.204Q86.580-17.060 87.076-16.895Q87.530-16.771 87.613-16.771Q87.902-16.771 87.902-17.638L87.902-23.132Q87.902-24.743 87.406-25.342Q86.910-25.941 85.960-26.147Q85.547-26.230 85.547-26.726Q85.547-27.139 85.919-27.263Q87.654-27.676 88.893-28.130Q90.132-28.585 90.876-28.874Q91.372-29.080 91.578-29.080Q91.867-29.080 91.909-28.750Q91.909-28.585 91.785-27.449Q91.661-26.313 91.661-24.123L91.578-4.668Q91.578-3.263 91.785-2.644Q91.991-2.024 92.487-2.024Q92.693-2.024 93.106-2.045Q93.520-2.065 94.222-2.148Q94.883-2.189 94.883-1.735Q94.883-1.446 94.676-1.177Q94.470-0.909 94.263-0.909Q92.983-0.744 91.702-0.413Q90.422-0.083 88.934 0.537Q88.604 0.702 88.480 0.744Q88.356 0.785 88.232 0.785M84.225-1.818Q85.134-1.818 86.146-2.293Q87.158-2.768 87.860-3.552L87.860-11.607Q87.860-12.557 87.262-13.507Q86.663-14.458 85.630-15.077Q84.597-15.697 83.275-15.697Q82.325-15.697 81.251-15.056Q80.177-14.416 79.434-12.929Q78.690-11.442 78.690-8.922Q78.690-6.816 79.269-5.432Q79.847-4.048 80.735-3.263Q81.623-2.478 82.573-2.148Q83.523-1.818 84.225-1.818M109.712 0.578Q108.845 0.578 108.018 0.021Q107.192-0.537 106.655-1.384Q106.118-2.231 106.118-3.057Q106.118-4.420 106.882-5.246Q107.647-6.072 109.258-6.733L113.264-8.427Q114.091-8.757 114.256-9.026Q114.421-9.294 114.462-10.120L114.545-12.640Q114.545-13.755 113.987-14.499Q113.430-15.242 112.314-15.242Q110.993-15.242 110.166-14.499Q109.960-14.292 109.898-14.024Q109.836-13.755 109.836-13.425Q109.836-13.218 109.857-12.950Q109.877-12.681 109.877-12.516Q109.877-12.268 109.320-11.917Q108.762-11.566 108.039-11.277Q107.316-10.988 106.820-10.988Q106.283-10.988 106.283-11.525Q106.283-12.888 108.018-14.375Q109.464-15.655 111.323-16.502Q113.182-17.349 114.504-17.349Q116.239-17.349 117.313-16.172Q118.386-14.995 118.345-13.136L118.139-3.800Q118.139-2.892 118.531-2.313Q118.923-1.735 119.543-1.735Q120.493-1.735 121.030-2.231Q121.195-2.396 121.319-2.396Q121.815-2.396 121.815-1.941Q121.815-1.446 121.237-0.909Q119.750 0.578 118.180 0.578Q116.115 0.578 114.875-1.652L114.751-1.652Q113.388-0.454 112.211 0.062Q111.034 0.578 109.712 0.578M111.860-1.652Q112.521-1.652 113.017-1.879Q113.512-2.107 113.884-2.520Q114.091-2.726 114.214-3.036Q114.338-3.346 114.338-4.007L114.421-6.361Q114.462-7.146 114.049-7.146Q113.843-7.146 113.347-6.940Q111.488-6.237 110.745-5.473Q110.001-4.709 110.001-3.800Q110.001-2.685 110.600-2.169Q111.199-1.652 111.860-1.652M123.963 0.124Q123.633 0.124 123.385 0Q123.137-0.124 123.137-0.372Q123.137-0.702 123.385-0.847Q123.633-0.991 124.087-1.115Q124.707-1.281 125.243-1.549Q125.780-1.818 125.780-2.685L125.780-11.773Q125.780-12.764 125.533-13.507Q125.285-14.251 124.335-14.499Q123.922-14.623 123.922-15.077Q123.922-15.573 124.293-15.655Q125.698-16.027 126.896-16.564Q128.094-17.101 129.085-17.762Q129.209-17.845 129.354-17.927Q129.498-18.010 129.622-18.010Q129.911-18.010 129.911-17.638Q129.911-17.349 129.808-16.523Q129.705-15.697 129.705-15.118Q129.705-14.664 129.787-14.581Q131.192-15.945 132.761-16.647Q134.331-17.349 136.273-17.349Q138.338-17.349 139.701-15.717Q141.064-14.086 141.064-11.566L141.064-2.644Q141.064-1.818 141.622-1.549Q142.179-1.281 142.799-1.115Q143.130-0.991 143.419-0.805Q143.708-0.620 143.708-0.330Q143.708-0.083 143.439 0.021Q143.171 0.124 142.923 0.124Q141.684 0.124 141.002 0.021Q140.321-0.083 139.205-0.083Q138.131-0.083 137.429 0.021Q136.727 0.124 135.488 0.124Q135.281 0.124 134.992 0.021Q134.703-0.083 134.703-0.330Q134.703-0.620 134.992-0.805Q135.281-0.991 135.612-1.115Q136.231-1.281 136.768-1.549Q137.305-1.818 137.305-2.644L137.305-11.194Q137.305-12.888 136.376-13.879Q135.446-14.871 133.959-14.871Q132.679-14.871 131.708-14.478Q130.737-14.086 129.911-13.425Q129.581-13.136 129.581-12.557L129.581-2.644Q129.581-1.818 130.097-1.549Q130.613-1.281 131.233-1.115Q132.142-0.867 132.142-0.372Q132.142 0.124 131.357 0.124Q130.118 0.124 129.457 0.021Q128.796-0.083 127.722-0.083Q126.607-0.083 125.904 0.021Q125.202 0.124 123.963 0.124M159.694 0.785Q159.611 0.785 159.405 0.578Q159.198 0.372 159.198 0.289Q159.239-0.207 159.322-0.909Q159.405-1.611 159.405-2.107L159.405-2.355Q158.702-1.281 157.298-0.351Q155.893 0.578 153.993 0.578Q151.639 0.578 149.904-0.640Q148.169-1.859 147.198-3.800Q146.228-5.742 146.228-7.931Q146.228-10.451 147.384-12.599Q148.541-14.747 150.689-16.048Q152.837-17.349 155.728-17.349Q156.513-17.349 157.277-17.204Q158.041-17.060 158.537-16.895Q158.991-16.771 159.074-16.771Q159.363-16.771 159.363-17.638L159.363-23.132Q159.363-24.743 158.868-25.342Q158.372-25.941 157.422-26.147Q157.009-26.230 157.009-26.726Q157.009-27.139 157.381-27.263Q159.115-27.676 160.355-28.130Q161.594-28.585 162.337-28.874Q162.833-29.080 163.040-29.080Q163.329-29.080 163.370-28.750Q163.370-28.585 163.246-27.449Q163.122-26.313 163.122-24.123L163.040-4.668Q163.040-3.263 163.246-2.644Q163.453-2.024 163.948-2.024Q164.155-2.024 164.568-2.045Q164.981-2.065 165.683-2.148Q166.344-2.189 166.344-1.735Q166.344-1.446 166.138-1.177Q165.931-0.909 165.725-0.909Q164.444-0.744 163.164-0.413Q161.883-0.083 160.396 0.537Q160.065 0.702 159.942 0.744Q159.818 0.785 159.694 0.785M155.687-1.818Q156.596-1.818 157.608-2.293Q158.620-2.768 159.322-3.552L159.322-11.607Q159.322-12.557 158.723-13.507Q158.124-14.458 157.091-15.077Q156.059-15.697 154.737-15.697Q153.787-15.697 152.713-15.056Q151.639-14.416 150.895-12.929Q150.152-11.442 150.152-8.922Q150.152-6.816 150.730-5.432Q151.308-4.048 152.196-3.263Q153.085-2.478 154.035-2.148Q154.985-1.818 155.687-1.818M177.786 11.442Q177.538 11.442 177.229 11.339Q176.919 11.236 176.919 10.988Q176.919 10.657 177.208 10.492Q177.497 10.327 177.869 10.203Q178.571 9.996 179.067 9.707Q179.562 9.418 179.562 8.633L179.562-11.896Q179.562-12.268 179.377-12.888Q179.191-13.507 178.778-14.024Q178.365-14.540 177.745-14.664Q177.332-14.747 177.332-15.284Q177.332-15.779 177.704-15.862Q179.191-16.192 180.513-16.667Q181.834-17.142 182.867-17.638Q182.950-17.638 183.032-17.700Q183.115-17.762 183.198-17.762Q183.487-17.762 183.487-17.349Q183.487-16.977 183.383-16.192Q183.280-15.408 183.280-14.871Q183.280-14.540 183.321-14.499Q183.735-14.871 184.809-15.532Q185.883-16.192 187.266-16.729Q188.650-17.266 189.972-17.266Q192.120-17.266 193.648-16.110Q195.177-14.953 196.003-13.136Q196.829-11.318 196.829-9.377Q196.829-7.477 196.106-5.700Q195.383-3.924 194.103-2.499Q192.822-1.074 191.108-0.227Q189.394 0.620 187.411 0.620Q186.626 0.620 185.407 0.289Q184.189-0.041 183.528-0.537Q183.445-0.537 183.404-0.186Q183.363 0.165 183.363 0.558Q183.363 0.950 183.363 1.115L183.363 8.509Q183.363 9.377 184.127 9.687Q184.891 9.996 185.676 10.244Q186.048 10.368 186.337 10.533Q186.626 10.699 186.626 10.988Q186.626 11.236 186.316 11.339Q186.006 11.442 185.759 11.442Q184.561 11.442 183.569 11.339Q182.578 11.236 181.504 11.236Q180.389 11.236 179.686 11.339Q178.984 11.442 177.786 11.442M187.783-0.867Q188.320-0.867 189.125-1.219Q189.931-1.570 190.736-2.396Q191.542-3.222 192.079-4.585Q192.616-5.948 192.616-7.972Q192.616-10.327 192.058-11.731Q191.500-13.136 190.674-13.859Q189.848-14.581 189.001-14.829Q188.154-15.077 187.576-15.077Q186.626-15.077 185.676-14.685Q184.726-14.292 184.086-13.797Q183.445-13.301 183.445-13.012Q183.445-12.062 183.425-10.740Q183.404-9.418 183.383-8.220Q183.363-7.022 183.363-6.568Q183.363-5.122 184.003-3.821Q184.643-2.520 185.655-1.694Q186.667-0.867 187.783-0.867M200.381 0.124Q199.555 0.124 199.555-0.372Q199.555-0.702 199.803-0.847Q200.051-0.991 200.505-1.115Q202.075-1.487 202.075-2.685L202.075-11.773Q202.075-12.805 201.786-13.528Q201.497-14.251 200.547-14.458Q200.092-14.581 200.092-15.077Q200.092-15.532 200.505-15.655Q201.662-15.986 202.984-16.585Q204.306-17.184 205.132-17.638Q205.710-17.969 205.875-17.969Q206.164-17.969 206.164-17.638Q206.164-17.390 206.123-16.358Q206.082-15.325 206.040-14.458Q206.040-14.292 206.123-14.292Q207.114-15.532 208.436-16.461Q209.758-17.390 211.039-17.390Q212.113-17.390 212.691-16.936Q213.269-16.482 213.269-15.821Q213.269-15.366 213.001-14.767Q212.732-14.168 212.298-13.735Q211.865-13.301 211.369-13.301Q211.080-13.301 210.749-13.446Q210.419-13.590 210.047-13.755Q209.675-13.921 209.324-14.065Q208.973-14.210 208.684-14.210Q207.651-14.210 206.784-13.466Q205.917-12.723 205.917-10.575L205.917-2.809Q205.917-2.148 206.474-1.776Q207.032-1.404 208.064-1.074Q208.519-0.950 208.767-0.805Q209.015-0.661 209.015-0.372Q209.015 0.124 208.230 0.124Q206.990 0.124 206.123 0.021Q205.256-0.083 204.140-0.083Q203.066-0.083 202.343 0.021Q201.621 0.124 200.381 0.124M223.555 0.578Q221.200 0.578 219.279-0.496Q217.359-1.570 216.243-3.490Q215.128-5.411 215.128-7.848Q215.128-9.666 215.830-11.359Q216.532-13.053 217.813-14.416Q219.094-15.779 220.766-16.585Q222.439-17.390 224.422-17.390Q226.859-17.390 228.842-16.213Q230.825-15.036 231.981-13.115Q233.138-11.194 233.138-8.964Q233.138-6.444 232.064-4.275Q230.990-2.107 228.863-0.764Q226.735 0.578 223.555 0.578M224.422-0.867Q225.620-0.867 226.570-1.322Q227.520-1.776 228.057-2.809Q228.553-3.759 228.739-5.122Q228.925-6.485 228.925-7.972Q228.925-10.038 228.264-11.835Q227.603-13.631 226.446-14.767Q225.290-15.903 223.720-15.903Q222.770-15.903 222.026-15.614Q221.283-15.325 220.622-14.540Q219.837-13.549 219.589-12.062Q219.341-10.575 219.341-8.798Q219.341-6.816 220.002-4.978Q220.663-3.139 221.799-2.003Q222.935-0.867 224.422-0.867M249.661 0.826Q249.330 0.826 249.330 0.454Q249.330 0.041 249.434-0.785Q249.537-1.611 249.537-2.107Q249.537-2.313 249.537-2.437Q246.604 0.578 242.804 0.578Q240.821 0.578 239.499-0.805Q238.177-2.189 238.177-4.626L238.177-12.805Q238.177-13.714 237.785-14.272Q237.393-14.829 236.443-15.118Q236.195-15.201 236.029-15.346Q235.864-15.490 235.864-15.821Q235.864-16.440 236.484-16.523Q238.012-16.606 239.004-16.791Q239.995-16.977 241.234-17.308Q241.606-17.390 241.771-17.390Q242.267-17.390 242.226-16.812Q242.102-15.821 242.019-15.180Q241.936-14.540 241.936-13.631L241.936-5.618Q241.936-4.131 242.886-3.077Q243.837-2.024 245.076-1.983Q245.985-1.983 246.749-2.127Q247.513-2.272 248.215-2.850Q248.587-3.139 249.145-3.842Q249.702-4.544 249.702-5.783L249.702-13.012Q249.702-13.797 249.268-14.272Q248.835-14.747 248.236-14.933Q247.637-15.118 247.141-15.160Q246.728-15.160 246.480-15.325Q246.232-15.490 246.232-15.903Q246.232-16.316 246.501-16.461Q246.769-16.606 247.141-16.606Q248.669-16.688 249.661-16.771Q250.652-16.853 251.375-16.977Q252.098-17.101 252.883-17.308Q252.965-17.349 253.089-17.370Q253.213-17.390 253.337-17.390Q253.915-17.390 253.915-16.936Q253.915-16.853 253.874-16.729Q253.833-16.606 253.792-16.482Q253.750-16.316 253.688-15.759Q253.626-15.201 253.564-14.581Q253.502-13.962 253.502-13.590L253.502-4.048Q253.502-2.974 253.730-2.561Q253.957-2.148 254.246-2.148Q254.494-2.148 255.051-2.189Q255.609-2.231 255.898-2.231Q256.146-2.231 256.353-2.107Q256.559-1.983 256.559-1.611Q256.559-0.991 255.940-0.950Q254.205-0.744 252.883-0.289Q251.561 0.165 250.570 0.537Q250.404 0.620 250.136 0.723Q249.867 0.826 249.661 0.826M272.091 0.785Q272.008 0.785 271.802 0.578Q271.595 0.372 271.595 0.289Q271.636-0.207 271.719-0.909Q271.802-1.611 271.802-2.107L271.802-2.355Q271.099-1.281 269.695-0.351Q268.290 0.578 266.390 0.578Q264.036 0.578 262.301-0.640Q260.566-1.859 259.595-3.800Q258.625-5.742 258.625-7.931Q258.625-10.451 259.781-12.599Q260.938-14.747 263.086-16.048Q265.234-17.349 268.125-17.349Q268.910-17.349 269.674-17.204Q270.438-17.060 270.934-16.895Q271.388-16.771 271.471-16.771Q271.760-16.771 271.760-17.638L271.760-23.132Q271.760-24.743 271.265-25.342Q270.769-25.941 269.819-26.147Q269.406-26.230 269.406-26.726Q269.406-27.139 269.777-27.263Q271.512-27.676 272.752-28.130Q273.991-28.585 274.734-28.874Q275.230-29.080 275.437-29.080Q275.726-29.080 275.767-28.750Q275.767-28.585 275.643-27.449Q275.519-26.313 275.519-24.123L275.437-4.668Q275.437-3.263 275.643-2.644Q275.850-2.024 276.345-2.024Q276.552-2.024 276.965-2.045Q277.378-2.065 278.080-2.148Q278.741-2.189 278.741-1.735Q278.741-1.446 278.535-1.177Q278.328-0.909 278.122-0.909Q276.841-0.744 275.560-0.413Q274.280-0.083 272.793 0.537Q272.462 0.702 272.339 0.744Q272.215 0.785 272.091 0.785M268.084-1.818Q268.993-1.818 270.005-2.293Q271.017-2.768 271.719-3.552L271.719-11.607Q271.719-12.557 271.120-13.507Q270.521-14.458 269.488-15.077Q268.456-15.697 267.134-15.697Q266.184-15.697 265.110-15.056Q264.036-14.416 263.292-12.929Q262.549-11.442 262.549-8.922Q262.549-6.816 263.127-5.432Q263.705-4.048 264.593-3.263Q265.482-2.478 266.432-2.148Q267.382-1.818 268.084-1.818M293.116-5.907Q292.001-5.907 291.237-6.692Q290.472-7.477 290.472-8.551Q290.472-9.666 291.237-10.451Q292.001-11.236 293.116-11.236Q294.190-11.236 294.975-10.451Q295.760-9.666 295.760-8.551Q295.760-7.477 294.975-6.692Q294.190-5.907 293.116-5.907M316 0.620Q313.894 0.620 312.200-0.475Q310.506-1.570 309.515-3.470Q308.524-5.370 308.524-7.724Q308.524-10.409 309.722-12.599Q310.919-14.788 312.923-16.069Q314.926-17.349 317.405-17.349Q320.379-17.349 322.444-15.655Q322.899-15.284 322.899-14.871Q322.899-14.540 322.568-14.127Q322.238-13.714 321.804-13.404Q321.370-13.094 321.040-13.094Q320.751-13.094 320.523-13.260Q320.296-13.425 320.007-13.631Q319.057-14.416 317.942-15.015Q316.826-15.614 316.042-15.614Q314.183-15.614 313.088-13.941Q311.993-12.268 311.993-9.253Q311.993-7.270 312.758-5.742Q313.522-4.213 314.864-3.346Q316.207-2.478 317.942-2.478Q319.181-2.478 320.048-2.871Q320.916-3.263 321.907-4.213Q322.238-4.461 322.444-4.461Q322.899-4.461 322.899-3.883Q322.899-3.387 322.403-2.644Q321.535-1.363 319.842-0.372Q318.148 0.620 316 0.620M326.410 0.124Q325.584 0.124 325.584-0.372Q325.584-0.702 325.831-0.847Q326.079-0.991 326.534-1.115Q328.103-1.487 328.103-2.685L328.103-11.773Q328.103-12.805 327.814-13.528Q327.525-14.251 326.575-14.458Q326.121-14.581 326.121-15.077Q326.121-15.532 326.534-15.655Q327.690-15.986 329.012-16.585Q330.334-17.184 331.160-17.638Q331.738-17.969 331.904-17.969Q332.193-17.969 332.193-17.638Q332.193-17.390 332.151-16.358Q332.110-15.325 332.069-14.458Q332.069-14.292 332.151-14.292Q333.143-15.532 334.465-16.461Q335.786-17.390 337.067-17.390Q338.141-17.390 338.719-16.936Q339.298-16.482 339.298-15.821Q339.298-15.366 339.029-14.767Q338.761-14.168 338.327-13.735Q337.893-13.301 337.397-13.301Q337.108-13.301 336.778-13.446Q336.447-13.590 336.076-13.755Q335.704-13.921 335.353-14.065Q335.002-14.210 334.712-14.210Q333.680-14.210 332.812-13.466Q331.945-12.723 331.945-10.575L331.945-2.809Q331.945-2.148 332.502-1.776Q333.060-1.404 334.093-1.074Q334.547-0.950 334.795-0.805Q335.043-0.661 335.043-0.372Q335.043 0.124 334.258 0.124Q333.019 0.124 332.151 0.021Q331.284-0.083 330.169-0.083Q329.095-0.083 328.372 0.021Q327.649 0.124 326.410 0.124M348.633 0.620Q346.402 0.620 344.667-0.537Q342.933-1.694 341.962-3.718Q340.991-5.742 340.991-8.427Q340.991-10.864 342.127-12.888Q343.263-14.912 345.163-16.130Q347.063-17.349 349.335-17.349Q351.896-17.349 353.569-15.841Q355.242-14.334 355.242-11.979Q355.242-10.616 353.962-10.616L345.411-10.616Q344.833-10.616 344.606-10.285Q344.378-9.955 344.378-9.088Q344.378-7.270 345.163-5.762Q345.948-4.255 347.311-3.346Q348.674-2.437 350.368-2.437Q351.607-2.437 352.619-2.912Q353.631-3.387 354.499-4.255Q354.746-4.585 354.953-4.585Q355.325-4.585 355.325-4.131Q355.325-3.470 354.746-2.561Q353.920-1.239 352.309-0.310Q350.698 0.620 348.633 0.620M345.494-12.020L348.757-12.020Q349.831-12.020 350.430-12.062Q351.029-12.103 351.607-12.227Q351.979-12.310 351.979-13.260Q351.979-14.375 351.029-15.201Q350.079-16.027 348.757-16.027Q347.848-16.027 346.960-15.490Q346.072-14.953 345.494-14.148Q344.915-13.342 344.957-12.516Q344.957-12.020 345.494-12.020M371.558 0.785Q371.476 0.785 371.269 0.578Q371.063 0.372 371.063 0.289Q371.104-0.207 371.187-0.909Q371.269-1.611 371.269-2.107L371.269-2.355Q370.567-1.281 369.163-0.351Q367.758 0.578 365.858 0.578Q363.504 0.578 361.769-0.640Q360.034-1.859 359.063-3.800Q358.092-5.742 358.092-7.931Q358.092-10.451 359.249-12.599Q360.406-14.747 362.553-16.048Q364.701-17.349 367.593-17.349Q368.378-17.349 369.142-17.204Q369.906-17.060 370.402-16.895Q370.856-16.771 370.939-16.771Q371.228-16.771 371.228-17.638L371.228-23.132Q371.228-24.743 370.732-25.342Q370.237-25.941 369.287-26.147Q368.873-26.230 368.873-26.726Q368.873-27.139 369.245-27.263Q370.980-27.676 372.219-28.130Q373.459-28.585 374.202-28.874Q374.698-29.080 374.904-29.080Q375.194-29.080 375.235-28.750Q375.235-28.585 375.111-27.449Q374.987-26.313 374.987-24.123L374.904-4.668Q374.904-3.263 375.111-2.644Q375.317-2.024 375.813-2.024Q376.020-2.024 376.433-2.045Q376.846-2.065 377.548-2.148Q378.209-2.189 378.209-1.735Q378.209-1.446 378.002-1.177Q377.796-0.909 377.589-0.909Q376.309-0.744 375.028-0.413Q373.748-0.083 372.261 0.537Q371.930 0.702 371.806 0.744Q371.682 0.785 371.558 0.785M367.552-1.818Q368.460-1.818 369.472-2.293Q370.484-2.768 371.187-3.552L371.187-11.607Q371.187-12.557 370.588-13.507Q369.989-14.458 368.956-15.077Q367.923-15.697 366.602-15.697Q365.652-15.697 364.578-15.056Q363.504-14.416 362.760-12.929Q362.016-11.442 362.016-8.922Q362.016-6.816 362.595-5.432Q363.173-4.048 364.061-3.263Q364.949-2.478 365.899-2.148Q366.849-1.818 367.552-1.818M380.563 0.124Q379.779 0.124 379.779-0.372Q379.779-0.661 380.047-0.826Q380.316-0.991 380.646-1.074Q381.596-1.322 382.051-1.611Q382.505-1.900 382.505-2.644L382.505-11.566Q382.505-12.805 382.092-13.569Q381.679-14.334 380.646-14.499Q380.233-14.540 380.233-15.118Q380.233-15.614 380.605-15.655Q382.422-16.069 383.723-16.729Q385.025-17.390 385.686-17.845Q386.140-18.134 386.346-18.134Q386.677-18.134 386.677-17.803Q386.677-17.349 386.574-16.358Q386.470-15.366 386.367-14.189Q386.264-13.012 386.264-12.062L386.264-2.644Q386.264-1.983 386.718-1.652Q387.173-1.322 388.123-1.074Q388.453-0.991 388.722-0.847Q388.990-0.702 388.990-0.372Q388.990 0.124 388.247 0.124Q387.049 0.124 386.243 0.021Q385.438-0.083 384.364-0.083Q383.290-0.083 382.526 0.021Q381.761 0.124 380.563 0.124M384.281-20.984Q383.248-20.984 382.526-21.707Q381.803-22.430 381.803-23.463Q381.803-24.536 382.526-25.259Q383.248-25.982 384.281-25.982Q385.355-25.982 386.099-25.259Q386.842-24.536 386.842-23.463Q386.842-22.430 386.099-21.707Q385.355-20.984 384.281-20.984M398.367 0.578Q396.095 0.578 394.876-0.702Q393.658-1.983 393.658-4.461L393.658-14.044Q393.658-14.375 393.389-14.519Q393.121-14.664 392.336-14.664L392.006-14.664Q391.758-14.664 391.592-15.015Q391.427-15.366 391.427-15.697Q391.427-15.986 391.716-16.110Q392.997-16.853 394.257-17.927Q395.517-19.001 396.219-19.745Q396.425-19.993 396.611-20.137Q396.797-20.282 397.045-20.282Q397.293-20.282 397.479-20.158Q397.665-20.034 397.623-19.662L397.375-17.638Q397.334-17.142 397.603-16.977Q397.871-16.812 398.367-16.812L403.158-16.812Q403.282-16.812 403.406-16.523Q403.530-16.234 403.530-15.945Q403.530-15.490 403.406-15.077Q403.282-14.664 403.117-14.664L399.110-14.664Q398.078-14.664 397.768-14.478Q397.458-14.292 397.458-13.507L397.458-5.494Q397.458-1.900 400.143-1.900Q401.341-1.900 401.961-2.086Q402.580-2.272 403.076-2.602Q403.200-2.685 403.282-2.685Q403.448-2.685 403.530-2.478Q403.613-2.272 403.613-2.024Q403.613-1.776 402.869-1.157Q402.126-0.537 400.928 0.021Q399.730 0.578 398.367 0.578M413.114 0.620Q410.883 0.620 409.148-0.537Q407.413-1.694 406.442-3.718Q405.472-5.742 405.472-8.427Q405.472-10.864 406.608-12.888Q407.744-14.912 409.644-16.130Q411.544-17.349 413.816-17.349Q416.377-17.349 418.050-15.841Q419.723-14.334 419.723-11.979Q419.723-10.616 418.442-10.616L409.892-10.616Q409.313-10.616 409.086-10.285Q408.859-9.955 408.859-9.088Q408.859-7.270 409.644-5.762Q410.429-4.255 411.792-3.346Q413.155-2.437 414.848-2.437Q416.088-2.437 417.100-2.912Q418.112-3.387 418.979-4.255Q419.227-4.585 419.434-4.585Q419.805-4.585 419.805-4.131Q419.805-3.470 419.227-2.561Q418.401-1.239 416.790-0.310Q415.179 0.620 413.114 0.620M409.974-12.020L413.237-12.020Q414.311-12.020 414.910-12.062Q415.509-12.103 416.088-12.227Q416.459-12.310 416.459-13.260Q416.459-14.375 415.509-15.201Q414.559-16.027 413.237-16.027Q412.329-16.027 411.441-15.490Q410.552-14.953 409.974-14.148Q409.396-13.342 409.437-12.516Q409.437-12.020 409.974-12.020M436.039 0.785Q435.956 0.785 435.750 0.578Q435.543 0.372 435.543 0.289Q435.585-0.207 435.667-0.909Q435.750-1.611 435.750-2.107L435.750-2.355Q435.048-1.281 433.643-0.351Q432.239 0.578 430.339 0.578Q427.984 0.578 426.249-0.640Q424.514-1.859 423.544-3.800Q422.573-5.742 422.573-7.931Q422.573-10.451 423.729-12.599Q424.886-14.747 427.034-16.048Q429.182-17.349 432.074-17.349Q432.858-17.349 433.623-17.204Q434.387-17.060 434.882-16.895Q435.337-16.771 435.419-16.771Q435.709-16.771 435.709-17.638L435.709-23.132Q435.709-24.743 435.213-25.342Q434.717-25.941 433.767-26.147Q433.354-26.230 433.354-26.726Q433.354-27.139 433.726-27.263Q435.461-27.676 436.700-28.130Q437.939-28.585 438.683-28.874Q439.178-29.080 439.385-29.080Q439.674-29.080 439.715-28.750Q439.715-28.585 439.591-27.449Q439.468-26.313 439.468-24.123L439.385-4.668Q439.385-3.263 439.591-2.644Q439.798-2.024 440.294-2.024Q440.500-2.024 440.913-2.045Q441.326-2.065 442.029-2.148Q442.690-2.189 442.690-1.735Q442.690-1.446 442.483-1.177Q442.276-0.909 442.070-0.909Q440.789-0.744 439.509-0.413Q438.228-0.083 436.741 0.537Q436.411 0.702 436.287 0.744Q436.163 0.785 436.039 0.785M432.032-1.818Q432.941-1.818 433.953-2.293Q434.965-2.768 435.667-3.552L435.667-11.607Q435.667-12.557 435.068-13.507Q434.469-14.458 433.437-15.077Q432.404-15.697 431.082-15.697Q430.132-15.697 429.058-15.056Q427.984-14.416 427.241-12.929Q426.497-11.442 426.497-8.922Q426.497-6.816 427.075-5.432Q427.654-4.048 428.542-3.263Q429.430-2.478 430.380-2.148Q431.330-1.818 432.032-1.818M454.297 0.124Q453.966 0.124 453.719 0Q453.471-0.124 453.471-0.372Q453.471-0.702 453.719-0.847Q453.966-0.991 454.421-1.115Q455.040-1.281 455.577-1.549Q456.114-1.818 456.114-2.685L456.114-11.773Q456.114-12.764 455.867-13.507Q455.619-14.251 454.669-14.499Q454.256-14.623 454.256-15.077Q454.256-15.573 454.627-15.655Q456.032-16.027 457.230-16.564Q458.428-17.101 459.419-17.762Q459.543-17.845 459.687-17.927Q459.832-18.010 459.956-18.010Q460.245-18.010 460.245-17.638Q460.245-17.349 460.142-16.523Q460.039-15.697 460.039-15.118Q460.039-14.664 460.121-14.581Q461.526-15.945 463.095-16.647Q464.665-17.349 466.606-17.349Q468.672-17.349 470.035-15.717Q471.398-14.086 471.398-11.566L471.398-2.644Q471.398-1.818 471.956-1.549Q472.513-1.281 473.133-1.115Q473.463-0.991 473.753-0.805Q474.042-0.620 474.042-0.330Q474.042-0.083 473.773 0.021Q473.505 0.124 473.257 0.124Q472.018 0.124 471.336 0.021Q470.654-0.083 469.539-0.083Q468.465-0.083 467.763 0.021Q467.061 0.124 465.822 0.124Q465.615 0.124 465.326 0.021Q465.037-0.083 465.037-0.330Q465.037-0.620 465.326-0.805Q465.615-0.991 465.945-1.115Q466.565-1.281 467.102-1.549Q467.639-1.818 467.639-2.644L467.639-11.194Q467.639-12.888 466.710-13.879Q465.780-14.871 464.293-14.871Q463.013-14.871 462.042-14.478Q461.071-14.086 460.245-13.425Q459.915-13.136 459.915-12.557L459.915-2.644Q459.915-1.818 460.431-1.549Q460.947-1.281 461.567-1.115Q462.476-0.867 462.476-0.372Q462.476 0.124 461.691 0.124Q460.452 0.124 459.791 0.021Q459.130-0.083 458.056-0.083Q456.940-0.083 456.238 0.021Q455.536 0.124 454.297 0.124M484.988 0.578Q482.634 0.578 480.713-0.496Q478.792-1.570 477.677-3.490Q476.561-5.411 476.561-7.848Q476.561-9.666 477.264-11.359Q477.966-13.053 479.246-14.416Q480.527-15.779 482.200-16.585Q483.873-17.390 485.856-17.390Q488.293-17.390 490.275-16.213Q492.258-15.036 493.415-13.115Q494.571-11.194 494.571-8.964Q494.571-6.444 493.497-4.275Q492.423-2.107 490.296-0.764Q488.169 0.578 484.988 0.578M485.856-0.867Q487.053-0.867 488.004-1.322Q488.954-1.776 489.491-2.809Q489.986-3.759 490.172-5.122Q490.358-6.485 490.358-7.972Q490.358-10.038 489.697-11.835Q489.036-13.631 487.880-14.767Q486.723-15.903 485.153-15.903Q484.203-15.903 483.460-15.614Q482.716-15.325 482.055-14.540Q481.270-13.549 481.023-12.062Q480.775-10.575 480.775-8.798Q480.775-6.816 481.436-4.978Q482.097-3.139 483.233-2.003Q484.368-0.867 485.856-0.867M504.526 0.578Q502.255 0.578 501.036-0.702Q499.817-1.983 499.817-4.461L499.817-14.044Q499.817-14.375 499.549-14.519Q499.280-14.664 498.496-14.664L498.165-14.664Q497.917-14.664 497.752-15.015Q497.587-15.366 497.587-15.697Q497.587-15.986 497.876-16.110Q499.156-16.853 500.416-17.927Q501.676-19.001 502.378-19.745Q502.585-19.993 502.771-20.137Q502.957-20.282 503.205-20.282Q503.452-20.282 503.638-20.158Q503.824-20.034 503.783-19.662L503.535-17.638Q503.494-17.142 503.762-16.977Q504.031-16.812 504.526-16.812L509.318-16.812Q509.442-16.812 509.566-16.523Q509.690-16.234 509.690-15.945Q509.690-15.490 509.566-15.077Q509.442-14.664 509.277-14.664L505.270-14.664Q504.237-14.664 503.927-14.478Q503.618-14.292 503.618-13.507L503.618-5.494Q503.618-1.900 506.303-1.900Q507.501-1.900 508.120-2.086Q508.740-2.272 509.235-2.602Q509.359-2.685 509.442-2.685Q509.607-2.685 509.690-2.478Q509.772-2.272 509.772-2.024Q509.772-1.776 509.029-1.157Q508.285-0.537 507.087 0.021Q505.890 0.578 504.526 0.578M527.989 0.578Q525.717 0.578 524.498-0.702Q523.280-1.983 523.280-4.461L523.280-14.044Q523.280-14.375 523.011-14.519Q522.743-14.664 521.958-14.664L521.628-14.664Q521.380-14.664 521.215-15.015Q521.049-15.366 521.049-15.697Q521.049-15.986 521.338-16.110Q522.619-16.853 523.879-17.927Q525.139-19.001 525.841-19.745Q526.047-19.993 526.233-20.137Q526.419-20.282 526.667-20.282Q526.915-20.282 527.101-20.158Q527.287-20.034 527.245-19.662L526.998-17.638Q526.956-17.142 527.225-16.977Q527.493-16.812 527.989-16.812L532.781-16.812Q532.904-16.812 533.028-16.523Q533.152-16.234 533.152-15.945Q533.152-15.490 533.028-15.077Q532.904-14.664 532.739-14.664L528.732-14.664Q527.700-14.664 527.390-14.478Q527.080-14.292 527.080-13.507L527.080-5.494Q527.080-1.900 529.765-1.900Q530.963-1.900 531.583-2.086Q532.202-2.272 532.698-2.602Q532.822-2.685 532.904-2.685Q533.070-2.685 533.152-2.478Q533.235-2.272 533.235-2.024Q533.235-1.776 532.491-1.157Q531.748-0.537 530.550 0.021Q529.352 0.578 527.989 0.578M535.548 0.124Q534.722 0.124 534.722-0.372Q534.722-0.826 535.672-1.115Q536.292-1.281 536.829-1.590Q537.366-1.900 537.366-2.768L537.366-23.132Q537.366-24.247 537.015-25.073Q536.663-25.900 535.631-26.106Q535.259-26.189 535.259-26.726Q535.259-27.139 535.589-27.263Q536.292-27.428 537.262-27.758Q538.233-28.089 539.183-28.419Q540.133-28.750 540.794-29.039Q541.042-29.122 541.166-29.122Q541.496-29.122 541.496-28.750Q541.496-28.543 541.414-28.089Q541.331-27.635 541.249-26.726Q541.166-25.817 541.166-24.123L541.166-16.110Q541.166-15.118 541.414-14.705Q542.075-15.201 543.004-15.821Q543.934-16.440 545.111-16.895Q546.288-17.349 547.610-17.349Q549.717-17.349 551.100-15.779Q552.484-14.210 552.484-11.649L552.484-2.850Q552.484-2.024 553-1.652Q553.517-1.281 554.136-1.115Q554.549-0.950 554.797-0.805Q555.045-0.661 555.045-0.372Q555.045 0.124 554.178 0.124Q553.310 0.124 552.815 0.062Q552.319 0 551.844-0.041Q551.369-0.083 550.625-0.083Q549.840-0.083 549.386-0.041Q548.932 0 548.477 0.062Q548.023 0.124 547.114 0.124Q546.247 0.124 546.247-0.372Q546.247-0.702 546.495-0.826Q546.742-0.950 547.155-1.115Q547.734-1.281 548.229-1.652Q548.725-2.024 548.725-2.892L548.725-11.236Q548.725-12.227 548.209-13.012Q547.692-13.797 546.887-14.272Q546.081-14.747 545.297-14.747Q544.553-14.747 543.624-14.540Q542.694-14.334 542.075-13.838Q541.538-13.425 541.352-12.929Q541.166-12.433 541.166-11.401L541.166-2.768Q541.207-1.941 541.662-1.611Q542.116-1.281 542.694-1.115Q543.603-0.826 543.603-0.372Q543.603 0.124 542.777 0.124Q541.538 0.124 540.939 0.021Q540.340-0.083 539.224-0.083Q538.150-0.083 537.469 0.021Q536.787 0.124 535.548 0.124M561.324 0.578Q560.456 0.578 559.630 0.021Q558.804-0.537 558.267-1.384Q557.730-2.231 557.730-3.057Q557.730-4.420 558.494-5.246Q559.258-6.072 560.869-6.733L564.876-8.427Q565.702-8.757 565.868-9.026Q566.033-9.294 566.074-10.120L566.157-12.640Q566.157-13.755 565.599-14.499Q565.041-15.242 563.926-15.242Q562.604-15.242 561.778-14.499Q561.572-14.292 561.510-14.024Q561.448-13.755 561.448-13.425Q561.448-13.218 561.468-12.950Q561.489-12.681 561.489-12.516Q561.489-12.268 560.931-11.917Q560.374-11.566 559.651-11.277Q558.928-10.988 558.432-10.988Q557.895-10.988 557.895-11.525Q557.895-12.888 559.630-14.375Q561.076-15.655 562.935-16.502Q564.794-17.349 566.115-17.349Q567.850-17.349 568.924-16.172Q569.998-14.995 569.957-13.136L569.751-3.800Q569.751-2.892 570.143-2.313Q570.535-1.735 571.155-1.735Q572.105-1.735 572.642-2.231Q572.807-2.396 572.931-2.396Q573.427-2.396 573.427-1.941Q573.427-1.446 572.849-0.909Q571.362 0.578 569.792 0.578Q567.726 0.578 566.487-1.652L566.363-1.652Q565-0.454 563.823 0.062Q562.646 0.578 561.324 0.578M563.472-1.652Q564.133-1.652 564.628-1.879Q565.124-2.107 565.496-2.520Q565.702-2.726 565.826-3.036Q565.950-3.346 565.950-4.007L566.033-6.361Q566.074-7.146 565.661-7.146Q565.455-7.146 564.959-6.940Q563.100-6.237 562.357-5.473Q561.613-4.709 561.613-3.800Q561.613-2.685 562.212-2.169Q562.811-1.652 563.472-1.652M575.575 0.124Q575.244 0.124 574.997 0Q574.749-0.124 574.749-0.372Q574.749-0.702 574.997-0.847Q575.244-0.991 575.699-1.115Q576.318-1.281 576.855-1.549Q577.392-1.818 577.392-2.685L577.392-11.773Q577.392-12.764 577.145-13.507Q576.897-14.251 575.947-14.499Q575.534-14.623 575.534-15.077Q575.534-15.573 575.905-15.655Q577.310-16.027 578.508-16.564Q579.706-17.101 580.697-17.762Q580.821-17.845 580.965-17.927Q581.110-18.010 581.234-18.010Q581.523-18.010 581.523-17.638Q581.523-17.349 581.420-16.523Q581.317-15.697 581.317-15.118Q581.317-14.664 581.399-14.581Q582.804-15.945 584.373-16.647Q585.943-17.349 587.884-17.349Q589.950-17.349 591.313-15.717Q592.676-14.086 592.676-11.566L592.676-2.644Q592.676-1.818 593.234-1.549Q593.791-1.281 594.411-1.115Q594.741-0.991 595.031-0.805Q595.320-0.620 595.320-0.330Q595.320-0.083 595.051 0.021Q594.783 0.124 594.535 0.124Q593.296 0.124 592.614 0.021Q591.932-0.083 590.817-0.083Q589.743-0.083 589.041 0.021Q588.339 0.124 587.100 0.124Q586.893 0.124 586.604 0.021Q586.315-0.083 586.315-0.330Q586.315-0.620 586.604-0.805Q586.893-0.991 587.223-1.115Q587.843-1.281 588.380-1.549Q588.917-1.818 588.917-2.644L588.917-11.194Q588.917-12.888 587.988-13.879Q587.058-14.871 585.571-14.871Q584.291-14.871 583.320-14.478Q582.349-14.086 581.523-13.425Q581.193-13.136 581.193-12.557L581.193-2.644Q581.193-1.818 581.709-1.549Q582.225-1.281 582.845-1.115Q583.754-0.867 583.754-0.372Q583.754 0.124 582.969 0.124Q581.730 0.124 581.069 0.021Q580.408-0.083 579.334-0.083Q578.219-0.083 577.516 0.021Q576.814 0.124 575.575 0.124M598.211 0.124Q597.302 0.124 597.302-0.372Q597.302-0.702 597.592-0.826Q597.881-0.950 598.253-1.115Q598.872-1.281 599.409-1.590Q599.946-1.900 599.946-2.768L599.946-23.132Q599.946-24.495 599.574-25.197Q599.203-25.900 598.170-26.147Q597.798-26.189 597.798-26.726Q597.798-27.180 598.129-27.263Q599.698-27.593 601.041-28.110Q602.383-28.626 603.333-28.998Q603.581-29.122 603.746-29.122Q604.036-29.122 604.036-28.709Q604.036-28.295 603.891-27.221Q603.746-26.147 603.746-24.123L603.746-9.914Q603.746-9.501 603.994-9.501Q604.449-9.501 605.192-10.120Q606.803-11.525 607.980-12.764Q609.158-14.003 609.571-14.540Q609.942-14.995 609.942-15.201Q609.942-15.408 609.591-15.573Q609.240-15.738 608.786-15.862Q608.290-15.945 608.290-16.275Q608.290-16.812 609.199-16.812L611.223-16.812Q611.884-16.812 612.772-16.915Q613.660-17.019 614.486-17.122Q615.312-17.225 615.725-17.266Q616.262-17.266 616.262-16.812Q616.262-16.316 615.271-16.027Q614.528-15.862 613.743-15.470Q612.958-15.077 612.256-14.664Q611.801-14.416 610.954-13.755Q610.108-13.094 609.116-12.268Q608.125-11.442 607.257-10.657Q607.010-10.451 607.010-10.244Q607.010-10.079 607.175-9.914Q608.208-8.592 609.343-7.270Q610.479-5.948 611.471-4.874Q612.462-3.800 613.082-3.139Q613.784-2.478 614.713-1.921Q615.643-1.363 616.262-1.115Q616.676-0.991 617.068-0.847Q617.460-0.702 617.460-0.372Q617.460 0.124 616.634 0.124Q614.693 0.124 612.565 0.062Q610.438 0 608.331 0Q607.547 0 607.547-0.454Q607.547-0.909 608.331-1.157Q608.745-1.322 609.013-1.508Q609.282-1.694 609.282-2.024Q609.282-2.231 608.951-2.685L604.283-8.303Q604.118-8.551 603.953-8.551Q603.746-8.509 603.746-8.261Q603.705-7.642 603.705-6.981Q603.705-6.320 603.705-5.618Q603.705-4.916 603.705-4.172Q603.705-3.428 603.746-2.726Q603.746-1.983 604.118-1.652Q604.490-1.322 605.110-1.115Q605.440-0.991 605.729-0.847Q606.018-0.702 606.018-0.372Q606.018-0.083 605.688 0.021Q605.357 0.124 605.151 0.124Q604.325 0.124 603.870 0.062Q603.416 0 602.962-0.041Q602.507-0.083 601.805-0.083Q600.731-0.083 600.070 0.021Q599.409 0.124 598.211 0.124M626.217 0.620Q623.987 0.620 622.252-0.537Q620.517-1.694 619.546-3.718Q618.576-5.742 618.576-8.427Q618.576-10.864 619.712-12.888Q620.848-14.912 622.748-16.130Q624.648-17.349 626.920-17.349Q629.481-17.349 631.154-15.841Q632.827-14.334 632.827-11.979Q632.827-10.616 631.546-10.616L622.996-10.616Q622.417-10.616 622.190-10.285Q621.963-9.955 621.963-9.088Q621.963-7.270 622.748-5.762Q623.533-4.255 624.896-3.346Q626.259-2.437 627.952-2.437Q629.192-2.437 630.204-2.912Q631.216-3.387 632.083-4.255Q632.331-4.585 632.537-4.585Q632.909-4.585 632.909-4.131Q632.909-3.470 632.331-2.561Q631.505-1.239 629.894-0.310Q628.283 0.620 626.217 0.620M623.078-12.020L626.341-12.020Q627.415-12.020 628.014-12.062Q628.613-12.103 629.192-12.227Q629.563-12.310 629.563-13.260Q629.563-14.375 628.613-15.201Q627.663-16.027 626.341-16.027Q625.433-16.027 624.545-15.490Q623.656-14.953 623.078-14.148Q622.500-13.342 622.541-12.516Q622.541-12.020 623.078-12.020M649.143 0.785Q649.060 0.785 648.854 0.578Q648.647 0.372 648.647 0.289Q648.689-0.207 648.771-0.909Q648.854-1.611 648.854-2.107L648.854-2.355Q648.152-1.281 646.747-0.351Q645.343 0.578 643.443 0.578Q641.088 0.578 639.353-0.640Q637.618-1.859 636.648-3.800Q635.677-5.742 635.677-7.931Q635.677-10.451 636.833-12.599Q637.990-14.747 640.138-16.048Q642.286-17.349 645.178-17.349Q645.962-17.349 646.727-17.204Q647.491-17.060 647.986-16.895Q648.441-16.771 648.523-16.771Q648.813-16.771 648.813-17.638L648.813-23.132Q648.813-24.743 648.317-25.342Q647.821-25.941 646.871-26.147Q646.458-26.230 646.458-26.726Q646.458-27.139 646.830-27.263Q648.565-27.676 649.804-28.130Q651.043-28.585 651.787-28.874Q652.282-29.080 652.489-29.080Q652.778-29.080 652.819-28.750Q652.819-28.585 652.695-27.449Q652.572-26.313 652.572-24.123L652.489-4.668Q652.489-3.263 652.695-2.644Q652.902-2.024 653.398-2.024Q653.604-2.024 654.017-2.045Q654.430-2.065 655.133-2.148Q655.793-2.189 655.793-1.735Q655.793-1.446 655.587-1.177Q655.380-0.909 655.174-0.909Q653.893-0.744 652.613-0.413Q651.332-0.083 649.845 0.537Q649.515 0.702 649.391 0.744Q649.267 0.785 649.143 0.785M645.136-1.818Q646.045-1.818 647.057-2.293Q648.069-2.768 648.771-3.552L648.771-11.607Q648.771-12.557 648.172-13.507Q647.573-14.458 646.541-15.077Q645.508-15.697 644.186-15.697Q643.236-15.697 642.162-15.056Q641.088-14.416 640.345-12.929Q639.601-11.442 639.601-8.922Q639.601-6.816 640.179-5.432Q640.758-4.048 641.646-3.263Q642.534-2.478 643.484-2.148Q644.434-1.818 645.136-1.818" fill="#050505" transform="translate(0 0.8)" opacity="0.8"/>
    <path d="M1.033 0.207Q0.537 0.207 0.207 0.062Q-0.124-0.083-0.124-0.372Q-0.124-0.909 1.115-1.322Q2.231-1.652 3.139-2.313Q4.048-2.974 4.626-4.337Q6.113-7.724 7.332-10.699Q8.551-13.673 9.707-16.709Q10.864-19.745 12.144-23.339Q12.516-24.289 12.681-24.929Q12.847-25.569 12.888-26.065Q13.425-26.189 13.879-26.333Q14.334-26.478 14.871-26.767Q15.366-27.015 15.635-27.469Q15.903-27.924 16.069-28.172Q16.316-28.337 16.440-28.089Q16.564-27.882 16.626-27.635Q16.688-27.387 16.771-27.098Q17.721-24.082 18.733-20.963Q19.745-17.845 20.736-14.891Q21.728-11.938 22.595-9.377Q23.463-6.816 24.082-4.916Q24.784-2.892 25.776-2.189Q26.767-1.487 28.006-1.239Q29.246-0.991 29.246-0.289Q29.246-0.041 28.936 0.062Q28.626 0.165 28.172 0.165Q27.511 0.165 26.437 0.103Q25.363 0.041 24.185 0Q23.008-0.041 22.099-0.041Q20.860-0.041 19.435 0Q18.010 0.041 17.101 0.041Q16.606 0.041 16.296-0.103Q15.986-0.248 15.986-0.496Q15.986-0.785 16.358-1.012Q16.729-1.239 17.225-1.322Q19.993-1.818 19.786-3.387Q19.745-4.048 19.497-5.122Q19.249-6.196 18.919-7.373Q18.588-8.551 18.299-9.542Q18.134-10.038 17.308-10.038L9.666-10.038Q9.212-10.038 8.964-9.335Q8.757-8.716 8.406-7.580Q8.055-6.444 7.745-5.370Q7.435-4.296 7.394-3.842Q7.270-2.850 7.910-2.231Q8.551-1.611 9.831-1.281Q11.070-0.991 11.070-0.454Q11.070 0.041 9.955 0.041Q9.170 0.041 8.138 0Q7.105-0.041 5.948-0.041Q4.626-0.041 3.387 0.083Q2.148 0.207 1.033 0.207M10.822-11.731L16.853-11.731Q17.432-11.731 17.432-11.938Q17.432-12.020 17.411-12.124Q17.390-12.227 17.349-12.392L14.292-22.182Q14.086-22.843 13.962-22.843Q13.879-22.843 13.673-22.223L10.079-12.392Q9.996-12.144 9.996-12.062Q9.996-11.731 10.822-11.731M31.228 0.165Q30.774 0.165 30.464 0.041Q30.154-0.083 30.154-0.330Q30.154-0.867 31.352-1.115Q32.881-1.404 33.645-2.024Q34.409-2.644 34.409-4.048L34.409-22.719Q34.409-24.165 33.831-24.743Q33.252-25.321 31.683-25.652Q30.485-25.858 30.485-26.478Q30.485-26.767 30.795-26.891Q31.104-27.015 31.517-27.015Q33.128-27.015 34.264-26.932Q35.400-26.850 36.763-26.850Q38.044-26.850 39.139-26.912Q40.233-26.974 41.803-26.974Q42.877-26.974 42.877-26.478Q42.877-25.900 41.679-25.652Q40.068-25.321 39.428-24.722Q38.787-24.123 38.787-22.719L38.787-4.048Q38.787-2.685 39.552-2.065Q40.316-1.446 41.886-1.115Q43.083-0.867 43.083-0.330Q43.083 0.165 42.051 0.165Q40.481 0.165 39.304 0.062Q38.127-0.041 36.763-0.041Q35.318-0.041 34.058 0.062Q32.798 0.165 31.228 0.165M45.644-6.940Q45.355-6.940 45.355-7.229Q45.355-8.138 45.541-8.840Q45.727-9.542 46.099-9.583Q48.164-9.914 50.312-10.182Q52.460-10.451 54.526-10.657Q54.980-10.699 54.980-10.285Q54.980-9.377 54.794-8.736Q54.608-8.096 54.112-8.055Q52.130-7.766 49.982-7.456Q47.834-7.146 45.644-6.940M65.307 0.620Q63.076 0.620 61.341-0.537Q59.606-1.694 58.636-3.718Q57.665-5.742 57.665-8.427Q57.665-10.864 58.801-12.888Q59.937-14.912 61.837-16.130Q63.737-17.349 66.009-17.349Q68.570-17.349 70.243-15.841Q71.916-14.334 71.916-11.979Q71.916-10.616 70.635-10.616L62.085-10.616Q61.506-10.616 61.279-10.285Q61.052-9.955 61.052-9.088Q61.052-7.270 61.837-5.762Q62.622-4.255 63.985-3.346Q65.348-2.437 67.042-2.437Q68.281-2.437 69.293-2.912Q70.305-3.387 71.172-4.255Q71.420-4.585 71.627-4.585Q71.998-4.585 71.998-4.131Q71.998-3.470 71.420-2.561Q70.594-1.239 68.983-0.310Q67.372 0.620 65.307 0.620M62.167-12.020L65.431-12.020Q66.505-12.020 67.104-12.062Q67.703-12.103 68.281-12.227Q68.653-12.310 68.653-13.260Q68.653-14.375 67.703-15.201Q66.752-16.027 65.431-16.027Q64.522-16.027 63.634-15.490Q62.746-14.953 62.167-14.148Q61.589-13.342 61.630-12.516Q61.630-12.020 62.167-12.020M88.232 0.785Q88.150 0.785 87.943 0.578Q87.737 0.372 87.737 0.289Q87.778-0.207 87.860-0.909Q87.943-1.611 87.943-2.107L87.943-2.355Q87.241-1.281 85.836-0.351Q84.432 0.578 82.532 0.578Q80.177 0.578 78.442-0.640Q76.708-1.859 75.737-3.800Q74.766-5.742 74.766-7.931Q74.766-10.451 75.923-12.599Q77.079-14.747 79.227-16.048Q81.375-17.349 84.267-17.349Q85.052-17.349 85.816-17.204Q86.580-17.060 87.076-16.895Q87.530-16.771 87.613-16.771Q87.902-16.771 87.902-17.638L87.902-23.132Q87.902-24.743 87.406-25.342Q86.910-25.941 85.960-26.147Q85.547-26.230 85.547-26.726Q85.547-27.139 85.919-27.263Q87.654-27.676 88.893-28.130Q90.132-28.585 90.876-28.874Q91.372-29.080 91.578-29.080Q91.867-29.080 91.909-28.750Q91.909-28.585 91.785-27.449Q91.661-26.313 91.661-24.123L91.578-4.668Q91.578-3.263 91.785-2.644Q91.991-2.024 92.487-2.024Q92.693-2.024 93.106-2.045Q93.520-2.065 94.222-2.148Q94.883-2.189 94.883-1.735Q94.883-1.446 94.676-1.177Q94.470-0.909 94.263-0.909Q92.983-0.744 91.702-0.413Q90.422-0.083 88.934 0.537Q88.604 0.702 88.480 0.744Q88.356 0.785 88.232 0.785M84.225-1.818Q85.134-1.818 86.146-2.293Q87.158-2.768 87.860-3.552L87.860-11.607Q87.860-12.557 87.262-13.507Q86.663-14.458 85.630-15.077Q84.597-15.697 83.275-15.697Q82.325-15.697 81.251-15.056Q80.177-14.416 79.434-12.929Q78.690-11.442 78.690-8.922Q78.690-6.816 79.269-5.432Q79.847-4.048 80.735-3.263Q81.623-2.478 82.573-2.148Q83.523-1.818 84.225-1.818M109.712 0.578Q108.845 0.578 108.018 0.021Q107.192-0.537 106.655-1.384Q106.118-2.231 106.118-3.057Q106.118-4.420 106.882-5.246Q107.647-6.072 109.258-6.733L113.264-8.427Q114.091-8.757 114.256-9.026Q114.421-9.294 114.462-10.120L114.545-12.640Q114.545-13.755 113.987-14.499Q113.430-15.242 112.314-15.242Q110.993-15.242 110.166-14.499Q109.960-14.292 109.898-14.024Q109.836-13.755 109.836-13.425Q109.836-13.218 109.857-12.950Q109.877-12.681 109.877-12.516Q109.877-12.268 109.320-11.917Q108.762-11.566 108.039-11.277Q107.316-10.988 106.820-10.988Q106.283-10.988 106.283-11.525Q106.283-12.888 108.018-14.375Q109.464-15.655 111.323-16.502Q113.182-17.349 114.504-17.349Q116.239-17.349 117.313-16.172Q118.386-14.995 118.345-13.136L118.139-3.800Q118.139-2.892 118.531-2.313Q118.923-1.735 119.543-1.735Q120.493-1.735 121.030-2.231Q121.195-2.396 121.319-2.396Q121.815-2.396 121.815-1.941Q121.815-1.446 121.237-0.909Q119.750 0.578 118.180 0.578Q116.115 0.578 114.875-1.652L114.751-1.652Q113.388-0.454 112.211 0.062Q111.034 0.578 109.712 0.578M111.860-1.652Q112.521-1.652 113.017-1.879Q113.512-2.107 113.884-2.520Q114.091-2.726 114.214-3.036Q114.338-3.346 114.338-4.007L114.421-6.361Q114.462-7.146 114.049-7.146Q113.843-7.146 113.347-6.940Q111.488-6.237 110.745-5.473Q110.001-4.709 110.001-3.800Q110.001-2.685 110.600-2.169Q111.199-1.652 111.860-1.652M123.963 0.124Q123.633 0.124 123.385 0Q123.137-0.124 123.137-0.372Q123.137-0.702 123.385-0.847Q123.633-0.991 124.087-1.115Q124.707-1.281 125.243-1.549Q125.780-1.818 125.780-2.685L125.780-11.773Q125.780-12.764 125.533-13.507Q125.285-14.251 124.335-14.499Q123.922-14.623 123.922-15.077Q123.922-15.573 124.293-15.655Q125.698-16.027 126.896-16.564Q128.094-17.101 129.085-17.762Q129.209-17.845 129.354-17.927Q129.498-18.010 129.622-18.010Q129.911-18.010 129.911-17.638Q129.911-17.349 129.808-16.523Q129.705-15.697 129.705-15.118Q129.705-14.664 129.787-14.581Q131.192-15.945 132.761-16.647Q134.331-17.349 136.273-17.349Q138.338-17.349 139.701-15.717Q141.064-14.086 141.064-11.566L141.064-2.644Q141.064-1.818 141.622-1.549Q142.179-1.281 142.799-1.115Q143.130-0.991 143.419-0.805Q143.708-0.620 143.708-0.330Q143.708-0.083 143.439 0.021Q143.171 0.124 142.923 0.124Q141.684 0.124 141.002 0.021Q140.321-0.083 139.205-0.083Q138.131-0.083 137.429 0.021Q136.727 0.124 135.488 0.124Q135.281 0.124 134.992 0.021Q134.703-0.083 134.703-0.330Q134.703-0.620 134.992-0.805Q135.281-0.991 135.612-1.115Q136.231-1.281 136.768-1.549Q137.305-1.818 137.305-2.644L137.305-11.194Q137.305-12.888 136.376-13.879Q135.446-14.871 133.959-14.871Q132.679-14.871 131.708-14.478Q130.737-14.086 129.911-13.425Q129.581-13.136 129.581-12.557L129.581-2.644Q129.581-1.818 130.097-1.549Q130.613-1.281 131.233-1.115Q132.142-0.867 132.142-0.372Q132.142 0.124 131.357 0.124Q130.118 0.124 129.457 0.021Q128.796-0.083 127.722-0.083Q126.607-0.083 125.904 0.021Q125.202 0.124 123.963 0.124M159.694 0.785Q159.611 0.785 159.405 0.578Q159.198 0.372 159.198 0.289Q159.239-0.207 159.322-0.909Q159.405-1.611 159.405-2.107L159.405-2.355Q158.702-1.281 157.298-0.351Q155.893 0.578 153.993 0.578Q151.639 0.578 149.904-0.640Q148.169-1.859 147.198-3.800Q146.228-5.742 146.228-7.931Q146.228-10.451 147.384-12.599Q148.541-14.747 150.689-16.048Q152.837-17.349 155.728-17.349Q156.513-17.349 157.277-17.204Q158.041-17.060 158.537-16.895Q158.991-16.771 159.074-16.771Q159.363-16.771 159.363-17.638L159.363-23.132Q159.363-24.743 158.868-25.342Q158.372-25.941 157.422-26.147Q157.009-26.230 157.009-26.726Q157.009-27.139 157.381-27.263Q159.115-27.676 160.355-28.130Q161.594-28.585 162.337-28.874Q162.833-29.080 163.040-29.080Q163.329-29.080 163.370-28.750Q163.370-28.585 163.246-27.449Q163.122-26.313 163.122-24.123L163.040-4.668Q163.040-3.263 163.246-2.644Q163.453-2.024 163.948-2.024Q164.155-2.024 164.568-2.045Q164.981-2.065 165.683-2.148Q166.344-2.189 166.344-1.735Q166.344-1.446 166.138-1.177Q165.931-0.909 165.725-0.909Q164.444-0.744 163.164-0.413Q161.883-0.083 160.396 0.537Q160.065 0.702 159.942 0.744Q159.818 0.785 159.694 0.785M155.687-1.818Q156.596-1.818 157.608-2.293Q158.620-2.768 159.322-3.552L159.322-11.607Q159.322-12.557 158.723-13.507Q158.124-14.458 157.091-15.077Q156.059-15.697 154.737-15.697Q153.787-15.697 152.713-15.056Q151.639-14.416 150.895-12.929Q150.152-11.442 150.152-8.922Q150.152-6.816 150.730-5.432Q151.308-4.048 152.196-3.263Q153.085-2.478 154.035-2.148Q154.985-1.818 155.687-1.818M177.786 11.442Q177.538 11.442 177.229 11.339Q176.919 11.236 176.919 10.988Q176.919 10.657 177.208 10.492Q177.497 10.327 177.869 10.203Q178.571 9.996 179.067 9.707Q179.562 9.418 179.562 8.633L179.562-11.896Q179.562-12.268 179.377-12.888Q179.191-13.507 178.778-14.024Q178.365-14.540 177.745-14.664Q177.332-14.747 177.332-15.284Q177.332-15.779 177.704-15.862Q179.191-16.192 180.513-16.667Q181.834-17.142 182.867-17.638Q182.950-17.638 183.032-17.700Q183.115-17.762 183.198-17.762Q183.487-17.762 183.487-17.349Q183.487-16.977 183.383-16.192Q183.280-15.408 183.280-14.871Q183.280-14.540 183.321-14.499Q183.735-14.871 184.809-15.532Q185.883-16.192 187.266-16.729Q188.650-17.266 189.972-17.266Q192.120-17.266 193.648-16.110Q195.177-14.953 196.003-13.136Q196.829-11.318 196.829-9.377Q196.829-7.477 196.106-5.700Q195.383-3.924 194.103-2.499Q192.822-1.074 191.108-0.227Q189.394 0.620 187.411 0.620Q186.626 0.620 185.407 0.289Q184.189-0.041 183.528-0.537Q183.445-0.537 183.404-0.186Q183.363 0.165 183.363 0.558Q183.363 0.950 183.363 1.115L183.363 8.509Q183.363 9.377 184.127 9.687Q184.891 9.996 185.676 10.244Q186.048 10.368 186.337 10.533Q186.626 10.699 186.626 10.988Q186.626 11.236 186.316 11.339Q186.006 11.442 185.759 11.442Q184.561 11.442 183.569 11.339Q182.578 11.236 181.504 11.236Q180.389 11.236 179.686 11.339Q178.984 11.442 177.786 11.442M187.783-0.867Q188.320-0.867 189.125-1.219Q189.931-1.570 190.736-2.396Q191.542-3.222 192.079-4.585Q192.616-5.948 192.616-7.972Q192.616-10.327 192.058-11.731Q191.500-13.136 190.674-13.859Q189.848-14.581 189.001-14.829Q188.154-15.077 187.576-15.077Q186.626-15.077 185.676-14.685Q184.726-14.292 184.086-13.797Q183.445-13.301 183.445-13.012Q183.445-12.062 183.425-10.740Q183.404-9.418 183.383-8.220Q183.363-7.022 183.363-6.568Q183.363-5.122 184.003-3.821Q184.643-2.520 185.655-1.694Q186.667-0.867 187.783-0.867M200.381 0.124Q199.555 0.124 199.555-0.372Q199.555-0.702 199.803-0.847Q200.051-0.991 200.505-1.115Q202.075-1.487 202.075-2.685L202.075-11.773Q202.075-12.805 201.786-13.528Q201.497-14.251 200.547-14.458Q200.092-14.581 200.092-15.077Q200.092-15.532 200.505-15.655Q201.662-15.986 202.984-16.585Q204.306-17.184 205.132-17.638Q205.710-17.969 205.875-17.969Q206.164-17.969 206.164-17.638Q206.164-17.390 206.123-16.358Q206.082-15.325 206.040-14.458Q206.040-14.292 206.123-14.292Q207.114-15.532 208.436-16.461Q209.758-17.390 211.039-17.390Q212.113-17.390 212.691-16.936Q213.269-16.482 213.269-15.821Q213.269-15.366 213.001-14.767Q212.732-14.168 212.298-13.735Q211.865-13.301 211.369-13.301Q211.080-13.301 210.749-13.446Q210.419-13.590 210.047-13.755Q209.675-13.921 209.324-14.065Q208.973-14.210 208.684-14.210Q207.651-14.210 206.784-13.466Q205.917-12.723 205.917-10.575L205.917-2.809Q205.917-2.148 206.474-1.776Q207.032-1.404 208.064-1.074Q208.519-0.950 208.767-0.805Q209.015-0.661 209.015-0.372Q209.015 0.124 208.230 0.124Q206.990 0.124 206.123 0.021Q205.256-0.083 204.140-0.083Q203.066-0.083 202.343 0.021Q201.621 0.124 200.381 0.124M223.555 0.578Q221.200 0.578 219.279-0.496Q217.359-1.570 216.243-3.490Q215.128-5.411 215.128-7.848Q215.128-9.666 215.830-11.359Q216.532-13.053 217.813-14.416Q219.094-15.779 220.766-16.585Q222.439-17.390 224.422-17.390Q226.859-17.390 228.842-16.213Q230.825-15.036 231.981-13.115Q233.138-11.194 233.138-8.964Q233.138-6.444 232.064-4.275Q230.990-2.107 228.863-0.764Q226.735 0.578 223.555 0.578M224.422-0.867Q225.620-0.867 226.570-1.322Q227.520-1.776 228.057-2.809Q228.553-3.759 228.739-5.122Q228.925-6.485 228.925-7.972Q228.925-10.038 228.264-11.835Q227.603-13.631 226.446-14.767Q225.290-15.903 223.720-15.903Q222.770-15.903 222.026-15.614Q221.283-15.325 220.622-14.540Q219.837-13.549 219.589-12.062Q219.341-10.575 219.341-8.798Q219.341-6.816 220.002-4.978Q220.663-3.139 221.799-2.003Q222.935-0.867 224.422-0.867M249.661 0.826Q249.330 0.826 249.330 0.454Q249.330 0.041 249.434-0.785Q249.537-1.611 249.537-2.107Q249.537-2.313 249.537-2.437Q246.604 0.578 242.804 0.578Q240.821 0.578 239.499-0.805Q238.177-2.189 238.177-4.626L238.177-12.805Q238.177-13.714 237.785-14.272Q237.393-14.829 236.443-15.118Q236.195-15.201 236.029-15.346Q235.864-15.490 235.864-15.821Q235.864-16.440 236.484-16.523Q238.012-16.606 239.004-16.791Q239.995-16.977 241.234-17.308Q241.606-17.390 241.771-17.390Q242.267-17.390 242.226-16.812Q242.102-15.821 242.019-15.180Q241.936-14.540 241.936-13.631L241.936-5.618Q241.936-4.131 242.886-3.077Q243.837-2.024 245.076-1.983Q245.985-1.983 246.749-2.127Q247.513-2.272 248.215-2.850Q248.587-3.139 249.145-3.842Q249.702-4.544 249.702-5.783L249.702-13.012Q249.702-13.797 249.268-14.272Q248.835-14.747 248.236-14.933Q247.637-15.118 247.141-15.160Q246.728-15.160 246.480-15.325Q246.232-15.490 246.232-15.903Q246.232-16.316 246.501-16.461Q246.769-16.606 247.141-16.606Q248.669-16.688 249.661-16.771Q250.652-16.853 251.375-16.977Q252.098-17.101 252.883-17.308Q252.965-17.349 253.089-17.370Q253.213-17.390 253.337-17.390Q253.915-17.390 253.915-16.936Q253.915-16.853 253.874-16.729Q253.833-16.606 253.792-16.482Q253.750-16.316 253.688-15.759Q253.626-15.201 253.564-14.581Q253.502-13.962 253.502-13.590L253.502-4.048Q253.502-2.974 253.730-2.561Q253.957-2.148 254.246-2.148Q254.494-2.148 255.051-2.189Q255.609-2.231 255.898-2.231Q256.146-2.231 256.353-2.107Q256.559-1.983 256.559-1.611Q256.559-0.991 255.940-0.950Q254.205-0.744 252.883-0.289Q251.561 0.165 250.570 0.537Q250.404 0.620 250.136 0.723Q249.867 0.826 249.661 0.826M272.091 0.785Q272.008 0.785 271.802 0.578Q271.595 0.372 271.595 0.289Q271.636-0.207 271.719-0.909Q271.802-1.611 271.802-2.107L271.802-2.355Q271.099-1.281 269.695-0.351Q268.290 0.578 266.390 0.578Q264.036 0.578 262.301-0.640Q260.566-1.859 259.595-3.800Q258.625-5.742 258.625-7.931Q258.625-10.451 259.781-12.599Q260.938-14.747 263.086-16.048Q265.234-17.349 268.125-17.349Q268.910-17.349 269.674-17.204Q270.438-17.060 270.934-16.895Q271.388-16.771 271.471-16.771Q271.760-16.771 271.760-17.638L271.760-23.132Q271.760-24.743 271.265-25.342Q270.769-25.941 269.819-26.147Q269.406-26.230 269.406-26.726Q269.406-27.139 269.777-27.263Q271.512-27.676 272.752-28.130Q273.991-28.585 274.734-28.874Q275.230-29.080 275.437-29.080Q275.726-29.080 275.767-28.750Q275.767-28.585 275.643-27.449Q275.519-26.313 275.519-24.123L275.437-4.668Q275.437-3.263 275.643-2.644Q275.850-2.024 276.345-2.024Q276.552-2.024 276.965-2.045Q277.378-2.065 278.080-2.148Q278.741-2.189 278.741-1.735Q278.741-1.446 278.535-1.177Q278.328-0.909 278.122-0.909Q276.841-0.744 275.560-0.413Q274.280-0.083 272.793 0.537Q272.462 0.702 272.339 0.744Q272.215 0.785 272.091 0.785M268.084-1.818Q268.993-1.818 270.005-2.293Q271.017-2.768 271.719-3.552L271.719-11.607Q271.719-12.557 271.120-13.507Q270.521-14.458 269.488-15.077Q268.456-15.697 267.134-15.697Q266.184-15.697 265.110-15.056Q264.036-14.416 263.292-12.929Q262.549-11.442 262.549-8.922Q262.549-6.816 263.127-5.432Q263.705-4.048 264.593-3.263Q265.482-2.478 266.432-2.148Q267.382-1.818 268.084-1.818M293.116-5.907Q292.001-5.907 291.237-6.692Q290.472-7.477 290.472-8.551Q290.472-9.666 291.237-10.451Q292.001-11.236 293.116-11.236Q294.190-11.236 294.975-10.451Q295.760-9.666 295.760-8.551Q295.760-7.477 294.975-6.692Q294.190-5.907 293.116-5.907M316 0.620Q313.894 0.620 312.200-0.475Q310.506-1.570 309.515-3.470Q308.524-5.370 308.524-7.724Q308.524-10.409 309.722-12.599Q310.919-14.788 312.923-16.069Q314.926-17.349 317.405-17.349Q320.379-17.349 322.444-15.655Q322.899-15.284 322.899-14.871Q322.899-14.540 322.568-14.127Q322.238-13.714 321.804-13.404Q321.370-13.094 321.040-13.094Q320.751-13.094 320.523-13.260Q320.296-13.425 320.007-13.631Q319.057-14.416 317.942-15.015Q316.826-15.614 316.042-15.614Q314.183-15.614 313.088-13.941Q311.993-12.268 311.993-9.253Q311.993-7.270 312.758-5.742Q313.522-4.213 314.864-3.346Q316.207-2.478 317.942-2.478Q319.181-2.478 320.048-2.871Q320.916-3.263 321.907-4.213Q322.238-4.461 322.444-4.461Q322.899-4.461 322.899-3.883Q322.899-3.387 322.403-2.644Q321.535-1.363 319.842-0.372Q318.148 0.620 316 0.620M326.410 0.124Q325.584 0.124 325.584-0.372Q325.584-0.702 325.831-0.847Q326.079-0.991 326.534-1.115Q328.103-1.487 328.103-2.685L328.103-11.773Q328.103-12.805 327.814-13.528Q327.525-14.251 326.575-14.458Q326.121-14.581 326.121-15.077Q326.121-15.532 326.534-15.655Q327.690-15.986 329.012-16.585Q330.334-17.184 331.160-17.638Q331.738-17.969 331.904-17.969Q332.193-17.969 332.193-17.638Q332.193-17.390 332.151-16.358Q332.110-15.325 332.069-14.458Q332.069-14.292 332.151-14.292Q333.143-15.532 334.465-16.461Q335.786-17.390 337.067-17.390Q338.141-17.390 338.719-16.936Q339.298-16.482 339.298-15.821Q339.298-15.366 339.029-14.767Q338.761-14.168 338.327-13.735Q337.893-13.301 337.397-13.301Q337.108-13.301 336.778-13.446Q336.447-13.590 336.076-13.755Q335.704-13.921 335.353-14.065Q335.002-14.210 334.712-14.210Q333.680-14.210 332.812-13.466Q331.945-12.723 331.945-10.575L331.945-2.809Q331.945-2.148 332.502-1.776Q333.060-1.404 334.093-1.074Q334.547-0.950 334.795-0.805Q335.043-0.661 335.043-0.372Q335.043 0.124 334.258 0.124Q333.019 0.124 332.151 0.021Q331.284-0.083 330.169-0.083Q329.095-0.083 328.372 0.021Q327.649 0.124 326.410 0.124M348.633 0.620Q346.402 0.620 344.667-0.537Q342.933-1.694 341.962-3.718Q340.991-5.742 340.991-8.427Q340.991-10.864 342.127-12.888Q343.263-14.912 345.163-16.130Q347.063-17.349 349.335-17.349Q351.896-17.349 353.569-15.841Q355.242-14.334 355.242-11.979Q355.242-10.616 353.962-10.616L345.411-10.616Q344.833-10.616 344.606-10.285Q344.378-9.955 344.378-9.088Q344.378-7.270 345.163-5.762Q345.948-4.255 347.311-3.346Q348.674-2.437 350.368-2.437Q351.607-2.437 352.619-2.912Q353.631-3.387 354.499-4.255Q354.746-4.585 354.953-4.585Q355.325-4.585 355.325-4.131Q355.325-3.470 354.746-2.561Q353.920-1.239 352.309-0.310Q350.698 0.620 348.633 0.620M345.494-12.020L348.757-12.020Q349.831-12.020 350.430-12.062Q351.029-12.103 351.607-12.227Q351.979-12.310 351.979-13.260Q351.979-14.375 351.029-15.201Q350.079-16.027 348.757-16.027Q347.848-16.027 346.960-15.490Q346.072-14.953 345.494-14.148Q344.915-13.342 344.957-12.516Q344.957-12.020 345.494-12.020M371.558 0.785Q371.476 0.785 371.269 0.578Q371.063 0.372 371.063 0.289Q371.104-0.207 371.187-0.909Q371.269-1.611 371.269-2.107L371.269-2.355Q370.567-1.281 369.163-0.351Q367.758 0.578 365.858 0.578Q363.504 0.578 361.769-0.640Q360.034-1.859 359.063-3.800Q358.092-5.742 358.092-7.931Q358.092-10.451 359.249-12.599Q360.406-14.747 362.553-16.048Q364.701-17.349 367.593-17.349Q368.378-17.349 369.142-17.204Q369.906-17.060 370.402-16.895Q370.856-16.771 370.939-16.771Q371.228-16.771 371.228-17.638L371.228-23.132Q371.228-24.743 370.732-25.342Q370.237-25.941 369.287-26.147Q368.873-26.230 368.873-26.726Q368.873-27.139 369.245-27.263Q370.980-27.676 372.219-28.130Q373.459-28.585 374.202-28.874Q374.698-29.080 374.904-29.080Q375.194-29.080 375.235-28.750Q375.235-28.585 375.111-27.449Q374.987-26.313 374.987-24.123L374.904-4.668Q374.904-3.263 375.111-2.644Q375.317-2.024 375.813-2.024Q376.020-2.024 376.433-2.045Q376.846-2.065 377.548-2.148Q378.209-2.189 378.209-1.735Q378.209-1.446 378.002-1.177Q377.796-0.909 377.589-0.909Q376.309-0.744 375.028-0.413Q373.748-0.083 372.261 0.537Q371.930 0.702 371.806 0.744Q371.682 0.785 371.558 0.785M367.552-1.818Q368.460-1.818 369.472-2.293Q370.484-2.768 371.187-3.552L371.187-11.607Q371.187-12.557 370.588-13.507Q369.989-14.458 368.956-15.077Q367.923-15.697 366.602-15.697Q365.652-15.697 364.578-15.056Q363.504-14.416 362.760-12.929Q362.016-11.442 362.016-8.922Q362.016-6.816 362.595-5.432Q363.173-4.048 364.061-3.263Q364.949-2.478 365.899-2.148Q366.849-1.818 367.552-1.818M380.563 0.124Q379.779 0.124 379.779-0.372Q379.779-0.661 380.047-0.826Q380.316-0.991 380.646-1.074Q381.596-1.322 382.051-1.611Q382.505-1.900 382.505-2.644L382.505-11.566Q382.505-12.805 382.092-13.569Q381.679-14.334 380.646-14.499Q380.233-14.540 380.233-15.118Q380.233-15.614 380.605-15.655Q382.422-16.069 383.723-16.729Q385.025-17.390 385.686-17.845Q386.140-18.134 386.346-18.134Q386.677-18.134 386.677-17.803Q386.677-17.349 386.574-16.358Q386.470-15.366 386.367-14.189Q386.264-13.012 386.264-12.062L386.264-2.644Q386.264-1.983 386.718-1.652Q387.173-1.322 388.123-1.074Q388.453-0.991 388.722-0.847Q388.990-0.702 388.990-0.372Q388.990 0.124 388.247 0.124Q387.049 0.124 386.243 0.021Q385.438-0.083 384.364-0.083Q383.290-0.083 382.526 0.021Q381.761 0.124 380.563 0.124M384.281-20.984Q383.248-20.984 382.526-21.707Q381.803-22.430 381.803-23.463Q381.803-24.536 382.526-25.259Q383.248-25.982 384.281-25.982Q385.355-25.982 386.099-25.259Q386.842-24.536 386.842-23.463Q386.842-22.430 386.099-21.707Q385.355-20.984 384.281-20.984M398.367 0.578Q396.095 0.578 394.876-0.702Q393.658-1.983 393.658-4.461L393.658-14.044Q393.658-14.375 393.389-14.519Q393.121-14.664 392.336-14.664L392.006-14.664Q391.758-14.664 391.592-15.015Q391.427-15.366 391.427-15.697Q391.427-15.986 391.716-16.110Q392.997-16.853 394.257-17.927Q395.517-19.001 396.219-19.745Q396.425-19.993 396.611-20.137Q396.797-20.282 397.045-20.282Q397.293-20.282 397.479-20.158Q397.665-20.034 397.623-19.662L397.375-17.638Q397.334-17.142 397.603-16.977Q397.871-16.812 398.367-16.812L403.158-16.812Q403.282-16.812 403.406-16.523Q403.530-16.234 403.530-15.945Q403.530-15.490 403.406-15.077Q403.282-14.664 403.117-14.664L399.110-14.664Q398.078-14.664 397.768-14.478Q397.458-14.292 397.458-13.507L397.458-5.494Q397.458-1.900 400.143-1.900Q401.341-1.900 401.961-2.086Q402.580-2.272 403.076-2.602Q403.200-2.685 403.282-2.685Q403.448-2.685 403.530-2.478Q403.613-2.272 403.613-2.024Q403.613-1.776 402.869-1.157Q402.126-0.537 400.928 0.021Q399.730 0.578 398.367 0.578M413.114 0.620Q410.883 0.620 409.148-0.537Q407.413-1.694 406.442-3.718Q405.472-5.742 405.472-8.427Q405.472-10.864 406.608-12.888Q407.744-14.912 409.644-16.130Q411.544-17.349 413.816-17.349Q416.377-17.349 418.050-15.841Q419.723-14.334 419.723-11.979Q419.723-10.616 418.442-10.616L409.892-10.616Q409.313-10.616 409.086-10.285Q408.859-9.955 408.859-9.088Q408.859-7.270 409.644-5.762Q410.429-4.255 411.792-3.346Q413.155-2.437 414.848-2.437Q416.088-2.437 417.100-2.912Q418.112-3.387 418.979-4.255Q419.227-4.585 419.434-4.585Q419.805-4.585 419.805-4.131Q419.805-3.470 419.227-2.561Q418.401-1.239 416.790-0.310Q415.179 0.620 413.114 0.620M409.974-12.020L413.237-12.020Q414.311-12.020 414.910-12.062Q415.509-12.103 416.088-12.227Q416.459-12.310 416.459-13.260Q416.459-14.375 415.509-15.201Q414.559-16.027 413.237-16.027Q412.329-16.027 411.441-15.490Q410.552-14.953 409.974-14.148Q409.396-13.342 409.437-12.516Q409.437-12.020 409.974-12.020M436.039 0.785Q435.956 0.785 435.750 0.578Q435.543 0.372 435.543 0.289Q435.585-0.207 435.667-0.909Q435.750-1.611 435.750-2.107L435.750-2.355Q435.048-1.281 433.643-0.351Q432.239 0.578 430.339 0.578Q427.984 0.578 426.249-0.640Q424.514-1.859 423.544-3.800Q422.573-5.742 422.573-7.931Q422.573-10.451 423.729-12.599Q424.886-14.747 427.034-16.048Q429.182-17.349 432.074-17.349Q432.858-17.349 433.623-17.204Q434.387-17.060 434.882-16.895Q435.337-16.771 435.419-16.771Q435.709-16.771 435.709-17.638L435.709-23.132Q435.709-24.743 435.213-25.342Q434.717-25.941 433.767-26.147Q433.354-26.230 433.354-26.726Q433.354-27.139 433.726-27.263Q435.461-27.676 436.700-28.130Q437.939-28.585 438.683-28.874Q439.178-29.080 439.385-29.080Q439.674-29.080 439.715-28.750Q439.715-28.585 439.591-27.449Q439.468-26.313 439.468-24.123L439.385-4.668Q439.385-3.263 439.591-2.644Q439.798-2.024 440.294-2.024Q440.500-2.024 440.913-2.045Q441.326-2.065 442.029-2.148Q442.690-2.189 442.690-1.735Q442.690-1.446 442.483-1.177Q442.276-0.909 442.070-0.909Q440.789-0.744 439.509-0.413Q438.228-0.083 436.741 0.537Q436.411 0.702 436.287 0.744Q436.163 0.785 436.039 0.785M432.032-1.818Q432.941-1.818 433.953-2.293Q434.965-2.768 435.667-3.552L435.667-11.607Q435.667-12.557 435.068-13.507Q434.469-14.458 433.437-15.077Q432.404-15.697 431.082-15.697Q430.132-15.697 429.058-15.056Q427.984-14.416 427.241-12.929Q426.497-11.442 426.497-8.922Q426.497-6.816 427.075-5.432Q427.654-4.048 428.542-3.263Q429.430-2.478 430.380-2.148Q431.330-1.818 432.032-1.818M454.297 0.124Q453.966 0.124 453.719 0Q453.471-0.124 453.471-0.372Q453.471-0.702 453.719-0.847Q453.966-0.991 454.421-1.115Q455.040-1.281 455.577-1.549Q456.114-1.818 456.114-2.685L456.114-11.773Q456.114-12.764 455.867-13.507Q455.619-14.251 454.669-14.499Q454.256-14.623 454.256-15.077Q454.256-15.573 454.627-15.655Q456.032-16.027 457.230-16.564Q458.428-17.101 459.419-17.762Q459.543-17.845 459.687-17.927Q459.832-18.010 459.956-18.010Q460.245-18.010 460.245-17.638Q460.245-17.349 460.142-16.523Q460.039-15.697 460.039-15.118Q460.039-14.664 460.121-14.581Q461.526-15.945 463.095-16.647Q464.665-17.349 466.606-17.349Q468.672-17.349 470.035-15.717Q471.398-14.086 471.398-11.566L471.398-2.644Q471.398-1.818 471.956-1.549Q472.513-1.281 473.133-1.115Q473.463-0.991 473.753-0.805Q474.042-0.620 474.042-0.330Q474.042-0.083 473.773 0.021Q473.505 0.124 473.257 0.124Q472.018 0.124 471.336 0.021Q470.654-0.083 469.539-0.083Q468.465-0.083 467.763 0.021Q467.061 0.124 465.822 0.124Q465.615 0.124 465.326 0.021Q465.037-0.083 465.037-0.330Q465.037-0.620 465.326-0.805Q465.615-0.991 465.945-1.115Q466.565-1.281 467.102-1.549Q467.639-1.818 467.639-2.644L467.639-11.194Q467.639-12.888 466.710-13.879Q465.780-14.871 464.293-14.871Q463.013-14.871 462.042-14.478Q461.071-14.086 460.245-13.425Q459.915-13.136 459.915-12.557L459.915-2.644Q459.915-1.818 460.431-1.549Q460.947-1.281 461.567-1.115Q462.476-0.867 462.476-0.372Q462.476 0.124 461.691 0.124Q460.452 0.124 459.791 0.021Q459.130-0.083 458.056-0.083Q456.940-0.083 456.238 0.021Q455.536 0.124 454.297 0.124M484.988 0.578Q482.634 0.578 480.713-0.496Q478.792-1.570 477.677-3.490Q476.561-5.411 476.561-7.848Q476.561-9.666 477.264-11.359Q477.966-13.053 479.246-14.416Q480.527-15.779 482.200-16.585Q483.873-17.390 485.856-17.390Q488.293-17.390 490.275-16.213Q492.258-15.036 493.415-13.115Q494.571-11.194 494.571-8.964Q494.571-6.444 493.497-4.275Q492.423-2.107 490.296-0.764Q488.169 0.578 484.988 0.578M485.856-0.867Q487.053-0.867 488.004-1.322Q488.954-1.776 489.491-2.809Q489.986-3.759 490.172-5.122Q490.358-6.485 490.358-7.972Q490.358-10.038 489.697-11.835Q489.036-13.631 487.880-14.767Q486.723-15.903 485.153-15.903Q484.203-15.903 483.460-15.614Q482.716-15.325 482.055-14.540Q481.270-13.549 481.023-12.062Q480.775-10.575 480.775-8.798Q480.775-6.816 481.436-4.978Q482.097-3.139 483.233-2.003Q484.368-0.867 485.856-0.867M504.526 0.578Q502.255 0.578 501.036-0.702Q499.817-1.983 499.817-4.461L499.817-14.044Q499.817-14.375 499.549-14.519Q499.280-14.664 498.496-14.664L498.165-14.664Q497.917-14.664 497.752-15.015Q497.587-15.366 497.587-15.697Q497.587-15.986 497.876-16.110Q499.156-16.853 500.416-17.927Q501.676-19.001 502.378-19.745Q502.585-19.993 502.771-20.137Q502.957-20.282 503.205-20.282Q503.452-20.282 503.638-20.158Q503.824-20.034 503.783-19.662L503.535-17.638Q503.494-17.142 503.762-16.977Q504.031-16.812 504.526-16.812L509.318-16.812Q509.442-16.812 509.566-16.523Q509.690-16.234 509.690-15.945Q509.690-15.490 509.566-15.077Q509.442-14.664 509.277-14.664L505.270-14.664Q504.237-14.664 503.927-14.478Q503.618-14.292 503.618-13.507L503.618-5.494Q503.618-1.900 506.303-1.900Q507.501-1.900 508.120-2.086Q508.740-2.272 509.235-2.602Q509.359-2.685 509.442-2.685Q509.607-2.685 509.690-2.478Q509.772-2.272 509.772-2.024Q509.772-1.776 509.029-1.157Q508.285-0.537 507.087 0.021Q505.890 0.578 504.526 0.578M527.989 0.578Q525.717 0.578 524.498-0.702Q523.280-1.983 523.280-4.461L523.280-14.044Q523.280-14.375 523.011-14.519Q522.743-14.664 521.958-14.664L521.628-14.664Q521.380-14.664 521.215-15.015Q521.049-15.366 521.049-15.697Q521.049-15.986 521.338-16.110Q522.619-16.853 523.879-17.927Q525.139-19.001 525.841-19.745Q526.047-19.993 526.233-20.137Q526.419-20.282 526.667-20.282Q526.915-20.282 527.101-20.158Q527.287-20.034 527.245-19.662L526.998-17.638Q526.956-17.142 527.225-16.977Q527.493-16.812 527.989-16.812L532.781-16.812Q532.904-16.812 533.028-16.523Q533.152-16.234 533.152-15.945Q533.152-15.490 533.028-15.077Q532.904-14.664 532.739-14.664L528.732-14.664Q527.700-14.664 527.390-14.478Q527.080-14.292 527.080-13.507L527.080-5.494Q527.080-1.900 529.765-1.900Q530.963-1.900 531.583-2.086Q532.202-2.272 532.698-2.602Q532.822-2.685 532.904-2.685Q533.070-2.685 533.152-2.478Q533.235-2.272 533.235-2.024Q533.235-1.776 532.491-1.157Q531.748-0.537 530.550 0.021Q529.352 0.578 527.989 0.578M535.548 0.124Q534.722 0.124 534.722-0.372Q534.722-0.826 535.672-1.115Q536.292-1.281 536.829-1.590Q537.366-1.900 537.366-2.768L537.366-23.132Q537.366-24.247 537.015-25.073Q536.663-25.900 535.631-26.106Q535.259-26.189 535.259-26.726Q535.259-27.139 535.589-27.263Q536.292-27.428 537.262-27.758Q538.233-28.089 539.183-28.419Q540.133-28.750 540.794-29.039Q541.042-29.122 541.166-29.122Q541.496-29.122 541.496-28.750Q541.496-28.543 541.414-28.089Q541.331-27.635 541.249-26.726Q541.166-25.817 541.166-24.123L541.166-16.110Q541.166-15.118 541.414-14.705Q542.075-15.201 543.004-15.821Q543.934-16.440 545.111-16.895Q546.288-17.349 547.610-17.349Q549.717-17.349 551.100-15.779Q552.484-14.210 552.484-11.649L552.484-2.850Q552.484-2.024 553-1.652Q553.517-1.281 554.136-1.115Q554.549-0.950 554.797-0.805Q555.045-0.661 555.045-0.372Q555.045 0.124 554.178 0.124Q553.310 0.124 552.815 0.062Q552.319 0 551.844-0.041Q551.369-0.083 550.625-0.083Q549.840-0.083 549.386-0.041Q548.932 0 548.477 0.062Q548.023 0.124 547.114 0.124Q546.247 0.124 546.247-0.372Q546.247-0.702 546.495-0.826Q546.742-0.950 547.155-1.115Q547.734-1.281 548.229-1.652Q548.725-2.024 548.725-2.892L548.725-11.236Q548.725-12.227 548.209-13.012Q547.692-13.797 546.887-14.272Q546.081-14.747 545.297-14.747Q544.553-14.747 543.624-14.540Q542.694-14.334 542.075-13.838Q541.538-13.425 541.352-12.929Q541.166-12.433 541.166-11.401L541.166-2.768Q541.207-1.941 541.662-1.611Q542.116-1.281 542.694-1.115Q543.603-0.826 543.603-0.372Q543.603 0.124 542.777 0.124Q541.538 0.124 540.939 0.021Q540.340-0.083 539.224-0.083Q538.150-0.083 537.469 0.021Q536.787 0.124 535.548 0.124M561.324 0.578Q560.456 0.578 559.630 0.021Q558.804-0.537 558.267-1.384Q557.730-2.231 557.730-3.057Q557.730-4.420 558.494-5.246Q559.258-6.072 560.869-6.733L564.876-8.427Q565.702-8.757 565.868-9.026Q566.033-9.294 566.074-10.120L566.157-12.640Q566.157-13.755 565.599-14.499Q565.041-15.242 563.926-15.242Q562.604-15.242 561.778-14.499Q561.572-14.292 561.510-14.024Q561.448-13.755 561.448-13.425Q561.448-13.218 561.468-12.950Q561.489-12.681 561.489-12.516Q561.489-12.268 560.931-11.917Q560.374-11.566 559.651-11.277Q558.928-10.988 558.432-10.988Q557.895-10.988 557.895-11.525Q557.895-12.888 559.630-14.375Q561.076-15.655 562.935-16.502Q564.794-17.349 566.115-17.349Q567.850-17.349 568.924-16.172Q569.998-14.995 569.957-13.136L569.751-3.800Q569.751-2.892 570.143-2.313Q570.535-1.735 571.155-1.735Q572.105-1.735 572.642-2.231Q572.807-2.396 572.931-2.396Q573.427-2.396 573.427-1.941Q573.427-1.446 572.849-0.909Q571.362 0.578 569.792 0.578Q567.726 0.578 566.487-1.652L566.363-1.652Q565-0.454 563.823 0.062Q562.646 0.578 561.324 0.578M563.472-1.652Q564.133-1.652 564.628-1.879Q565.124-2.107 565.496-2.520Q565.702-2.726 565.826-3.036Q565.950-3.346 565.950-4.007L566.033-6.361Q566.074-7.146 565.661-7.146Q565.455-7.146 564.959-6.940Q563.100-6.237 562.357-5.473Q561.613-4.709 561.613-3.800Q561.613-2.685 562.212-2.169Q562.811-1.652 563.472-1.652M575.575 0.124Q575.244 0.124 574.997 0Q574.749-0.124 574.749-0.372Q574.749-0.702 574.997-0.847Q575.244-0.991 575.699-1.115Q576.318-1.281 576.855-1.549Q577.392-1.818 577.392-2.685L577.392-11.773Q577.392-12.764 577.145-13.507Q576.897-14.251 575.947-14.499Q575.534-14.623 575.534-15.077Q575.534-15.573 575.905-15.655Q577.310-16.027 578.508-16.564Q579.706-17.101 580.697-17.762Q580.821-17.845 580.965-17.927Q581.110-18.010 581.234-18.010Q581.523-18.010 581.523-17.638Q581.523-17.349 581.420-16.523Q581.317-15.697 581.317-15.118Q581.317-14.664 581.399-14.581Q582.804-15.945 584.373-16.647Q585.943-17.349 587.884-17.349Q589.950-17.349 591.313-15.717Q592.676-14.086 592.676-11.566L592.676-2.644Q592.676-1.818 593.234-1.549Q593.791-1.281 594.411-1.115Q594.741-0.991 595.031-0.805Q595.320-0.620 595.320-0.330Q595.320-0.083 595.051 0.021Q594.783 0.124 594.535 0.124Q593.296 0.124 592.614 0.021Q591.932-0.083 590.817-0.083Q589.743-0.083 589.041 0.021Q588.339 0.124 587.100 0.124Q586.893 0.124 586.604 0.021Q586.315-0.083 586.315-0.330Q586.315-0.620 586.604-0.805Q586.893-0.991 587.223-1.115Q587.843-1.281 588.380-1.549Q588.917-1.818 588.917-2.644L588.917-11.194Q588.917-12.888 587.988-13.879Q587.058-14.871 585.571-14.871Q584.291-14.871 583.320-14.478Q582.349-14.086 581.523-13.425Q581.193-13.136 581.193-12.557L581.193-2.644Q581.193-1.818 581.709-1.549Q582.225-1.281 582.845-1.115Q583.754-0.867 583.754-0.372Q583.754 0.124 582.969 0.124Q581.730 0.124 581.069 0.021Q580.408-0.083 579.334-0.083Q578.219-0.083 577.516 0.021Q576.814 0.124 575.575 0.124M598.211 0.124Q597.302 0.124 597.302-0.372Q597.302-0.702 597.592-0.826Q597.881-0.950 598.253-1.115Q598.872-1.281 599.409-1.590Q599.946-1.900 599.946-2.768L599.946-23.132Q599.946-24.495 599.574-25.197Q599.203-25.900 598.170-26.147Q597.798-26.189 597.798-26.726Q597.798-27.180 598.129-27.263Q599.698-27.593 601.041-28.110Q602.383-28.626 603.333-28.998Q603.581-29.122 603.746-29.122Q604.036-29.122 604.036-28.709Q604.036-28.295 603.891-27.221Q603.746-26.147 603.746-24.123L603.746-9.914Q603.746-9.501 603.994-9.501Q604.449-9.501 605.192-10.120Q606.803-11.525 607.980-12.764Q609.158-14.003 609.571-14.540Q609.942-14.995 609.942-15.201Q609.942-15.408 609.591-15.573Q609.240-15.738 608.786-15.862Q608.290-15.945 608.290-16.275Q608.290-16.812 609.199-16.812L611.223-16.812Q611.884-16.812 612.772-16.915Q613.660-17.019 614.486-17.122Q615.312-17.225 615.725-17.266Q616.262-17.266 616.262-16.812Q616.262-16.316 615.271-16.027Q614.528-15.862 613.743-15.470Q612.958-15.077 612.256-14.664Q611.801-14.416 610.954-13.755Q610.108-13.094 609.116-12.268Q608.125-11.442 607.257-10.657Q607.010-10.451 607.010-10.244Q607.010-10.079 607.175-9.914Q608.208-8.592 609.343-7.270Q610.479-5.948 611.471-4.874Q612.462-3.800 613.082-3.139Q613.784-2.478 614.713-1.921Q615.643-1.363 616.262-1.115Q616.676-0.991 617.068-0.847Q617.460-0.702 617.460-0.372Q617.460 0.124 616.634 0.124Q614.693 0.124 612.565 0.062Q610.438 0 608.331 0Q607.547 0 607.547-0.454Q607.547-0.909 608.331-1.157Q608.745-1.322 609.013-1.508Q609.282-1.694 609.282-2.024Q609.282-2.231 608.951-2.685L604.283-8.303Q604.118-8.551 603.953-8.551Q603.746-8.509 603.746-8.261Q603.705-7.642 603.705-6.981Q603.705-6.320 603.705-5.618Q603.705-4.916 603.705-4.172Q603.705-3.428 603.746-2.726Q603.746-1.983 604.118-1.652Q604.490-1.322 605.110-1.115Q605.440-0.991 605.729-0.847Q606.018-0.702 606.018-0.372Q606.018-0.083 605.688 0.021Q605.357 0.124 605.151 0.124Q604.325 0.124 603.870 0.062Q603.416 0 602.962-0.041Q602.507-0.083 601.805-0.083Q600.731-0.083 600.070 0.021Q599.409 0.124 598.211 0.124M626.217 0.620Q623.987 0.620 622.252-0.537Q620.517-1.694 619.546-3.718Q618.576-5.742 618.576-8.427Q618.576-10.864 619.712-12.888Q620.848-14.912 622.748-16.130Q624.648-17.349 626.920-17.349Q629.481-17.349 631.154-15.841Q632.827-14.334 632.827-11.979Q632.827-10.616 631.546-10.616L622.996-10.616Q622.417-10.616 622.190-10.285Q621.963-9.955 621.963-9.088Q621.963-7.270 622.748-5.762Q623.533-4.255 624.896-3.346Q626.259-2.437 627.952-2.437Q629.192-2.437 630.204-2.912Q631.216-3.387 632.083-4.255Q632.331-4.585 632.537-4.585Q632.909-4.585 632.909-4.131Q632.909-3.470 632.331-2.561Q631.505-1.239 629.894-0.310Q628.283 0.620 626.217 0.620M623.078-12.020L626.341-12.020Q627.415-12.020 628.014-12.062Q628.613-12.103 629.192-12.227Q629.563-12.310 629.563-13.260Q629.563-14.375 628.613-15.201Q627.663-16.027 626.341-16.027Q625.433-16.027 624.545-15.490Q623.656-14.953 623.078-14.148Q622.500-13.342 622.541-12.516Q622.541-12.020 623.078-12.020M649.143 0.785Q649.060 0.785 648.854 0.578Q648.647 0.372 648.647 0.289Q648.689-0.207 648.771-0.909Q648.854-1.611 648.854-2.107L648.854-2.355Q648.152-1.281 646.747-0.351Q645.343 0.578 643.443 0.578Q641.088 0.578 639.353-0.640Q637.618-1.859 636.648-3.800Q635.677-5.742 635.677-7.931Q635.677-10.451 636.833-12.599Q637.990-14.747 640.138-16.048Q642.286-17.349 645.178-17.349Q645.962-17.349 646.727-17.204Q647.491-17.060 647.986-16.895Q648.441-16.771 648.523-16.771Q648.813-16.771 648.813-17.638L648.813-23.132Q648.813-24.743 648.317-25.342Q647.821-25.941 646.871-26.147Q646.458-26.230 646.458-26.726Q646.458-27.139 646.830-27.263Q648.565-27.676 649.804-28.130Q651.043-28.585 651.787-28.874Q652.282-29.080 652.489-29.080Q652.778-29.080 652.819-28.750Q652.819-28.585 652.695-27.449Q652.572-26.313 652.572-24.123L652.489-4.668Q652.489-3.263 652.695-2.644Q652.902-2.024 653.398-2.024Q653.604-2.024 654.017-2.045Q654.430-2.065 655.133-2.148Q655.793-2.189 655.793-1.735Q655.793-1.446 655.587-1.177Q655.380-0.909 655.174-0.909Q653.893-0.744 652.613-0.413Q651.332-0.083 649.845 0.537Q649.515 0.702 649.391 0.744Q649.267 0.785 649.143 0.785M645.136-1.818Q646.045-1.818 647.057-2.293Q648.069-2.768 648.771-3.552L648.771-11.607Q648.771-12.557 648.172-13.507Q647.573-14.458 646.541-15.077Q645.508-15.697 644.186-15.697Q643.236-15.697 642.162-15.056Q641.088-14.416 640.345-12.929Q639.601-11.442 639.601-8.922Q639.601-6.816 640.179-5.432Q640.758-4.048 641.646-3.263Q642.534-2.478 643.484-2.148Q644.434-1.818 645.136-1.818" fill="url(#silver)"/>
  </g>
    
  <g opacity="0.6">
    
    <g transform="translate(0 -0.5)" opacity="0.3">
      <line x1="645.1759999999999" y1="667.1771571321508" x2="785.888" y2="667.1771571321508" stroke="#efe0bb" stroke-width="3.608" stroke-linecap="round"/>
      <line x1="854.112" y1="667.1771571321508" x2="994.8240000000001" y2="667.1771571321508" stroke="#efe0bb" stroke-width="3.608" stroke-linecap="round"/>
      <polygon points="820,654.3851571321508 832.792,667.1771571321508 820,679.9691571321508 807.208,667.1771571321508" fill="#efe0bb"/>
      <circle cx="627.054" cy="667.1771571321508" r="18.122000000000003" fill="none" stroke="#efe0bb" stroke-width="3.608"/>
      <circle cx="1012.946" cy="667.1771571321508" r="18.122000000000003" fill="none" stroke="#efe0bb" stroke-width="3.608"/>
    </g>
    
    <g transform="translate(0 0)" opacity="1">
      <line x1="645.1759999999999" y1="667.1771571321508" x2="785.888" y2="667.1771571321508" stroke="url(#bronze)" stroke-width="3.608" stroke-linecap="round"/>
      <line x1="854.112" y1="667.1771571321508" x2="994.8240000000001" y2="667.1771571321508" stroke="url(#bronze)" stroke-width="3.608" stroke-linecap="round"/>
      <polygon points="820,654.3851571321508 832.792,667.1771571321508 820,679.9691571321508 807.208,667.1771571321508" fill="url(#bronze)"/>
      <circle cx="627.054" cy="667.1771571321508" r="18.122000000000003" fill="none" stroke="url(#bronze)" stroke-width="3.608"/>
      <circle cx="1012.946" cy="667.1771571321508" r="18.122000000000003" fill="none" stroke="url(#bronze)" stroke-width="3.608"/>
    </g>
  </g></svg>