<svg xmlns="http://www.w3.org/2000/svg" width="1080" height="1080" viewBox="0 0 1080 1080"><defs><radialGradient id="vig" cx="0.5" cy="0.5" r="0.72" gradientUnits="objectBoundingBox"><stop offset="0.55" stop-color="#000000" stop-opacity="0"/><stop offset="1" stop-color="#000000" stop-opacity="0.55"/></radialGradient><linearGradient id="p-bronze" x1="0" y1="220" x2="0" y2="860" gradientUnits="userSpaceOnUse"><stop offset="0" stop-color="#d9b87a"/><stop offset="0.5" stop-color="#a07c44"/><stop offset="1" stop-color="#7a5c2e"/></linearGradient><linearGradient id="p-metal" x1="0" y1="398" x2="0" y2="548" gradientUnits="userSpaceOnUse"><stop offset="0" stop-color="#f5f5f5"/><stop offset="0.16" stop-color="#ededed"/><stop offset="0.5" stop-color="#cfcfcf"/><stop offset="0.68" stop-color="#7d7d7d"/><stop offset="1" stop-color="#6a6a6a"/></linearGradient><clipPath id="p-clip"><path d="M269.1,548 L330.6,398 L392.1,548 L372.3,548 L330.6,427.7 L288.9,548 z" fill="#000"/><path d="M308.698,488 h43.804 v19.8 h-43.804 z" fill="#000"/><path d="M417.6,398 h19.8 v150 h-19.8 z" fill="#000"/><path d="M462.9,398 h19.8 v150 h-19.8 z" fill="#000"/><path d="M462.9,398 H504.48 A57.42,39 0 0 1 504.48,476 H462.9 z M482.7,417.8 H498.54 A37.62,19.2 0 0 1 498.54,456.2 H482.7 z" fill="#000" fill-rule="evenodd"/><path d="M482.7,465.08 L502.5,465.08 L561.9,548 L542.1,548 z" fill="#000"/><path d="M587.4,398 h19.8 v150 h-19.8 z" fill="#000"/><path d="M587.4,398 h90 v19.8 h-90 z" fill="#000"/><path d="M587.4,463.1 h75.6 v19.8 h-75.6 z" fill="#000"/><path d="M587.4,528.2 h90 v19.8 h-90 z" fill="#000"/><path d="M702.9,398 H748.26 A62.64,75 0 0 1 748.26,548 H702.9 z M722.7,417.8 H742.32 A42.84,55.2 0 0 1 742.32,528.2 H722.7 z" fill="#000" fill-rule="evenodd"/></clipPath><linearGradient id="p-line-core" x1="0" y1="596.5" x2="0" y2="603.5" gradientUnits="userSpaceOnUse"><stop offset="0" stop-color="#ff3a30"/><stop offset="0.45" stop-color="#e10600"/><stop offset="1" stop-color="#b00500"/></linearGradient><linearGradient id="p-line-fade-g" x1="269.1" y1="0" x2="810.9" y2="0" gradientUnits="userSpaceOnUse"><stop offset="0" stop-color="#000000"/><stop offset="0.06" stop-color="#ffffff"/><stop offset="0.94" stop-color="#ffffff"/><stop offset="1" stop-color="#000000"/></linearGradient><mask id="p-line-fade" maskUnits="userSpaceOnUse" x="269.1" y="572" width="541.8" height="56"><rect x="269.1" y="572" width="541.8" height="56" fill="url(#p-line-fade-g)"/></mask></defs><rect width="1080" height="1080" fill="#0a0a0a"/><rect width="1080" height="1080" fill="url(#vig)"/><g><circle cx="540" cy="540" r="312" fill="none" stroke="url(#p-bronze)" stroke-width="2" stroke-opacity="0.32"/><circle cx="540" cy="540" r="237.12" fill="none" stroke="url(#p-bronze)" stroke-width="2" stroke-opacity="0.22"/><circle cx="540" cy="540" r="156" fill="none" stroke="url(#p-bronze)" stroke-width="2" stroke-opacity="0.16"/><path d="M540,259.2 L783.18,680.4 L296.82,680.4 z" fill="none" stroke="url(#p-bronze)" stroke-width="2" stroke-opacity="0.3" stroke-linejoin="round"/><path d="M540,820.8 L296.82,399.6 L783.18,399.6 z" fill="none" stroke="url(#p-bronze)" stroke-width="2" stroke-opacity="0.3" stroke-linejoin="round"/><circle cx="540" cy="540" r="312" fill="none" stroke="#efe0bd" stroke-width="0.6" stroke-opacity="0.12"/></g><g transform="translate(0,-2.7)"><path d="M269.1,548 L330.6,398 L392.1,548 L372.3,548 L330.6,427.7 L288.9,548 z" fill="#f5f5f5"/><path d="M308.698,488 h43.804 v19.8 h-43.804 z" fill="#f5f5f5"/><path d="M417.6,398 h19.8 v150 h-19.8 z" fill="#f5f5f5"/><path d="M462.9,398 h19.8 v150 h-19.8 z" fill="#f5f5f5"/><path d="M462.9,398 H504.48 A57.42,39 0 0 1 504.48,476 H462.9 z M482.7,417.8 H498.54 A37.62,19.2 0 0 1 498.54,456.2 H482.7 z" fill="#f5f5f5" fill-rule="evenodd"/><path d="M482.7,465.08 L502.5,465.08 L561.9,548 L542.1,548 z" fill="#f5f5f5"/><path d="M587.4,398 h19.8 v150 h-19.8 z" fill="#f5f5f5"/><path d="M587.4,398 h90 v19.8 h-90 z" fill="#f5f5f5"/><path d="M587.4,463.1 h75.6 v19.8 h-75.6 z" fill="#f5f5f5"/><path d="M587.4,528.2 h90 v19.8 h-90 z" fill="#f5f5f5"/><path d="M702.9,398 H748.26 A62.64,75 0 0 1 748.26,548 H702.9 z M722.7,417.8 H742.32 A42.84,55.2 0 0 1 742.32,528.2 H722.7 z" fill="#f5f5f5" fill-rule="evenodd"/></g><g transform="translate(0,2.7)"><path d="M269.1,548 L330.6,398 L392.1,548 L372.3,548 L330.6,427.7 L288.9,548 z" fill="#000000"/><path d="M308.698,488 h43.804 v19.8 h-43.804 z" fill="#000000"/><path d="M417.6,398 h19.8 v150 h-19.8 z" fill="#000000"/><path d="M462.9,398 h19.8 v150 h-19.8 z" fill="#000000"/><path d="M462.9,398 H504.48 A57.42,39 0 0 1 504.48,476 H462.9 z M482.7,417.8 H498.54 A37.62,19.2 0 0 1 498.54,456.2 H482.7 z" fill="#000000" fill-rule="evenodd"/><path d="M482.7,465.08 L502.5,465.08 L561.9,548 L542.1,548 z" fill="#000000"/><path d="M587.4,398 h19.8 v150 h-19.8 z" fill="#000000"/><path d="M587.4,398 h90 v19.8 h-90 z" fill="#000000"/><path d="M587.4,463.1 h75.6 v19.8 h-75.6 z" fill="#000000"/><path d="M587.4,528.2 h90 v19.8 h-90 z" fill="#000000"/><path d="M702.9,398 H748.26 A62.64,75 0 0 1 748.26,548 H702.9 z M722.7,417.8 H742.32 A42.84,55.2 0 0 1 742.32,528.2 H722.7 z" fill="#000000" fill-rule="evenodd"/></g><path d="M269.1,548 L330.6,398 L392.1,548 L372.3,548 L330.6,427.7 L288.9,548 z" fill="url(#p-metal)"/><path d="M308.698,488 h43.804 v19.8 h-43.804 z" fill="url(#p-metal)"/><path d="M417.6,398 h19.8 v150 h-19.8 z" fill="url(#p-metal)"/><path d="M462.9,398 h19.8 v150 h-19.8 z" fill="url(#p-metal)"/><path d="M462.9,398 H504.48 A57.42,39 0 0 1 504.48,476 H462.9 z M482.7,417.8 H498.54 A37.62,19.2 0 0 1 498.54,456.2 H482.7 z" fill="url(#p-metal)" fill-rule="evenodd"/><path d="M482.7,465.08 L502.5,465.08 L561.9,548 L542.1,548 z" fill="url(#p-metal)"/><path d="M587.4,398 h19.8 v150 h-19.8 z" fill="url(#p-metal)"/><path d="M587.4,398 h90 v19.8 h-90 z" fill="url(#p-metal)"/><path d="M587.4,463.1 h75.6 v19.8 h-75.6 z" fill="url(#p-metal)"/><path d="M587.4,528.2 h90 v19.8 h-90 z" fill="url(#p-metal)"/><path d="M702.9,398 H748.26 A62.64,75 0 0 1 748.26,548 H702.9 z M722.7,417.8 H742.32 A42.84,55.2 0 0 1 742.32,528.2 H722.7 z" fill="url(#p-metal)" fill-rule="evenodd"/><g clip-path="url(#p-clip)"><line x1="265.1" y1="398" x2="814.9" y2="398" stroke="#ffffff" stroke-width="0.75" stroke-opacity="0.05"/><line x1="265.1" y1="401" x2="814.9" y2="401" stroke="#ffffff" stroke-width="0.75" stroke-opacity="0.05"/><line x1="265.1" y1="404" x2="814.9" y2="404" stroke="#ffffff" stroke-width="0.75" stroke-opacity="0.05"/><line x1="265.1" y1="407" x2="814.9" y2="407" stroke="#ffffff" stroke-width="0.75" stroke-opacity="0.05"/><line x1="265.1" y1="410" x2="814.9" y2="410" stroke="#ffffff" stroke-width="0.75" stroke-opacity="0.05"/><line x1="265.1" y1="413" x2="814.9" y2="413" stroke="#ffffff" stroke-width="0.75" stroke-opacity="0.05"/><line x1="265.1" y1="416" x2="814.9" y2="416" stroke="#ffffff" stroke-width="0.75" stroke-opacity="0.05"/><line x1="265.1" y1="419" x2="814.9" y2="419" stroke="#ffffff" stroke-width="0.75" stroke-opacity="0.05"/><line x1="265.1" y1="422" x2="814.9" y2="422" stroke="#ffffff" stroke-width="0.75" stroke-opacity="0.05"/><line x1="265.1" y1="425" x2="814.9" y2="425" stroke="#ffffff" stroke-width="0.75" stroke-opacity="0.05"/><line x1="265.1" y1="428" x2="814.9" y2="428" stroke="#ffffff" stroke-width="0.75" stroke-opacity="0.05"/><line x1="265.1" y1="431" x2="814.9" y2="431" stroke="#ffffff" stroke-width="0.75" stroke-opacity="0.05"/><line x1="265.1" y1="434" x2="814.9" y2="434" stroke="#ffffff" stroke-width="0.75" stroke-opacity="0.05"/><line x1="265.1" y1="437" x2="814.9" y2="437" stroke="#ffffff" stroke-width="0.75" stroke-opacity="0.05"/><line x1="265.1" y1="440" x2="814.9" y2="440" stroke="#ffffff" stroke-width="0.75" stroke-opacity="0.05"/><line x1="265.1" y1="443" x2="814.9" y2="443" stroke="#ffffff" stroke-width="0.75" stroke-opacity="0.05"/><line x1="265.1" y1="446" x2="814.9" y2="446" stroke="#ffffff" stroke-width="0.75" stroke-opacity="0.05"/><line x1="265.1" y1="449" x2="814.9" y2="449" stroke="#ffffff" stroke-width="0.75" stroke-opacity="0.05"/><line x1="265.1" y1="452" x2="814.9" y2="452" stroke="#ffffff" stroke-width="0.75" stroke-opacity="0.05"/><line x1="265.1" y1="455" x2="814.9" y2="455" stroke="#ffffff" stroke-width="0.75" stroke-opacity="0.05"/><line x1="265.1" y1="458" x2="814.9" y2="458" stroke="#ffffff" stroke-width="0.75" stroke-opacity="0.05"/><line x1="265.1" y1="461" x2="814.9" y2="461" stroke="#ffffff" stroke-width="0.75" stroke-opacity="0.05"/><line x1="265.1" y1="464" x2="814.9" y2="464" stroke="#ffffff" stroke-width="0.75" stroke-opacity="0.05"/><line x1="265.1" y1="467" x2="814.9" y2="467" stroke="#ffffff" stroke-width="0.75" stroke-opacity="0.05"/><line x1="265.1" y1="470" x2="814.9" y2="470" stroke="#ffffff" stroke-width="0.75" stroke-opacity="0.05"/><line x1="265.1" y1="473" x2="814.9" y2="473" stroke="#ffffff" stroke-width="0.75" stroke-opacity="0.05"/><line x1="265.1" y1="476" x2="814.9" y2="476" stroke="#ffffff" stroke-width="0.75" stroke-opacity="0.05"/><line x1="265.1" y1="479" x2="814.9" y2="479" stroke="#ffffff" stroke-width="0.75" stroke-opacity="0.05"/><line x1="265.1" y1="482" x2="814.9" y2="482" stroke="#ffffff" stroke-width="0.75" stroke-opacity="0.05"/><line x1="265.1" y1="485" x2="814.9" y2="485" stroke="#ffffff" stroke-width="0.75" stroke-opacity="0.05"/><line x1="265.1" y1="488" x2="814.9" y2="488" stroke="#ffffff" stroke-width="0.75" stroke-opacity="0.05"/><line x1="265.1" y1="491" x2="814.9" y2="491" stroke="#ffffff" stroke-width="0.75" stroke-opacity="0.05"/><line x1="265.1" y1="494" x2="814.9" y2="494" stroke="#ffffff" stroke-width="0.75" stroke-opacity="0.05"/><line x1="265.1" y1="497" x2="814.9" y2="497" stroke="#ffffff" stroke-width="0.75" stroke-opacity="0.05"/><line x1="265.1" y1="500" x2="814.9" y2="500" stroke="#ffffff" stroke-width="0.75" stroke-opacity="0.05"/><line x1="265.1" y1="503" x2="814.9" y2="503" stroke="#ffffff" stroke-width="0.75" stroke-opacity="0.05"/><line x1="265.1" y1="506" x2="814.9" y2="506" stroke="#ffffff" stroke-width="0.75" stroke-opacity="0.05"/><line x1="265.1" y1="509" x2="814.9" y2="509" stroke="#ffffff" stroke-width="0.75" stroke-opacity="0.05"/><line x1="265.1" y1="512" x2="814.9" y2="512" stroke="#ffffff" stroke-width="0.75" stroke-opacity="0.05"/><line x1="265.1" y1="515" x2="814.9" y2="515" stroke="#ffffff" stroke-width="0.75" stroke-opacity="0.05"/><line x1="265.1" y1="518" x2="814.9" y2="518" stroke="#ffffff" stroke-width="0.75" stroke-opacity="0.05"/><line x1="265.1" y1="521" x2="814.9" y2="521" stroke="#ffffff" stroke-width="0.75" stroke-opacity="0.05"/><line x1="265.1" y1="524" x2="814.9" y2="524" stroke="#ffffff" stroke-width="0.75" stroke-opacity="0.05"/><line x1="265.1" y1="527" x2="814.9" y2="527" stroke="#ffffff" stroke-width="0.75" stroke-opacity="0.05"/><line x1="265.1" y1="530" x2="814.9" y2="530" stroke="#ffffff" stroke-width="0.75" stroke-opacity="0.05"/><line x1="265.1" y1="533" x2="814.9" y2="533" stroke="#ffffff" stroke-width="0.75" stroke-opacity="0.05"/><line x1="265.1" y1="536" x2="814.9" y2="536" stroke="#ffffff" stroke-width="0.75" stroke-opacity="0.05"/><line x1="265.1" y1="539" x2="814.9" y2="539" stroke="#ffffff" stroke-width="0.75" stroke-opacity="0.05"/><line x1="265.1" y1="542" x2="814.9" y2="542" stroke="#ffffff" stroke-width="0.75" stroke-opacity="0.05"/><line x1="265.1" y1="545" x2="814.9" y2="545" stroke="#ffffff" stroke-width="0.75" stroke-opacity="0.05"/><line x1="265.1" y1="548" x2="814.9" y2="548" stroke="#ffffff" stroke-width="0.75" stroke-opacity="0.05"/></g><g mask="url(#p-line-fade)"><rect x="269.1" y="575.5" width="541.8" height="49" rx="24.5" fill="#ff2d2d" fill-opacity="0.05"/><rect x="269.1" y="586" width="541.8" height="28" rx="14" fill="#ff2d2d" fill-opacity="0.09"/><rect x="269.1" y="592.3" width="541.8" height="15.4" rx="7.7" fill="#ff3a30" fill-opacity="0.18"/><rect x="269.1" y="596.5" width="541.8" height="7" rx="3.5" fill="url(#p-line-core)"/><rect x="269.1" y="599.44" width="541.8" height="1.12" rx="0.56" fill="#ff9a86" fill-opacity="0.5"/></g></svg>