<svg xmlns="http://www.w3.org/2000/svg" width="512" height="512" viewBox="0 0 512 512"><defs><radialGradient id="vig" cx="0.5" cy="0.5" r="0.7" gradientUnits="objectBoundingBox"><stop offset="0.55" stop-color="#000000" stop-opacity="0"/><stop offset="1" stop-color="#000000" stop-opacity="0.55"/></radialGradient><linearGradient id="i-metal" x1="0" y1="106" x2="0" y2="406" gradientUnits="userSpaceOnUse"><stop offset="0" stop-color="#f5f5f5"/><stop offset="0.16" stop-color="#ededed"/><stop offset="0.5" stop-color="#cfcfcf"/><stop offset="0.68" stop-color="#7d7d7d"/><stop offset="1" stop-color="#6a6a6a"/></linearGradient><linearGradient id="i-bronze" x1="0" y1="46" x2="0" y2="466" gradientUnits="userSpaceOnUse"><stop offset="0" stop-color="#d9b87a"/><stop offset="0.5" stop-color="#a07c44"/><stop offset="1" stop-color="#7a5c2e"/></linearGradient><linearGradient id="i-line-core" x1="0" y1="299.3" x2="0" y2="312.3" gradientUnits="userSpaceOnUse"><stop offset="0" stop-color="#ff3a30"/><stop offset="0.45" stop-color="#e10600"/><stop offset="1" stop-color="#b00500"/></linearGradient><linearGradient id="i-line-fade-g" x1="198.356" y1="0" x2="313.644" y2="0" gradientUnits="userSpaceOnUse"><stop offset="0" stop-color="#000000"/><stop offset="0.06" stop-color="#ffffff"/><stop offset="0.94" stop-color="#ffffff"/><stop offset="1" stop-color="#000000"/></linearGradient><mask id="i-line-fade" maskUnits="userSpaceOnUse" x="198.356" y="253.8" width="115.288" height="104"><rect x="198.356" y="253.8" width="115.288" height="104" fill="url(#i-line-fade-g)"/></mask></defs><rect width="512" height="512" fill="#0a0a0a"/><rect width="512" height="512" fill="url(#vig)"/><circle cx="256" cy="256" r="206" fill="none" stroke="url(#i-bronze)" stroke-width="3" stroke-opacity="0.42"/><circle cx="256" cy="256" r="150" fill="none" stroke="url(#i-bronze)" stroke-width="1.6" stroke-opacity="0.22"/><g transform="translate(0,5.4)"><path d="M133,406 L256,106 L379,406 L339.4,406 L256,165.4 L172.6,406 z" fill="#000000"/></g><g transform="translate(0,-5.4)"><path d="M133,406 L256,106 L379,406 L339.4,406 L256,165.4 L172.6,406 z" fill="#f5f5f5"/></g><path d="M133,406 L256,106 L379,406 L339.4,406 L256,165.4 L172.6,406 z" fill="url(#i-metal)"/><g mask="url(#i-line-fade)"><rect x="198.356" y="260.3" width="115.288" height="91" rx="45.5" fill="#ff2d2d" fill-opacity="0.05"/><rect x="198.356" y="279.8" width="115.288" height="52" rx="26" fill="#ff2d2d" fill-opacity="0.09"/><rect x="198.356" y="291.5" width="115.288" height="28.6" rx="14.3" fill="#ff3a30" fill-opacity="0.18"/><rect x="198.356" y="299.3" width="115.288" height="13" rx="6.5" fill="url(#i-line-core)"/><rect x="198.356" y="304.76" width="115.288" height="2.08" rx="1.04" fill="#ff9a86" fill-opacity="0.5"/></g></svg>