<svg xmlns="http://www.w3.org/2000/svg" width="1640" height="856" viewBox="0 0 1640 856"><defs><radialGradient id="vig" cx="0.42" cy="0.45" r="0.85" gradientUnits="objectBoundingBox"><stop offset="0.55" stop-color="#000000" stop-opacity="0"/><stop offset="1" stop-color="#000000" stop-opacity="0.55"/></radialGradient><linearGradient id="c-silver" x1="0" y1="441.92" x2="0" y2="473.6" gradientUnits="userSpaceOnUse"><stop offset="0" stop-color="#f5f5f5"/><stop offset="0.55" stop-color="#cfcfcf"/><stop offset="1" stop-color="#8f8f8f"/></linearGradient><linearGradient id="c-bronze" x1="0" y1="40" x2="0" y2="816" gradientUnits="userSpaceOnUse"><stop offset="0" stop-color="#d9b87a"/><stop offset="0.5" stop-color="#a07c44"/><stop offset="1" stop-color="#7a5c2e"/></linearGradient><linearGradient id="c-metal" x1="0" y1="250" x2="0" y2="400" gradientUnits="userSpaceOnUse"><stop offset="0" stop-color="#f5f5f5"/><stop offset="0.16" stop-color="#ededed"/><stop offset="0.5" stop-color="#cfcfcf"/><stop offset="0.68" stop-color="#7d7d7d"/><stop offset="1" stop-color="#6a6a6a"/></linearGradient><clipPath id="c-clip"><path d="M132,400 L193.5,250 L255,400 L235.2,400 L193.5,279.7 L151.8,400 z" fill="#000"/><path d="M171.598,340 h43.804 v19.8 h-43.804 z" fill="#000"/><path d="M280.5,250 h19.8 v150 h-19.8 z" fill="#000"/><path d="M325.8,250 h19.8 v150 h-19.8 z" fill="#000"/><path d="M325.8,250 H367.38 A57.42,39 0 0 1 367.38,328 H325.8 z M345.6,269.8 H361.44 A37.62,19.2 0 0 1 361.44,308.2 H345.6 z" fill="#000" fill-rule="evenodd"/><path d="M345.6,317.08 L365.4,317.08 L424.8,400 L405,400 z" fill="#000"/><path d="M450.3,250 h19.8 v150 h-19.8 z" fill="#000"/><path d="M450.3,250 h90 v19.8 h-90 z" fill="#000"/><path d="M450.3,315.1 h75.6 v19.8 h-75.6 z" fill="#000"/><path d="M450.3,380.2 h90 v19.8 h-90 z" fill="#000"/><path d="M565.8,250 H611.16 A62.64,75 0 0 1 611.16,400 H565.8 z M585.6,269.8 H605.22 A42.84,55.2 0 0 1 605.22,380.2 H585.6 z" fill="#000" fill-rule="evenodd"/></clipPath><linearGradient id="c-line-core" x1="0" y1="609" x2="0" y2="615" gradientUnits="userSpaceOnUse"><stop offset="0" stop-color="#ff3a30"/><stop offset="0.45" stop-color="#e10600"/><stop offset="1" stop-color="#b00500"/></linearGradient><linearGradient id="c-line-fade-g" x1="40" y1="0" x2="1600" y2="0" gradientUnits="userSpaceOnUse"><stop offset="0" stop-color="#000000"/><stop offset="0.06" stop-color="#ffffff"/><stop offset="0.94" stop-color="#ffffff"/><stop offset="1" stop-color="#000000"/></linearGradient><mask id="c-line-fade" maskUnits="userSpaceOnUse" x="40" y="588" width="1560" height="48"><rect x="40" y="588" width="1560" height="48" fill="url(#c-line-fade-g)"/></mask></defs><rect width="1640" height="856" fill="#0a0a0a"/><rect width="1640" height="856" fill="url(#vig)"/><g fill="none" stroke="url(#c-bronze)" stroke-width="1.7" stroke-opacity="0.55" stroke-linecap="round"><path d="M204,72 C204,144.904 144.904,204 72,204"/><path d="M177.6,72 C177.6,130.323 130.323,177.6 72,177.6"/><line x1="204" y1="72" x2="177.6" y2="72" stroke="url(#c-bronze)" stroke-width="1.4" stroke-opacity="0.5"/><line x1="72" y1="204" x2="72" y2="177.6" stroke="url(#c-bronze)" stroke-width="1.4" stroke-opacity="0.5"/></g><path d="M139.72,132.72 L132.72,139.72 L125.72,132.72 L132.72,125.72 z" fill="url(#c-bronze)" fill-opacity="0.5" stroke="#efe0bd" stroke-width="0.5" stroke-opacity="0.3"/><circle cx="204" cy="72" r="2.2" fill="url(#c-bronze)" fill-opacity="0.7"/><circle cx="72" cy="204" r="2.2" fill="url(#c-bronze)" fill-opacity="0.7"/><g fill="none" stroke="url(#c-bronze)" stroke-width="1.7" stroke-opacity="0.55" stroke-linecap="round"><path d="M1436,72 C1436,144.904 1495.096,204 1568,204"/><path d="M1462.4,72 C1462.4,130.323 1509.677,177.6 1568,177.6"/><line x1="1436" y1="72" x2="1462.4" y2="72" stroke="url(#c-bronze)" stroke-width="1.4" stroke-opacity="0.5"/><line x1="1568" y1="204" x2="1568" y2="177.6" stroke="url(#c-bronze)" stroke-width="1.4" stroke-opacity="0.5"/></g><path d="M1500.28,132.72 L1507.28,139.72 L1514.28,132.72 L1507.28,125.72 z" fill="url(#c-bronze)" fill-opacity="0.5" stroke="#efe0bd" stroke-width="0.5" stroke-opacity="0.3"/><circle cx="1436" cy="72" r="2.2" fill="url(#c-bronze)" fill-opacity="0.7"/><circle cx="1568" cy="204" r="2.2" fill="url(#c-bronze)" fill-opacity="0.7"/><g fill="none" stroke="url(#c-bronze)" stroke-width="1.7" stroke-opacity="0.55" stroke-linecap="round"><path d="M1436,784 C1436,711.096 1495.096,652 1568,652"/><path d="M1462.4,784 C1462.4,725.677 1509.677,678.4 1568,678.4"/><line x1="1436" y1="784" x2="1462.4" y2="784" stroke="url(#c-bronze)" stroke-width="1.4" stroke-opacity="0.5"/><line x1="1568" y1="652" x2="1568" y2="678.4" stroke="url(#c-bronze)" stroke-width="1.4" stroke-opacity="0.5"/></g><path d="M1500.28,723.28 L1507.28,716.28 L1514.28,723.28 L1507.28,730.28 z" fill="url(#c-bronze)" fill-opacity="0.5" stroke="#efe0bd" stroke-width="0.5" stroke-opacity="0.3"/><circle cx="1436" cy="784" r="2.2" fill="url(#c-bronze)" fill-opacity="0.7"/><circle cx="1568" cy="652" r="2.2" fill="url(#c-bronze)" fill-opacity="0.7"/><line x1="980" y1="612" x2="980" y2="566" stroke="url(#c-bronze)" stroke-width="1.4" stroke-opacity="0.4"/><circle cx="980" cy="566" r="6.5" fill="none" stroke="url(#c-bronze)" stroke-width="1.2" stroke-opacity="0.5"/><circle cx="980" cy="566" r="4" fill="#ff2d2d" fill-opacity="0.55"/><line x1="1120" y1="612" x2="1120" y2="658" stroke="url(#c-bronze)" stroke-width="1.4" stroke-opacity="0.4"/><circle cx="1120" cy="658" r="6" fill="none" stroke="url(#c-bronze)" stroke-width="1.2" stroke-opacity="0.5"/><circle cx="1120" cy="658" r="3.5" fill="#ff2d2d" fill-opacity="0.55"/><line x1="1248" y1="612" x2="1248" y2="566" stroke="url(#c-bronze)" stroke-width="1.4" stroke-opacity="0.4"/><circle cx="1248" cy="566" r="7.5" fill="none" stroke="url(#c-bronze)" stroke-width="1.2" stroke-opacity="0.5"/><circle cx="1248" cy="566" r="5" fill="#ff2d2d" fill-opacity="0.55"/><line x1="1380" y1="612" x2="1380" y2="658" stroke="url(#c-bronze)" stroke-width="1.4" stroke-opacity="0.4"/><circle cx="1380" cy="658" r="6.5" fill="none" stroke="url(#c-bronze)" stroke-width="1.2" stroke-opacity="0.5"/><circle cx="1380" cy="658" r="4" fill="#ff2d2d" fill-opacity="0.55"/><line x1="1500" y1="612" x2="1500" y2="566" stroke="url(#c-bronze)" stroke-width="1.4" stroke-opacity="0.4"/><circle cx="1500" cy="566" r="6" fill="none" stroke="url(#c-bronze)" stroke-width="1.2" stroke-opacity="0.5"/><circle cx="1500" cy="566" r="3.5" fill="#ff2d2d" fill-opacity="0.55"/><line x1="880" y1="612" x2="880" y2="658" stroke="url(#c-bronze)" stroke-width="1.4" stroke-opacity="0.4"/><circle cx="880" cy="658" r="5.5" fill="none" stroke="url(#c-bronze)" stroke-width="1.2" stroke-opacity="0.5"/><circle cx="880" cy="658" r="3" fill="#ff2d2d" fill-opacity="0.55"/><g mask="url(#c-line-fade)"><rect x="40" y="591" width="1560" height="42" rx="21" fill="#ff2d2d" fill-opacity="0.05"/><rect x="40" y="600" width="1560" height="24" rx="12" fill="#ff2d2d" fill-opacity="0.09"/><rect x="40" y="605.4" width="1560" height="13.2" rx="6.6" fill="#ff3a30" fill-opacity="0.18"/><rect x="40" y="609" width="1560" height="6" rx="3" fill="url(#c-line-core)"/><rect x="40" y="611.5" width="1560" height="1" rx="0.5" fill="#ff9a86" fill-opacity="0.5"/></g><g transform="translate(0,-2.7)"><path d="M132,400 L193.5,250 L255,400 L235.2,400 L193.5,279.7 L151.8,400 z" fill="#f5f5f5"/><path d="M171.598,340 h43.804 v19.8 h-43.804 z" fill="#f5f5f5"/><path d="M280.5,250 h19.8 v150 h-19.8 z" fill="#f5f5f5"/><path d="M325.8,250 h19.8 v150 h-19.8 z" fill="#f5f5f5"/><path d="M325.8,250 H367.38 A57.42,39 0 0 1 367.38,328 H325.8 z M345.6,269.8 H361.44 A37.62,19.2 0 0 1 361.44,308.2 H345.6 z" fill="#f5f5f5" fill-rule="evenodd"/><path d="M345.6,317.08 L365.4,317.08 L424.8,400 L405,400 z" fill="#f5f5f5"/><path d="M450.3,250 h19.8 v150 h-19.8 z" fill="#f5f5f5"/><path d="M450.3,250 h90 v19.8 h-90 z" fill="#f5f5f5"/><path d="M450.3,315.1 h75.6 v19.8 h-75.6 z" fill="#f5f5f5"/><path d="M450.3,380.2 h90 v19.8 h-90 z" fill="#f5f5f5"/><path d="M565.8,250 H611.16 A62.64,75 0 0 1 611.16,400 H565.8 z M585.6,269.8 H605.22 A42.84,55.2 0 0 1 605.22,380.2 H585.6 z" fill="#f5f5f5" fill-rule="evenodd"/></g><g transform="translate(0,2.7)"><path d="M132,400 L193.5,250 L255,400 L235.2,400 L193.5,279.7 L151.8,400 z" fill="#000000"/><path d="M171.598,340 h43.804 v19.8 h-43.804 z" fill="#000000"/><path d="M280.5,250 h19.8 v150 h-19.8 z" fill="#000000"/><path d="M325.8,250 h19.8 v150 h-19.8 z" fill="#000000"/><path d="M325.8,250 H367.38 A57.42,39 0 0 1 367.38,328 H325.8 z M345.6,269.8 H361.44 A37.62,19.2 0 0 1 361.44,308.2 H345.6 z" fill="#000000" fill-rule="evenodd"/><path d="M345.6,317.08 L365.4,317.08 L424.8,400 L405,400 z" fill="#000000"/><path d="M450.3,250 h19.8 v150 h-19.8 z" fill="#000000"/><path d="M450.3,250 h90 v19.8 h-90 z" fill="#000000"/><path d="M450.3,315.1 h75.6 v19.8 h-75.6 z" fill="#000000"/><path d="M450.3,380.2 h90 v19.8 h-90 z" fill="#000000"/><path d="M565.8,250 H611.16 A62.64,75 0 0 1 611.16,400 H565.8 z M585.6,269.8 H605.22 A42.84,55.2 0 0 1 605.22,380.2 H585.6 z" fill="#000000" fill-rule="evenodd"/></g><path d="M132,400 L193.5,250 L255,400 L235.2,400 L193.5,279.7 L151.8,400 z" fill="url(#c-metal)"/><path d="M171.598,340 h43.804 v19.8 h-43.804 z" fill="url(#c-metal)"/><path d="M280.5,250 h19.8 v150 h-19.8 z" fill="url(#c-metal)"/><path d="M325.8,250 h19.8 v150 h-19.8 z" fill="url(#c-metal)"/><path d="M325.8,250 H367.38 A57.42,39 0 0 1 367.38,328 H325.8 z M345.6,269.8 H361.44 A37.62,19.2 0 0 1 361.44,308.2 H345.6 z" fill="url(#c-metal)" fill-rule="evenodd"/><path d="M345.6,317.08 L365.4,317.08 L424.8,400 L405,400 z" fill="url(#c-metal)"/><path d="M450.3,250 h19.8 v150 h-19.8 z" fill="url(#c-metal)"/><path d="M450.3,250 h90 v19.8 h-90 z" fill="url(#c-metal)"/><path d="M450.3,315.1 h75.6 v19.8 h-75.6 z" fill="url(#c-metal)"/><path d="M450.3,380.2 h90 v19.8 h-90 z" fill="url(#c-metal)"/><path d="M565.8,250 H611.16 A62.64,75 0 0 1 611.16,400 H565.8 z M585.6,269.8 H605.22 A42.84,55.2 0 0 1 605.22,380.2 H585.6 z" fill="url(#c-metal)" fill-rule="evenodd"/><g clip-path="url(#c-clip)"><line x1="128" y1="250" x2="677.8" y2="250" stroke="#ffffff" stroke-width="0.75" stroke-opacity="0.05"/><line x1="128" y1="253" x2="677.8" y2="253" stroke="#ffffff" stroke-width="0.75" stroke-opacity="0.05"/><line x1="128" y1="256" x2="677.8" y2="256" stroke="#ffffff" stroke-width="0.75" stroke-opacity="0.05"/><line x1="128" y1="259" x2="677.8" y2="259" stroke="#ffffff" stroke-width="0.75" stroke-opacity="0.05"/><line x1="128" y1="262" x2="677.8" y2="262" stroke="#ffffff" stroke-width="0.75" stroke-opacity="0.05"/><line x1="128" y1="265" x2="677.8" y2="265" stroke="#ffffff" stroke-width="0.75" stroke-opacity="0.05"/><line x1="128" y1="268" x2="677.8" y2="268" stroke="#ffffff" stroke-width="0.75" stroke-opacity="0.05"/><line x1="128" y1="271" x2="677.8" y2="271" stroke="#ffffff" stroke-width="0.75" stroke-opacity="0.05"/><line x1="128" y1="274" x2="677.8" y2="274" stroke="#ffffff" stroke-width="0.75" stroke-opacity="0.05"/><line x1="128" y1="277" x2="677.8" y2="277" stroke="#ffffff" stroke-width="0.75" stroke-opacity="0.05"/><line x1="128" y1="280" x2="677.8" y2="280" stroke="#ffffff" stroke-width="0.75" stroke-opacity="0.05"/><line x1="128" y1="283" x2="677.8" y2="283" stroke="#ffffff" stroke-width="0.75" stroke-opacity="0.05"/><line x1="128" y1="286" x2="677.8" y2="286" stroke="#ffffff" stroke-width="0.75" stroke-opacity="0.05"/><line x1="128" y1="289" x2="677.8" y2="289" stroke="#ffffff" stroke-width="0.75" stroke-opacity="0.05"/><line x1="128" y1="292" x2="677.8" y2="292" stroke="#ffffff" stroke-width="0.75" stroke-opacity="0.05"/><line x1="128" y1="295" x2="677.8" y2="295" stroke="#ffffff" stroke-width="0.75" stroke-opacity="0.05"/><line x1="128" y1="298" x2="677.8" y2="298" stroke="#ffffff" stroke-width="0.75" stroke-opacity="0.05"/><line x1="128" y1="301" x2="677.8" y2="301" stroke="#ffffff" stroke-width="0.75" stroke-opacity="0.05"/><line x1="128" y1="304" x2="677.8" y2="304" stroke="#ffffff" stroke-width="0.75" stroke-opacity="0.05"/><line x1="128" y1="307" x2="677.8" y2="307" stroke="#ffffff" stroke-width="0.75" stroke-opacity="0.05"/><line x1="128" y1="310" x2="677.8" y2="310" stroke="#ffffff" stroke-width="0.75" stroke-opacity="0.05"/><line x1="128" y1="313" x2="677.8" y2="313" stroke="#ffffff" stroke-width="0.75" stroke-opacity="0.05"/><line x1="128" y1="316" x2="677.8" y2="316" stroke="#ffffff" stroke-width="0.75" stroke-opacity="0.05"/><line x1="128" y1="319" x2="677.8" y2="319" stroke="#ffffff" stroke-width="0.75" stroke-opacity="0.05"/><line x1="128" y1="322" x2="677.8" y2="322" stroke="#ffffff" stroke-width="0.75" stroke-opacity="0.05"/><line x1="128" y1="325" x2="677.8" y2="325" stroke="#ffffff" stroke-width="0.75" stroke-opacity="0.05"/><line x1="128" y1="328" x2="677.8" y2="328" stroke="#ffffff" stroke-width="0.75" stroke-opacity="0.05"/><line x1="128" y1="331" x2="677.8" y2="331" stroke="#ffffff" stroke-width="0.75" stroke-opacity="0.05"/><line x1="128" y1="334" x2="677.8" y2="334" stroke="#ffffff" stroke-width="0.75" stroke-opacity="0.05"/><line x1="128" y1="337" x2="677.8" y2="337" stroke="#ffffff" stroke-width="0.75" stroke-opacity="0.05"/><line x1="128" y1="340" x2="677.8" y2="340" stroke="#ffffff" stroke-width="0.75" stroke-opacity="0.05"/><line x1="128" y1="343" x2="677.8" y2="343" stroke="#ffffff" stroke-width="0.75" stroke-opacity="0.05"/><line x1="128" y1="346" x2="677.8" y2="346" stroke="#ffffff" stroke-width="0.75" stroke-opacity="0.05"/><line x1="128" y1="349" x2="677.8" y2="349" stroke="#ffffff" stroke-width="0.75" stroke-opacity="0.05"/><line x1="128" y1="352" x2="677.8" y2="352" stroke="#ffffff" stroke-width="0.75" stroke-opacity="0.05"/><line x1="128" y1="355" x2="677.8" y2="355" stroke="#ffffff" stroke-width="0.75" stroke-opacity="0.05"/><line x1="128" y1="358" x2="677.8" y2="358" stroke="#ffffff" stroke-width="0.75" stroke-opacity="0.05"/><line x1="128" y1="361" x2="677.8" y2="361" stroke="#ffffff" stroke-width="0.75" stroke-opacity="0.05"/><line x1="128" y1="364" x2="677.8" y2="364" stroke="#ffffff" stroke-width="0.75" stroke-opacity="0.05"/><line x1="128" y1="367" x2="677.8" y2="367" stroke="#ffffff" stroke-width="0.75" stroke-opacity="0.05"/><line x1="128" y1="370" x2="677.8" y2="370" stroke="#ffffff" stroke-width="0.75" stroke-opacity="0.05"/><line x1="128" y1="373" x2="677.8" y2="373" stroke="#ffffff" stroke-width="0.75" stroke-opacity="0.05"/><line x1="128" y1="376" x2="677.8" y2="376" stroke="#ffffff" stroke-width="0.75" stroke-opacity="0.05"/><line x1="128" y1="379" x2="677.8" y2="379" stroke="#ffffff" stroke-width="0.75" stroke-opacity="0.05"/><line x1="128" y1="382" x2="677.8" y2="382" stroke="#ffffff" stroke-width="0.75" stroke-opacity="0.05"/><line x1="128" y1="385" x2="677.8" y2="385" stroke="#ffffff" stroke-width="0.75" stroke-opacity="0.05"/><line x1="128" y1="388" x2="677.8" y2="388" stroke="#ffffff" stroke-width="0.75" stroke-opacity="0.05"/><line x1="128" y1="391" x2="677.8" y2="391" stroke="#ffffff" stroke-width="0.75" stroke-opacity="0.05"/><line x1="128" y1="394" x2="677.8" y2="394" stroke="#ffffff" stroke-width="0.75" stroke-opacity="0.05"/><line x1="128" y1="397" x2="677.8" y2="397" stroke="#ffffff" stroke-width="0.75" stroke-opacity="0.05"/><line x1="128" y1="400" x2="677.8" y2="400" stroke="#ffffff" stroke-width="0.75" stroke-opacity="0.05"/></g><text x="134" y="470" font-family="Liberation Serif, DejaVu Serif, Georgia, 'Times New Roman', serif" font-size="36" letter-spacing="2.5" fill="url(#c-silver)">AI-ed and proud · credited not thanked</text></svg>