<svg xmlns="http://www.w3.org/2000/svg" width="512" height="512" viewBox="0 0 512 512"><defs><radialGradient id="vig" cx="0.5" cy="0.5" r="0.7" gradientUnits="objectBoundingBox"><stop offset="0.55" stop-color="#000000" stop-opacity="0"/><stop offset="1" stop-color="#000000" stop-opacity="0.55"/></radialGradient><linearGradient id="i-bronze" x1="0" y1="46" x2="0" y2="466" gradientUnits="userSpaceOnUse"><stop offset="0" stop-color="#d9b87a"/><stop offset="0.5" stop-color="#a07c44"/><stop offset="1" stop-color="#7a5c2e"/></linearGradient><linearGradient id="i-metal" x1="0" y1="178" x2="0" y2="298" gradientUnits="userSpaceOnUse"><stop offset="0" stop-color="#f5f5f5"/><stop offset="0.16" stop-color="#ededed"/><stop offset="0.5" stop-color="#cfcfcf"/><stop offset="0.68" stop-color="#7d7d7d"/><stop offset="1" stop-color="#6a6a6a"/></linearGradient><clipPath id="i-clip"><path d="M39.28,298 L88.48,178 L137.68,298 L121.84,298 L88.48,201.76 L55.12,298 z" fill="#000"/><path d="M70.758,250 h35.443 v15.84 h-35.443 z" fill="#000"/><path d="M158.08,178 h15.84 v120 h-15.84 z" fill="#000"/><path d="M194.32,178 h15.84 v120 h-15.84 z" fill="#000"/><path d="M194.32,178 H227.584 A45.936,31.2 0 0 1 227.584,240.4 H194.32 z M210.16,193.84 H222.832 A30.096,15.36 0 0 1 222.832,224.56 H210.16 z" fill="#000" fill-rule="evenodd"/><path d="M210.16,231.664 L226,231.664 L273.52,298 L257.68,298 z" fill="#000"/><path d="M293.92,178 h15.84 v120 h-15.84 z" fill="#000"/><path d="M293.92,178 h72 v15.84 h-72 z" fill="#000"/><path d="M293.92,230.08 h60.48 v15.84 h-60.48 z" fill="#000"/><path d="M293.92,282.16 h72 v15.84 h-72 z" fill="#000"/><path d="M386.32,178 H422.608 A50.112,60 0 0 1 422.608,298 H386.32 z M402.16,193.84 H417.856 A34.272,44.16 0 0 1 417.856,282.16 H402.16 z" fill="#000" fill-rule="evenodd"/></clipPath><linearGradient id="i-line-core" x1="0" y1="329.5" x2="0" y2="338.5" gradientUnits="userSpaceOnUse"><stop offset="0" stop-color="#ff3a30"/><stop offset="0.45" stop-color="#e10600"/><stop offset="1" stop-color="#b00500"/></linearGradient><linearGradient id="i-line-fade-g" x1="39.28" y1="0" x2="472.72" y2="0" gradientUnits="userSpaceOnUse"><stop offset="0" stop-color="#000000"/><stop offset="0.06" stop-color="#ffffff"/><stop offset="0.94" stop-color="#ffffff"/><stop offset="1" stop-color="#000000"/></linearGradient><mask id="i-line-fade" maskUnits="userSpaceOnUse" x="39.28" y="298" width="433.44" height="72"><rect x="39.28" y="298" width="433.44" height="72" fill="url(#i-line-fade-g)"/></mask></defs><rect width="512" height="512" fill="#0a0a0a"/><rect width="512" height="512" fill="url(#vig)"/><circle cx="256" cy="256" r="206" fill="none" stroke="url(#i-bronze)" stroke-width="3" stroke-opacity="0.42"/><circle cx="256" cy="256" r="150" fill="none" stroke="url(#i-bronze)" stroke-width="1.6" stroke-opacity="0.22"/><circle cx="256" cy="256" r="206" fill="none" stroke="#efe0bd" stroke-width="0.6" stroke-opacity="0.1"/><g transform="translate(0,-2.16)"><path d="M39.28,298 L88.48,178 L137.68,298 L121.84,298 L88.48,201.76 L55.12,298 z" fill="#f5f5f5"/><path d="M70.758,250 h35.443 v15.84 h-35.443 z" fill="#f5f5f5"/><path d="M158.08,178 h15.84 v120 h-15.84 z" fill="#f5f5f5"/><path d="M194.32,178 h15.84 v120 h-15.84 z" fill="#f5f5f5"/><path d="M194.32,178 H227.584 A45.936,31.2 0 0 1 227.584,240.4 H194.32 z M210.16,193.84 H222.832 A30.096,15.36 0 0 1 222.832,224.56 H210.16 z" fill="#f5f5f5" fill-rule="evenodd"/><path d="M210.16,231.664 L226,231.664 L273.52,298 L257.68,298 z" fill="#f5f5f5"/><path d="M293.92,178 h15.84 v120 h-15.84 z" fill="#f5f5f5"/><path d="M293.92,178 h72 v15.84 h-72 z" fill="#f5f5f5"/><path d="M293.92,230.08 h60.48 v15.84 h-60.48 z" fill="#f5f5f5"/><path d="M293.92,282.16 h72 v15.84 h-72 z" fill="#f5f5f5"/><path d="M386.32,178 H422.608 A50.112,60 0 0 1 422.608,298 H386.32 z M402.16,193.84 H417.856 A34.272,44.16 0 0 1 417.856,282.16 H402.16 z" fill="#f5f5f5" fill-rule="evenodd"/></g><g transform="translate(0,2.16)"><path d="M39.28,298 L88.48,178 L137.68,298 L121.84,298 L88.48,201.76 L55.12,298 z" fill="#000000"/><path d="M70.758,250 h35.443 v15.84 h-35.443 z" fill="#000000"/><path d="M158.08,178 h15.84 v120 h-15.84 z" fill="#000000"/><path d="M194.32,178 h15.84 v120 h-15.84 z" fill="#000000"/><path d="M194.32,178 H227.584 A45.936,31.2 0 0 1 227.584,240.4 H194.32 z M210.16,193.84 H222.832 A30.096,15.36 0 0 1 222.832,224.56 H210.16 z" fill="#000000" fill-rule="evenodd"/><path d="M210.16,231.664 L226,231.664 L273.52,298 L257.68,298 z" fill="#000000"/><path d="M293.92,178 h15.84 v120 h-15.84 z" fill="#000000"/><path d="M293.92,178 h72 v15.84 h-72 z" fill="#000000"/><path d="M293.92,230.08 h60.48 v15.84 h-60.48 z" fill="#000000"/><path d="M293.92,282.16 h72 v15.84 h-72 z" fill="#000000"/><path d="M386.32,178 H422.608 A50.112,60 0 0 1 422.608,298 H386.32 z M402.16,193.84 H417.856 A34.272,44.16 0 0 1 417.856,282.16 H402.16 z" fill="#000000" fill-rule="evenodd"/></g><path d="M39.28,298 L88.48,178 L137.68,298 L121.84,298 L88.48,201.76 L55.12,298 z" fill="url(#i-metal)"/><path d="M70.758,250 h35.443 v15.84 h-35.443 z" fill="url(#i-metal)"/><path d="M158.08,178 h15.84 v120 h-15.84 z" fill="url(#i-metal)"/><path d="M194.32,178 h15.84 v120 h-15.84 z" fill="url(#i-metal)"/><path d="M194.32,178 H227.584 A45.936,31.2 0 0 1 227.584,240.4 H194.32 z M210.16,193.84 H222.832 A30.096,15.36 0 0 1 222.832,224.56 H210.16 z" fill="url(#i-metal)" fill-rule="evenodd"/><path d="M210.16,231.664 L226,231.664 L273.52,298 L257.68,298 z" fill="url(#i-metal)"/><path d="M293.92,178 h15.84 v120 h-15.84 z" fill="url(#i-metal)"/><path d="M293.92,178 h72 v15.84 h-72 z" fill="url(#i-metal)"/><path d="M293.92,230.08 h60.48 v15.84 h-60.48 z" fill="url(#i-metal)"/><path d="M293.92,282.16 h72 v15.84 h-72 z" fill="url(#i-metal)"/><path d="M386.32,178 H422.608 A50.112,60 0 0 1 422.608,298 H386.32 z M402.16,193.84 H417.856 A34.272,44.16 0 0 1 417.856,282.16 H402.16 z" fill="url(#i-metal)" fill-rule="evenodd"/><g clip-path="url(#i-clip)"><line x1="35.28" y1="178" x2="476.72" y2="178" stroke="#ffffff" stroke-width="0.75" stroke-opacity="0.05"/><line x1="35.28" y1="180.5" x2="476.72" y2="180.5" stroke="#ffffff" stroke-width="0.75" stroke-opacity="0.05"/><line x1="35.28" y1="183" x2="476.72" y2="183" stroke="#ffffff" stroke-width="0.75" stroke-opacity="0.05"/><line x1="35.28" y1="185.5" x2="476.72" y2="185.5" stroke="#ffffff" stroke-width="0.75" stroke-opacity="0.05"/><line x1="35.28" y1="188" x2="476.72" y2="188" stroke="#ffffff" stroke-width="0.75" stroke-opacity="0.05"/><line x1="35.28" y1="190.5" x2="476.72" y2="190.5" stroke="#ffffff" stroke-width="0.75" stroke-opacity="0.05"/><line x1="35.28" y1="193" x2="476.72" y2="193" stroke="#ffffff" stroke-width="0.75" stroke-opacity="0.05"/><line x1="35.28" y1="195.5" x2="476.72" y2="195.5" stroke="#ffffff" stroke-width="0.75" stroke-opacity="0.05"/><line x1="35.28" y1="198" x2="476.72" y2="198" stroke="#ffffff" stroke-width="0.75" stroke-opacity="0.05"/><line x1="35.28" y1="200.5" x2="476.72" y2="200.5" stroke="#ffffff" stroke-width="0.75" stroke-opacity="0.05"/><line x1="35.28" y1="203" x2="476.72" y2="203" stroke="#ffffff" stroke-width="0.75" stroke-opacity="0.05"/><line x1="35.28" y1="205.5" x2="476.72" y2="205.5" stroke="#ffffff" stroke-width="0.75" stroke-opacity="0.05"/><line x1="35.28" y1="208" x2="476.72" y2="208" stroke="#ffffff" stroke-width="0.75" stroke-opacity="0.05"/><line x1="35.28" y1="210.5" x2="476.72" y2="210.5" stroke="#ffffff" stroke-width="0.75" stroke-opacity="0.05"/><line x1="35.28" y1="213" x2="476.72" y2="213" stroke="#ffffff" stroke-width="0.75" stroke-opacity="0.05"/><line x1="35.28" y1="215.5" x2="476.72" y2="215.5" stroke="#ffffff" stroke-width="0.75" stroke-opacity="0.05"/><line x1="35.28" y1="218" x2="476.72" y2="218" stroke="#ffffff" stroke-width="0.75" stroke-opacity="0.05"/><line x1="35.28" y1="220.5" x2="476.72" y2="220.5" stroke="#ffffff" stroke-width="0.75" stroke-opacity="0.05"/><line x1="35.28" y1="223" x2="476.72" y2="223" stroke="#ffffff" stroke-width="0.75" stroke-opacity="0.05"/><line x1="35.28" y1="225.5" x2="476.72" y2="225.5" stroke="#ffffff" stroke-width="0.75" stroke-opacity="0.05"/><line x1="35.28" y1="228" x2="476.72" y2="228" stroke="#ffffff" stroke-width="0.75" stroke-opacity="0.05"/><line x1="35.28" y1="230.5" x2="476.72" y2="230.5" stroke="#ffffff" stroke-width="0.75" stroke-opacity="0.05"/><line x1="35.28" y1="233" x2="476.72" y2="233" stroke="#ffffff" stroke-width="0.75" stroke-opacity="0.05"/><line x1="35.28" y1="235.5" x2="476.72" y2="235.5" stroke="#ffffff" stroke-width="0.75" stroke-opacity="0.05"/><line x1="35.28" y1="238" x2="476.72" y2="238" stroke="#ffffff" stroke-width="0.75" stroke-opacity="0.05"/><line x1="35.28" y1="240.5" x2="476.72" y2="240.5" stroke="#ffffff" stroke-width="0.75" stroke-opacity="0.05"/><line x1="35.28" y1="243" x2="476.72" y2="243" stroke="#ffffff" stroke-width="0.75" stroke-opacity="0.05"/><line x1="35.28" y1="245.5" x2="476.72" y2="245.5" stroke="#ffffff" stroke-width="0.75" stroke-opacity="0.05"/><line x1="35.28" y1="248" x2="476.72" y2="248" stroke="#ffffff" stroke-width="0.75" stroke-opacity="0.05"/><line x1="35.28" y1="250.5" x2="476.72" y2="250.5" stroke="#ffffff" stroke-width="0.75" stroke-opacity="0.05"/><line x1="35.28" y1="253" x2="476.72" y2="253" stroke="#ffffff" stroke-width="0.75" stroke-opacity="0.05"/><line x1="35.28" y1="255.5" x2="476.72" y2="255.5" stroke="#ffffff" stroke-width="0.75" stroke-opacity="0.05"/><line x1="35.28" y1="258" x2="476.72" y2="258" stroke="#ffffff" stroke-width="0.75" stroke-opacity="0.05"/><line x1="35.28" y1="260.5" x2="476.72" y2="260.5" stroke="#ffffff" stroke-width="0.75" stroke-opacity="0.05"/><line x1="35.28" y1="263" x2="476.72" y2="263" stroke="#ffffff" stroke-width="0.75" stroke-opacity="0.05"/><line x1="35.28" y1="265.5" x2="476.72" y2="265.5" stroke="#ffffff" stroke-width="0.75" stroke-opacity="0.05"/><line x1="35.28" y1="268" x2="476.72" y2="268" stroke="#ffffff" stroke-width="0.75" stroke-opacity="0.05"/><line x1="35.28" y1="270.5" x2="476.72" y2="270.5" stroke="#ffffff" stroke-width="0.75" stroke-opacity="0.05"/><line x1="35.28" y1="273" x2="476.72" y2="273" stroke="#ffffff" stroke-width="0.75" stroke-opacity="0.05"/><line x1="35.28" y1="275.5" x2="476.72" y2="275.5" stroke="#ffffff" stroke-width="0.75" stroke-opacity="0.05"/><line x1="35.28" y1="278" x2="476.72" y2="278" stroke="#ffffff" stroke-width="0.75" stroke-opacity="0.05"/><line x1="35.28" y1="280.5" x2="476.72" y2="280.5" stroke="#ffffff" stroke-width="0.75" stroke-opacity="0.05"/><line x1="35.28" y1="283" x2="476.72" y2="283" stroke="#ffffff" stroke-width="0.75" stroke-opacity="0.05"/><line x1="35.28" y1="285.5" x2="476.72" y2="285.5" stroke="#ffffff" stroke-width="0.75" stroke-opacity="0.05"/><line x1="35.28" y1="288" x2="476.72" y2="288" stroke="#ffffff" stroke-width="0.75" stroke-opacity="0.05"/><line x1="35.28" y1="290.5" x2="476.72" y2="290.5" stroke="#ffffff" stroke-width="0.75" stroke-opacity="0.05"/><line x1="35.28" y1="293" x2="476.72" y2="293" stroke="#ffffff" stroke-width="0.75" stroke-opacity="0.05"/><line x1="35.28" y1="295.5" x2="476.72" y2="295.5" stroke="#ffffff" stroke-width="0.75" stroke-opacity="0.05"/><line x1="35.28" y1="298" x2="476.72" y2="298" stroke="#ffffff" stroke-width="0.75" stroke-opacity="0.05"/></g><g mask="url(#i-line-fade)"><rect x="39.28" y="302.5" width="433.44" height="63" rx="31.5" fill="#ff2d2d" fill-opacity="0.05"/><rect x="39.28" y="316" width="433.44" height="36" rx="18" fill="#ff2d2d" fill-opacity="0.09"/><rect x="39.28" y="324.1" width="433.44" height="19.8" rx="9.9" fill="#ff3a30" fill-opacity="0.18"/><rect x="39.28" y="329.5" width="433.44" height="9" rx="4.5" fill="url(#i-line-core)"/><rect x="39.28" y="333.28" width="433.44" height="1.44" rx="0.72" fill="#ff9a86" fill-opacity="0.5"/></g></svg>